<svg xmlns="http://www.w3.org/2000/svg" xmlns:xlink="http://www.w3.org/1999/xlink" width="273.135" height="639.139" viewBox="0 0 273.135 639.139">
  <defs>
    <linearGradient id="linear-gradient" x1="-89.278" y1="-5.067" x2="-89.279" y2="-6.088" gradientUnits="objectBoundingBox">
      <stop offset="0" stop-color="#fff"/>
      <stop offset="0.129" stop-color="#eff6ff"/>
      <stop offset="0.515" stop-color="#c5deff"/>
      <stop offset="0.819" stop-color="#abd0ff"/>
      <stop offset="1" stop-color="#a2cbff"/>
    </linearGradient>
    <linearGradient id="linear-gradient-2" x1="-0.094" y1="0.285" x2="1.098" y2="0.856" gradientUnits="objectBoundingBox">
      <stop offset="0" stop-color="#fff"/>
      <stop offset="0.209" stop-color="#fbfcff"/>
      <stop offset="0.416" stop-color="#eff6ff"/>
      <stop offset="0.623" stop-color="#dbeaff"/>
      <stop offset="0.827" stop-color="#bfdbff"/>
      <stop offset="1" stop-color="#a2cbff"/>
    </linearGradient>
    <linearGradient id="linear-gradient-3" x1="-15.84" y1="142.105" x2="-14.851" y2="142.258" gradientUnits="objectBoundingBox">
      <stop offset="0" stop-color="#fcc715"/>
      <stop offset="0.083" stop-color="#fcbf19"/>
      <stop offset="0.431" stop-color="#fca628"/>
      <stop offset="0.746" stop-color="#fc9731"/>
      <stop offset="1" stop-color="#fd9235"/>
    </linearGradient>
    <linearGradient id="linear-gradient-4" x1="-101.687" y1="-1.446" x2="-100.977" y2="-0.742" gradientUnits="objectBoundingBox">
      <stop offset="0" stop-color="#2559cd"/>
      <stop offset="0.352" stop-color="#2255cb"/>
      <stop offset="0.692" stop-color="#1a49c7"/>
      <stop offset="1" stop-color="#0f38c1"/>
    </linearGradient>
    <linearGradient id="linear-gradient-5" x1="-105.881" y1="-1.576" x2="-105.375" y2="-1.017" gradientUnits="objectBoundingBox">
      <stop offset="0" stop-color="#0f38c1"/>
      <stop offset="0.348" stop-color="#133ec3"/>
      <stop offset="0.848" stop-color="#2051ca"/>
      <stop offset="1" stop-color="#2559cd"/>
    </linearGradient>
  </defs>
  <g id="Group_426" data-name="Group 426" transform="translate(-1381.078 -445.242)">
    <g id="Group_420" data-name="Group 420">
      <path id="Path_789" data-name="Path 789" d="M1518.192,813.728a50.9,50.9,0,0,0-50.9,50.9c0,73.093,50.9,120.87,50.9,219.757,0-98.887,50.9-146.664,50.9-219.757A50.9,50.9,0,0,0,1518.192,813.728Z" fill="#fff" opacity="0.5" style="mix-blend-mode: soft-light;isolation: isolate"/>
      <path id="Path_790" data-name="Path 790" d="M1518.192,813.728a34.074,34.074,0,0,0-34.074,34.074c0,48.932,34.074,80.917,34.074,147.118,0-66.2,34.072-98.186,34.072-147.118A34.072,34.072,0,0,0,1518.192,813.728Z" fill="#fff" style="mix-blend-mode: soft-light;isolation: isolate"/>
    </g>
    <path id="Rectangle_178" data-name="Rectangle 178" d="M0,0H81.942a0,0,0,0,1,0,0V17.083a1.868,1.868,0,0,1-1.868,1.868H1.868A1.868,1.868,0,0,1,0,17.083V0A0,0,0,0,1,0,0Z" transform="translate(1476.568 807.576) rotate(0.288)" fill="url(#linear-gradient)"/>
    <g id="Group_421" data-name="Group 421">
      <path id="Path_791" data-name="Path 791" d="M1603.221,691.329l45.062,63.387a32.062,32.062,0,0,1,5,26.242l-21.271,86.388a3.792,3.792,0,0,1-6.273,1.862l-68.244-62.187Z" fill="#ffc93d"/>
      <path id="Path_792" data-name="Path 792" d="M1432.62,690.756l-45.487,63.082a32.06,32.06,0,0,0-5.176,26.208l20.69,86.53a3.792,3.792,0,0,0,6.26,1.9l68.66-61.727Z" fill="#ffc93d"/>
    </g>
    <path id="Path_793" data-name="Path 793" d="M1519.035,445.242c-77.47,63.086-120.393,262.58-58.076,357.4a9.808,9.808,0,0,0,8.044,4.716l96.724.514a9.8,9.8,0,0,0,8.088-4.63C1637.035,709.089,1595.9,509.148,1519.035,445.242Z" fill="url(#linear-gradient-2)"/>
    <path id="Path_794" data-name="Path 794" d="M1519.035,445.242c-27.988,22.792-51.4,63.43-67.031,110.468-24.85-1.189,132.989.554,132.989.554C1569.8,509.127,1546.774,468.3,1519.035,445.242Z" fill="#ffc93d"/>
    <g id="Group_425" data-name="Group 425">
      <circle id="Ellipse_46" data-name="Ellipse 46" cx="44.589" cy="44.589" r="44.589" transform="translate(1455.041 637.449) rotate(-45)" fill="url(#linear-gradient-3)"/>
      <g id="Group_424" data-name="Group 424">
        <g id="Group_422" data-name="Group 422">
          <path id="Path_795" data-name="Path 795" d="M1553.824,632.118a36.12,36.12,0,1,1-41.055-30.392A36.119,36.119,0,0,1,1553.824,632.118Z" fill="url(#linear-gradient-4)"/>
          <path id="Path_796" data-name="Path 796" d="M1553.824,632.119a35.935,35.935,0,0,0-10.959-20.922c.041.982.119,1.961.232,2.916.529,4.445,1.477,9.031.2,13.32a13.514,13.514,0,0,1-8.232,8.706c-5.58,2.011-12.091.182-17.494,2.63-6.581,2.982-9.388,11.31-15.9,14.448a17.148,17.148,0,0,1-10.031,1.091,14.393,14.393,0,0,1-6.677-2.58,36.1,36.1,0,0,0,68.862-19.609Z" fill="url(#linear-gradient-5)"/>
        </g>
        <g id="Group_423" data-name="Group 423" opacity="0.4" style="mix-blend-mode: overlay;isolation: isolate">
          <path id="Path_797" data-name="Path 797" d="M1519.215,607.381q-1.158.008-2.325.106a3.01,3.01,0,0,0,.241,6.008l.28-.012c.613-.054,1.228-.079,1.836-.084a3.006,3.006,0,0,0,2.994-3.027A3.031,3.031,0,0,0,1519.215,607.381Zm-2.079,5.062Z" fill="#fff"/>
          <path id="Path_798" data-name="Path 798" d="M1509.107,609.57a3,3,0,0,0-2.3-.025,30.193,30.193,0,0,0-16.818,16.968,3.025,3.025,0,0,0,1.719,3.9,2.987,2.987,0,0,0,1.072.2,3.028,3.028,0,0,0,2.818-1.913,23.829,23.829,0,0,1,13.451-13.571,3.008,3.008,0,0,0,.058-5.56Z" fill="#fff"/>
        </g>
      </g>
    </g>
    <path id="Path_799" data-name="Path 799" d="M1462.052,786.067c2.219,7.168,4.657,14.3,7.362,21.388h42.31q-1.1-1.781-2.195-3.622c-1.811-3.089-3.548-6.285-5.253-9.518-3.376-6.494-6.475-13.213-9.414-20.03a326.947,326.947,0,0,1-14.456-42.429,341.743,341.743,0,0,1-11.361-89.968,350.315,350.315,0,0,1,3.222-45.874l.727-5.737.979-5.7,1.978-11.418,2.484-11.334,1.245-5.682,1.5-5.616a453.953,453.953,0,0,1,32.964-87.55,459,459,0,0,0-42.462,84.551l-2.136,5.574-1.887,5.66-3.777,11.349-3.28,11.517-1.631,5.775-1.383,5.838a371.513,371.513,0,0,0-6.435,144.691A358.964,358.964,0,0,0,1462.052,786.067Z" fill="#fff" style="mix-blend-mode: soft-light;isolation: isolate"/>
    <path id="Path_800" data-name="Path 800" d="M1517.1,890.176h0a12.77,12.77,0,0,1-12.7-12.562l-1.185-86.379A154.463,154.463,0,0,1,1506,759.394l8.273-42.75,7.352.037,7.843,42.829a154.482,154.482,0,0,1,2.473,31.869l-2.016,86.363A12.77,12.77,0,0,1,1517.1,890.176Z" fill="#ffc93d"/>
  </g>
</svg>
