<?xml version="1.0" encoding="utf-8"?>
<!-- Generator: Adobe Illustrator 23.0.4, SVG Export Plug-In . SVG Version: 6.00 Build 0)  -->
<svg version="1.1" id="Layer_1" xmlns="http://www.w3.org/2000/svg" xmlns:xlink="http://www.w3.org/1999/xlink" x="0px" y="0px"
	 viewBox="0 0 145.95 162.89" style="enable-background:new 0 0 145.95 162.89;" xml:space="preserve">
<style type="text/css">
	.st0{fill:#F7F0ED;}
	.st1{fill:#FFBE05;stroke:#000000;stroke-width:1.2862;stroke-linecap:round;stroke-linejoin:round;stroke-miterlimit:10;}
	.st2{fill:#FFFFFF;stroke:#1A1A1A;stroke-width:1.2862;stroke-linecap:round;stroke-linejoin:round;stroke-miterlimit:10;}
	.st3{fill:#F7F0ED;stroke:#1A1A1A;stroke-width:1.2862;stroke-linecap:round;stroke-linejoin:round;stroke-miterlimit:10;}
	.st4{fill:#F7F0ED;stroke:#000000;stroke-width:1.2862;stroke-linecap:round;stroke-linejoin:round;stroke-miterlimit:10;}
	.st5{fill:#1A1A1A;stroke:#1A1A1A;stroke-width:1.2862;stroke-linecap:round;stroke-linejoin:round;stroke-miterlimit:10;}
	.st6{fill:#808080;}
	.st7{fill:none;stroke:#F7F0ED;stroke-width:1.8461;stroke-linecap:round;stroke-miterlimit:10;}
	.st8{opacity:0.1;fill:#640917;}
	.st9{opacity:0.27;fill:none;stroke:#640917;stroke-width:1.8461;stroke-linecap:round;stroke-miterlimit:10;}
	.st10{fill:none;stroke:#000000;stroke-width:1.8461;stroke-linecap:round;stroke-miterlimit:10;}
	.st11{opacity:0.1;fill:none;stroke:#640917;stroke-width:1.8461;stroke-linecap:round;stroke-miterlimit:10;}
	.st12{fill:none;stroke:#FFFFFF;stroke-width:1.8461;stroke-linecap:round;stroke-miterlimit:10;}
	.st13{fill:#F7F0ED;stroke:#640917;stroke-width:1.2862;stroke-linecap:round;stroke-linejoin:round;stroke-miterlimit:10;}
	.st14{fill:none;stroke:#1A1A1A;stroke-width:1.8461;stroke-linecap:round;stroke-miterlimit:10;}
	.st15{opacity:0.27;fill:none;stroke:#000000;stroke-width:1.8461;stroke-linecap:round;stroke-miterlimit:10;}
	.st16{opacity:0.1;fill:none;stroke:#000000;stroke-width:1.2862;stroke-linecap:round;stroke-miterlimit:10;}
	.st17{fill:#FFD671;stroke:#1A1A1A;stroke-width:1.2862;stroke-miterlimit:10;}
	.st18{fill:#E25959;stroke:#640917;stroke-width:1.2862;stroke-linecap:round;stroke-miterlimit:10;}
	.st19{fill:#B1C9C7;stroke:#000000;stroke-width:1.2862;stroke-miterlimit:10;}
	.st20{fill:#FCD3B6;stroke:#000000;stroke-width:1.2862;stroke-linecap:round;stroke-miterlimit:10;}
	.st21{fill:#EDB19B;stroke:#000000;stroke-width:1.2862;stroke-linecap:round;stroke-miterlimit:10;}
	.st22{fill:#FCD3B6;stroke:#640917;stroke-width:1.2862;stroke-linecap:round;stroke-miterlimit:10;}
	.st23{fill:#EDB19B;stroke:#640917;stroke-width:1.2862;stroke-linecap:round;stroke-miterlimit:10;}
	.st24{fill:#CDE0DF;stroke:#000000;stroke-width:1.2862;stroke-miterlimit:10;}
	.st25{fill:#FFFFFF;stroke:#000000;stroke-width:1.2862;stroke-linecap:round;stroke-miterlimit:10;}
	.st26{fill:#2E49CE;stroke:#000000;stroke-width:1.2862;stroke-miterlimit:10;}
	.st27{fill:#FFD671;stroke:#000000;stroke-width:1.2862;stroke-miterlimit:10;}
	.st28{fill:#FCD3B6;stroke:#66321E;stroke-width:5.7001;stroke-linecap:round;stroke-miterlimit:10;}
	.st29{fill:none;stroke:#808080;stroke-width:2.5435;stroke-miterlimit:10;}
	.st30{fill:#808080;stroke:#4D4D4D;stroke-width:0.9446;stroke-miterlimit:10;}
	.st31{opacity:0.41;}
	.st32{fill:#FEEDCC;}
	.st33{fill:#FFBE2E;}
	.st34{fill:#ECF1F7;}
	.st35{fill:#243762;}
	.st36{fill:#FFFFFF;}
	.st37{fill:#FFBE2E;stroke:#000000;stroke-width:1.8684;stroke-miterlimit:10;}
	.st38{opacity:0.26;}
	.st39{fill:#F7A9B4;}
	.st40{opacity:0.25;fill:#FFFFFF;}
	.st41{fill:#5908C1;}
	.st42{clip-path:url(#SVGID_4_);fill:#FFBE2E;}
	.st43{opacity:0.3;}
	.st44{fill:#371A45;}
	.st45{opacity:0.25;}
	.st46{opacity:0.35;}
	.st47{fill:#00AAFF;}
	.st48{opacity:0.6;}
	.st49{fill:#EC1C24;}
	.st50{fill:#D25658;}
	.st51{fill:#6BD6F0;}
	.st52{opacity:0.2;}
	.st53{opacity:0.7;}
	.st54{fill:#22A7F0;}
	.st55{fill:#0858B7;stroke:#000000;stroke-width:9.9513;stroke-miterlimit:10;}
	.st56{fill:#FFFFFF;stroke:#000000;stroke-width:4.6506;stroke-miterlimit:10;}
	.st57{fill:#FFFFFF;stroke:#000000;stroke-width:10.213;stroke-miterlimit:10;}
	.st58{fill:#C1272D;stroke:#000000;stroke-width:5.1065;stroke-miterlimit:10;}
	.st59{fill:#390075;}
	.st60{fill:#DBE3EE;}
	.st61{fill:#33AEF1;}
	.st62{filter:url(#Adobe_OpacityMaskFilter);}
	.st63{filter:url(#Adobe_OpacityMaskFilter_1_);}
	.st64{mask:url(#SVGID_7_);fill:url(#SVGID_8_);}
	.st65{opacity:0.3;fill:url(#SVGID_9_);}
	.st66{filter:url(#Adobe_OpacityMaskFilter_2_);}
	.st67{filter:url(#Adobe_OpacityMaskFilter_3_);}
	.st68{mask:url(#SVGID_10_);fill:url(#SVGID_11_);}
	.st69{opacity:0.3;fill:url(#SVGID_12_);}
	.st70{filter:url(#Adobe_OpacityMaskFilter_4_);}
	.st71{filter:url(#Adobe_OpacityMaskFilter_5_);}
	.st72{mask:url(#SVGID_13_);fill:url(#SVGID_14_);}
	.st73{opacity:0.3;fill:url(#SVGID_15_);}
	.st74{clip-path:url(#SVGID_17_);fill:#F47C00;}
	.st75{clip-path:url(#SVGID_17_);fill:#F47D01;}
	.st76{clip-path:url(#SVGID_17_);fill:#F47E01;}
	.st77{clip-path:url(#SVGID_17_);fill:#F47F02;}
	.st78{clip-path:url(#SVGID_17_);fill:#F58002;}
	.st79{clip-path:url(#SVGID_17_);fill:#F58103;}
	.st80{clip-path:url(#SVGID_17_);fill:#F58203;}
	.st81{clip-path:url(#SVGID_17_);fill:#F58304;}
	.st82{clip-path:url(#SVGID_17_);fill:#F58404;}
	.st83{clip-path:url(#SVGID_17_);fill:#F58505;}
	.st84{clip-path:url(#SVGID_17_);fill:#F58605;}
	.st85{clip-path:url(#SVGID_17_);fill:#F68706;}
	.st86{clip-path:url(#SVGID_17_);fill:#F68806;}
	.st87{clip-path:url(#SVGID_17_);fill:#F68907;}
	.st88{clip-path:url(#SVGID_17_);fill:#F68A07;}
	.st89{clip-path:url(#SVGID_17_);fill:#F68B08;}
	.st90{clip-path:url(#SVGID_17_);fill:#F68C09;}
	.st91{clip-path:url(#SVGID_17_);fill:#F68D09;}
	.st92{clip-path:url(#SVGID_17_);fill:#F78E0A;}
	.st93{clip-path:url(#SVGID_17_);fill:#F78F0A;}
	.st94{clip-path:url(#SVGID_17_);fill:#F7900B;}
	.st95{clip-path:url(#SVGID_17_);fill:#F7910B;}
	.st96{clip-path:url(#SVGID_17_);fill:#F7920C;}
	.st97{clip-path:url(#SVGID_17_);fill:#F7930C;}
	.st98{clip-path:url(#SVGID_17_);fill:#F7940D;}
	.st99{clip-path:url(#SVGID_17_);fill:#F8950D;}
	.st100{clip-path:url(#SVGID_17_);fill:#F8960E;}
	.st101{clip-path:url(#SVGID_17_);fill:#F8970E;}
	.st102{clip-path:url(#SVGID_17_);fill:#F8980F;}
	.st103{clip-path:url(#SVGID_17_);fill:#F8990F;}
	.st104{clip-path:url(#SVGID_17_);fill:#F89A10;}
	.st105{clip-path:url(#SVGID_17_);fill:#F89B11;}
	.st106{clip-path:url(#SVGID_17_);fill:#F99C11;}
	.st107{clip-path:url(#SVGID_17_);fill:#F99D12;}
	.st108{clip-path:url(#SVGID_17_);fill:#F99E12;}
	.st109{clip-path:url(#SVGID_17_);fill:#F99F13;}
	.st110{clip-path:url(#SVGID_17_);fill:#F9A013;}
	.st111{clip-path:url(#SVGID_17_);fill:#F9A114;}
	.st112{clip-path:url(#SVGID_17_);fill:#F9A214;}
	.st113{clip-path:url(#SVGID_17_);fill:#FAA415;}
	.st114{clip-path:url(#SVGID_17_);fill:#FAA515;}
	.st115{clip-path:url(#SVGID_17_);fill:#FAA616;}
	.st116{clip-path:url(#SVGID_17_);fill:#FAA716;}
	.st117{clip-path:url(#SVGID_17_);fill:#FAA817;}
	.st118{clip-path:url(#SVGID_17_);fill:#FAA917;}
	.st119{clip-path:url(#SVGID_17_);fill:#FAAA18;}
	.st120{clip-path:url(#SVGID_17_);fill:#FBAB18;}
	.st121{clip-path:url(#SVGID_17_);fill:#FBAC19;}
	.st122{clip-path:url(#SVGID_17_);fill:#FBAD1A;}
	.st123{clip-path:url(#SVGID_17_);fill:#FBAE1A;}
	.st124{clip-path:url(#SVGID_17_);fill:#FBAF1B;}
	.st125{clip-path:url(#SVGID_17_);fill:#FBB01B;}
	.st126{clip-path:url(#SVGID_17_);fill:#FBB11C;}
	.st127{clip-path:url(#SVGID_17_);fill:#FCB21C;}
	.st128{clip-path:url(#SVGID_17_);fill:#FCB31D;}
	.st129{clip-path:url(#SVGID_17_);fill:#FCB41D;}
	.st130{clip-path:url(#SVGID_17_);fill:#FCB51E;}
	.st131{clip-path:url(#SVGID_17_);fill:#FCB61E;}
	.st132{clip-path:url(#SVGID_17_);fill:#FCB71F;}
	.st133{clip-path:url(#SVGID_17_);fill:#FCB81F;}
	.st134{clip-path:url(#SVGID_17_);fill:#FDB920;}
	.st135{clip-path:url(#SVGID_17_);fill:#FDBA20;}
	.st136{clip-path:url(#SVGID_17_);fill:#FDBB21;}
	.st137{clip-path:url(#SVGID_17_);fill:#FDBC22;}
	.st138{clip-path:url(#SVGID_17_);fill:#FDBD22;}
	.st139{clip-path:url(#SVGID_17_);fill:#FDBE23;}
	.st140{clip-path:url(#SVGID_17_);fill:#FDBF23;}
	.st141{clip-path:url(#SVGID_17_);fill:#FEC024;}
	.st142{clip-path:url(#SVGID_17_);fill:#FEC124;}
	.st143{clip-path:url(#SVGID_17_);fill:#FEC225;}
	.st144{clip-path:url(#SVGID_17_);fill:#FEC325;}
	.st145{clip-path:url(#SVGID_17_);fill:#FEC426;}
	.st146{clip-path:url(#SVGID_17_);fill:#FEC526;}
	.st147{clip-path:url(#SVGID_17_);fill:#FEC627;}
	.st148{clip-path:url(#SVGID_17_);fill:#FFC727;}
	.st149{clip-path:url(#SVGID_17_);fill:#FFC828;}
	.st150{clip-path:url(#SVGID_17_);fill:#FFC928;}
	.st151{clip-path:url(#SVGID_17_);fill:#FFCA29;}
	.st152{opacity:0.55;}
	.st153{fill:#D36C0F;}
	.st154{fill:#FFCA29;}
	.st155{fill:#1EBC61;}
	.st156{fill:#282E6B;}
	.st157{fill:#9EEF79;}
	.st158{fill:#418BF9;}
	.st159{fill:#01D3EC;}
	.st160{opacity:0.5;}
	.st161{fill:#F9C710;}
	.st162{fill:#F89F1D;}
	.st163{fill:#E84C3D;}
	.st164{fill:#00ADEF;}
	.st165{fill:#FACA44;}
	.st166{fill:#ECF0F1;}
	.st167{fill:#FFF8D1;}
	.st168{fill:#272525;}
	.st169{fill:#6401E3;}
	.st170{fill:#FDBC07;}
	.st171{fill:#989898;}
	.st172{fill:#D5DAEE;}
	.st173{fill:#FDDA9A;}
	.st174{fill:#150035;}
	.st175{fill:#FDBC2E;stroke:#000000;stroke-width:1.3688;stroke-miterlimit:10;}
	.st176{fill:#FDBC2E;}
	.st177{fill:#FDBC2E;stroke:#000000;stroke-width:0.5979;stroke-miterlimit:10;}
	.st178{stroke:#000000;stroke-width:0.483;stroke-miterlimit:10;}
	.st179{fill:none;stroke:#000000;stroke-width:9.9055;stroke-miterlimit:10;}
	.st180{fill:none;stroke:#000000;stroke-width:5.3043;stroke-miterlimit:10;}
	.st181{fill:#00CC7E;stroke:#000000;stroke-width:3.5362;stroke-miterlimit:10;}
	.st182{fill:#16110D;}
	.st183{fill:#FFBE05;}
	.st184{fill:#FFEDC9;}
	.st185{fill:#FFBD16;}
	.st186{fill:#FFECC9;}
	.st187{fill:#15100C;}
	.st188{fill:#FDEBC9;}
	.st189{fill:#FCEAC9;}
	.st190{fill:#140F0C;}
	.st191{fill:#FFBE05;stroke:#000000;stroke-width:3;stroke-miterlimit:10;}
	.st192{fill:#707384;}
	.st193{fill:none;stroke:#000000;stroke-width:14.5116;stroke-miterlimit:10;}
	.st194{fill-rule:evenodd;clip-rule:evenodd;}
</style>
<g>
	<g>
		<g>
			<path d="M110.34,162.89h-109c-0.74,0-1.34-0.6-1.34-1.34V8.05c0-0.74,0.6-1.34,1.34-1.34h109c0.74,0,1.34,0.6,1.34,1.34v153.51
				C111.68,162.29,111.08,162.89,110.34,162.89z M2.68,160.22H109V9.39H2.68V160.22z"/>
		</g>
		<g>
			<path d="M132.14,160.61c-0.51,0-0.98-0.29-1.2-0.75l-12.19-25.11c-0.09-0.18-0.13-0.38-0.13-0.58V47.51
				c0-0.74,0.6-1.34,1.34-1.34h24.38c0.74,0,1.34,0.6,1.34,1.34v86.65c0,0.2-0.05,0.4-0.13,0.58l-12.19,25.11
				C133.12,160.32,132.65,160.61,132.14,160.61z M121.29,133.86l10.85,22.35l10.85-22.35V48.85h-21.7V133.86z"/>
		</g>
		<g>
			<path d="M132.14,160.61c-0.51,0-0.98-0.29-1.2-0.75l-3.47-7.15c-0.18-0.37-0.18-0.8,0-1.16c0.18-0.37,0.51-0.64,0.91-0.73
				c2.32-0.53,5.21-0.53,7.53,0c0.4,0.09,0.73,0.36,0.91,0.73c0.18,0.37,0.18,0.8,0,1.16l-3.46,7.15
				C133.12,160.32,132.65,160.61,132.14,160.61L132.14,160.61z M130.66,153.16l1.48,3.04l1.48-3.04
				C132.66,153.08,131.61,153.08,130.66,153.16z"/>
		</g>
		<g>
			<path d="M144.61,135.54c-0.23,0-0.47-0.06-0.68-0.19l-3.93-2.33l-2.49,2.15c-0.47,0.4-1.15,0.43-1.66,0.07l-3.92-2.83l-2.7,2.7
				c-0.25,0.25-0.59,0.39-0.95,0.39h0c-0.36,0-0.7-0.14-0.95-0.4l-2.68-2.7l-3.92,2.82c-0.61,0.44-1.44,0.29-1.87-0.3
				c-0.43-0.6-0.3-1.44,0.3-1.87l4.85-3.49c0.53-0.39,1.27-0.33,1.73,0.14l2.54,2.56l2.56-2.56c0.46-0.47,1.2-0.52,1.73-0.14
				l3.99,2.87l2.42-2.09c0.44-0.38,1.07-0.43,1.56-0.14l4.75,2.82c0.64,0.38,0.85,1.2,0.47,1.83
				C145.51,135.31,145.07,135.54,144.61,135.54z"/>
		</g>
		<g>
			<path d="M125.41,132.38c-0.74,0-1.34-0.6-1.34-1.34V47.51c0-0.74,0.6-1.34,1.34-1.34c0.74,0,1.34,0.6,1.34,1.34v83.53
				C126.75,131.78,126.15,132.38,125.41,132.38z"/>
		</g>
		<g>
			<path d="M131.69,132.78c-0.74,0-1.34-0.6-1.34-1.33l-0.38-83.93c0-0.74,0.59-1.34,1.33-1.34c0,0,0,0,0.01,0
				c0.74,0,1.34,0.6,1.34,1.33l0.38,83.93C133.03,132.18,132.44,132.78,131.69,132.78C131.7,132.78,131.69,132.78,131.69,132.78z"/>
		</g>
		<g>
			<path d="M138.06,133.76c-0.74,0-1.34-0.6-1.34-1.34V47.51c0-0.74,0.6-1.34,1.34-1.34c0.74,0,1.34,0.6,1.34,1.34v84.91
				C139.4,133.16,138.8,133.76,138.06,133.76z"/>
		</g>
		<g>
			<path d="M144.32,48.85h-24.38c-0.74,0-1.34-0.6-1.34-1.34v-6.32c0-4.23,3.44-7.66,7.67-7.66H138c4.23,0,7.67,3.44,7.67,7.66v6.32
				C145.66,48.25,145.06,48.85,144.32,48.85z M121.29,46.17h21.7v-4.98c0-2.75-2.24-4.99-4.99-4.99h-11.73
				c-2.75,0-4.99,2.24-4.99,4.99V46.17z"/>
		</g>
		<g>
			<path d="M92.02,50H19.66c-0.74,0-1.34-0.6-1.34-1.34V31.2c0-0.74,0.6-1.34,1.34-1.34h72.36c0.74,0,1.34,0.6,1.34,1.34v17.46
				C93.36,49.4,92.76,50,92.02,50z M21,47.32h69.68V32.54H21V47.32z"/>
		</g>
		<g>
			<path d="M90.68,61.5H21.01c-0.74,0-1.34-0.6-1.34-1.34s0.6-1.34,1.34-1.34h69.67c0.74,0,1.34,0.6,1.34,1.34
				S91.42,61.5,90.68,61.5z"/>
		</g>
		<g>
			<path d="M90.68,72.45H21.01c-0.74,0-1.34-0.6-1.34-1.34s0.6-1.34,1.34-1.34h69.67c0.74,0,1.34,0.6,1.34,1.34
				S91.42,72.45,90.68,72.45z"/>
		</g>
		<g>
			<path d="M90.68,83.39H42.72c-0.74,0-1.34-0.6-1.34-1.34s0.6-1.34,1.34-1.34h47.96c0.74,0,1.34,0.6,1.34,1.34
				S91.42,83.39,90.68,83.39z"/>
		</g>
		<g>
			<path d="M73.24,94.32H21.01c-0.74,0-1.34-0.6-1.34-1.34s0.6-1.34,1.34-1.34h52.23c0.74,0,1.34,0.6,1.34,1.34
				S73.98,94.32,73.24,94.32z"/>
		</g>
		<g>
			<path d="M90.68,105.26H21.01c-0.74,0-1.34-0.6-1.34-1.34s0.6-1.34,1.34-1.34h69.67c0.74,0,1.34,0.6,1.34,1.34
				S91.42,105.26,90.68,105.26z"/>
		</g>
		<g>
			<path d="M90.68,116.2H35.63c-0.74,0-1.34-0.6-1.34-1.34s0.6-1.34,1.34-1.34h55.05c0.74,0,1.34,0.6,1.34,1.34
				S91.42,116.2,90.68,116.2z"/>
		</g>
		<g>
			<path d="M90.68,127.13H21.01c-0.74,0-1.34-0.6-1.34-1.34s0.6-1.34,1.34-1.34h69.67c0.74,0,1.34,0.6,1.34,1.34
				S91.42,127.13,90.68,127.13z"/>
		</g>
		<g>
			<path d="M99.02,16.09c-0.74,0-1.34-0.6-1.34-1.34V1.34c0-0.74,0.6-1.34,1.34-1.34c0.74,0,1.34,0.6,1.34,1.34v13.42
				C100.36,15.5,99.76,16.09,99.02,16.09z M84.62,16.09c-0.74,0-1.34-0.6-1.34-1.34V1.34c0-0.74,0.6-1.34,1.34-1.34
				c0.74,0,1.34,0.6,1.34,1.34v13.42C85.96,15.5,85.36,16.09,84.62,16.09z M70.23,16.09c-0.74,0-1.34-0.6-1.34-1.34V1.34
				c0-0.74,0.6-1.34,1.34-1.34s1.34,0.6,1.34,1.34v13.42C71.57,15.5,70.97,16.09,70.23,16.09z M55.83,16.09
				c-0.74,0-1.34-0.6-1.34-1.34V1.34c0-0.74,0.6-1.34,1.34-1.34c0.74,0,1.34,0.6,1.34,1.34v13.42
				C57.17,15.5,56.57,16.09,55.83,16.09z M41.44,16.09c-0.74,0-1.34-0.6-1.34-1.34V1.34C40.1,0.6,40.7,0,41.44,0
				c0.74,0,1.34,0.6,1.34,1.34v13.42C42.78,15.5,42.18,16.09,41.44,16.09z M27.05,16.09c-0.74,0-1.34-0.6-1.34-1.34V1.34
				c0-0.74,0.6-1.34,1.34-1.34c0.74,0,1.34,0.6,1.34,1.34v13.42C28.38,15.5,27.79,16.09,27.05,16.09z M12.65,16.09
				c-0.74,0-1.34-0.6-1.34-1.34V1.34c0-0.74,0.6-1.34,1.34-1.34s1.34,0.6,1.34,1.34v13.42C13.99,15.5,13.39,16.09,12.65,16.09z"/>
		</g>
	</g>
</g>
</svg>
