<?xml version="1.0" encoding="utf-8"?>
<!-- Generator: Adobe Illustrator 23.0.4, SVG Export Plug-In . SVG Version: 6.00 Build 0)  -->
<svg version="1.1" id="Layer_1" xmlns="http://www.w3.org/2000/svg" xmlns:xlink="http://www.w3.org/1999/xlink" x="0px" y="0px"
	 viewBox="0 0 176.41 163.34" style="enable-background:new 0 0 176.41 163.34;" xml:space="preserve">
<style type="text/css">
	.st0{fill:#F7F0ED;}
	.st1{fill:#FFBE05;stroke:#000000;stroke-width:1.2862;stroke-linecap:round;stroke-linejoin:round;stroke-miterlimit:10;}
	.st2{fill:#FFFFFF;stroke:#1A1A1A;stroke-width:1.2862;stroke-linecap:round;stroke-linejoin:round;stroke-miterlimit:10;}
	.st3{fill:#F7F0ED;stroke:#1A1A1A;stroke-width:1.2862;stroke-linecap:round;stroke-linejoin:round;stroke-miterlimit:10;}
	.st4{fill:#F7F0ED;stroke:#000000;stroke-width:1.2862;stroke-linecap:round;stroke-linejoin:round;stroke-miterlimit:10;}
	.st5{fill:#1A1A1A;stroke:#1A1A1A;stroke-width:1.2862;stroke-linecap:round;stroke-linejoin:round;stroke-miterlimit:10;}
	.st6{fill:#808080;}
	.st7{fill:none;stroke:#F7F0ED;stroke-width:1.8461;stroke-linecap:round;stroke-miterlimit:10;}
	.st8{opacity:0.1;fill:#640917;}
	.st9{opacity:0.27;fill:none;stroke:#640917;stroke-width:1.8461;stroke-linecap:round;stroke-miterlimit:10;}
	.st10{fill:none;stroke:#000000;stroke-width:1.8461;stroke-linecap:round;stroke-miterlimit:10;}
	.st11{opacity:0.1;fill:none;stroke:#640917;stroke-width:1.8461;stroke-linecap:round;stroke-miterlimit:10;}
	.st12{fill:none;stroke:#FFFFFF;stroke-width:1.8461;stroke-linecap:round;stroke-miterlimit:10;}
	.st13{fill:#F7F0ED;stroke:#640917;stroke-width:1.2862;stroke-linecap:round;stroke-linejoin:round;stroke-miterlimit:10;}
	.st14{fill:none;stroke:#1A1A1A;stroke-width:1.8461;stroke-linecap:round;stroke-miterlimit:10;}
	.st15{opacity:0.27;fill:none;stroke:#000000;stroke-width:1.8461;stroke-linecap:round;stroke-miterlimit:10;}
	.st16{opacity:0.1;fill:none;stroke:#000000;stroke-width:1.2862;stroke-linecap:round;stroke-miterlimit:10;}
	.st17{fill:#FFD671;stroke:#1A1A1A;stroke-width:1.2862;stroke-miterlimit:10;}
	.st18{fill:#E25959;stroke:#640917;stroke-width:1.2862;stroke-linecap:round;stroke-miterlimit:10;}
	.st19{fill:#B1C9C7;stroke:#000000;stroke-width:1.2862;stroke-miterlimit:10;}
	.st20{fill:#FCD3B6;stroke:#000000;stroke-width:1.2862;stroke-linecap:round;stroke-miterlimit:10;}
	.st21{fill:#EDB19B;stroke:#000000;stroke-width:1.2862;stroke-linecap:round;stroke-miterlimit:10;}
	.st22{fill:#FCD3B6;stroke:#640917;stroke-width:1.2862;stroke-linecap:round;stroke-miterlimit:10;}
	.st23{fill:#EDB19B;stroke:#640917;stroke-width:1.2862;stroke-linecap:round;stroke-miterlimit:10;}
	.st24{fill:#CDE0DF;stroke:#000000;stroke-width:1.2862;stroke-miterlimit:10;}
	.st25{fill:#FFFFFF;stroke:#000000;stroke-width:1.2862;stroke-linecap:round;stroke-miterlimit:10;}
	.st26{fill:#2E49CE;stroke:#000000;stroke-width:1.2862;stroke-miterlimit:10;}
	.st27{fill:#FFD671;stroke:#000000;stroke-width:1.2862;stroke-miterlimit:10;}
	.st28{fill:#FCD3B6;stroke:#66321E;stroke-width:5.7001;stroke-linecap:round;stroke-miterlimit:10;}
	.st29{fill:none;stroke:#808080;stroke-width:2.5435;stroke-miterlimit:10;}
	.st30{fill:#808080;stroke:#4D4D4D;stroke-width:0.9446;stroke-miterlimit:10;}
	.st31{opacity:0.41;}
	.st32{fill:#FEEDCC;}
	.st33{fill:#FFBE2E;}
	.st34{fill:#ECF1F7;}
	.st35{fill:#243762;}
	.st36{fill:#FFFFFF;}
	.st37{fill:#FFBE2E;stroke:#000000;stroke-width:1.8684;stroke-miterlimit:10;}
	.st38{opacity:0.26;}
	.st39{fill:#F7A9B4;}
	.st40{opacity:0.25;fill:#FFFFFF;}
	.st41{fill:#5908C1;}
	.st42{clip-path:url(#SVGID_4_);fill:#FFBE2E;}
	.st43{opacity:0.3;}
	.st44{fill:#371A45;}
	.st45{opacity:0.25;}
	.st46{opacity:0.35;}
	.st47{fill:#00AAFF;}
	.st48{opacity:0.6;}
	.st49{fill:#EC1C24;}
	.st50{fill:#D25658;}
	.st51{fill:#6BD6F0;}
	.st52{opacity:0.2;}
	.st53{opacity:0.7;}
	.st54{fill:#22A7F0;}
	.st55{fill:#0858B7;stroke:#000000;stroke-width:9.9513;stroke-miterlimit:10;}
	.st56{fill:#FFFFFF;stroke:#000000;stroke-width:4.6506;stroke-miterlimit:10;}
	.st57{fill:#FFFFFF;stroke:#000000;stroke-width:10.213;stroke-miterlimit:10;}
	.st58{fill:#C1272D;stroke:#000000;stroke-width:5.1065;stroke-miterlimit:10;}
	.st59{fill:#390075;}
	.st60{fill:#DBE3EE;}
	.st61{fill:#33AEF1;}
	.st62{filter:url(#Adobe_OpacityMaskFilter);}
	.st63{filter:url(#Adobe_OpacityMaskFilter_1_);}
	.st64{mask:url(#SVGID_7_);fill:url(#SVGID_8_);}
	.st65{opacity:0.3;fill:url(#SVGID_9_);}
	.st66{filter:url(#Adobe_OpacityMaskFilter_2_);}
	.st67{filter:url(#Adobe_OpacityMaskFilter_3_);}
	.st68{mask:url(#SVGID_10_);fill:url(#SVGID_11_);}
	.st69{opacity:0.3;fill:url(#SVGID_12_);}
	.st70{filter:url(#Adobe_OpacityMaskFilter_4_);}
	.st71{filter:url(#Adobe_OpacityMaskFilter_5_);}
	.st72{mask:url(#SVGID_13_);fill:url(#SVGID_14_);}
	.st73{opacity:0.3;fill:url(#SVGID_15_);}
	.st74{clip-path:url(#SVGID_17_);fill:#F47C00;}
	.st75{clip-path:url(#SVGID_17_);fill:#F47D01;}
	.st76{clip-path:url(#SVGID_17_);fill:#F47E01;}
	.st77{clip-path:url(#SVGID_17_);fill:#F47F02;}
	.st78{clip-path:url(#SVGID_17_);fill:#F58002;}
	.st79{clip-path:url(#SVGID_17_);fill:#F58103;}
	.st80{clip-path:url(#SVGID_17_);fill:#F58203;}
	.st81{clip-path:url(#SVGID_17_);fill:#F58304;}
	.st82{clip-path:url(#SVGID_17_);fill:#F58404;}
	.st83{clip-path:url(#SVGID_17_);fill:#F58505;}
	.st84{clip-path:url(#SVGID_17_);fill:#F58605;}
	.st85{clip-path:url(#SVGID_17_);fill:#F68706;}
	.st86{clip-path:url(#SVGID_17_);fill:#F68806;}
	.st87{clip-path:url(#SVGID_17_);fill:#F68907;}
	.st88{clip-path:url(#SVGID_17_);fill:#F68A07;}
	.st89{clip-path:url(#SVGID_17_);fill:#F68B08;}
	.st90{clip-path:url(#SVGID_17_);fill:#F68C09;}
	.st91{clip-path:url(#SVGID_17_);fill:#F68D09;}
	.st92{clip-path:url(#SVGID_17_);fill:#F78E0A;}
	.st93{clip-path:url(#SVGID_17_);fill:#F78F0A;}
	.st94{clip-path:url(#SVGID_17_);fill:#F7900B;}
	.st95{clip-path:url(#SVGID_17_);fill:#F7910B;}
	.st96{clip-path:url(#SVGID_17_);fill:#F7920C;}
	.st97{clip-path:url(#SVGID_17_);fill:#F7930C;}
	.st98{clip-path:url(#SVGID_17_);fill:#F7940D;}
	.st99{clip-path:url(#SVGID_17_);fill:#F8950D;}
	.st100{clip-path:url(#SVGID_17_);fill:#F8960E;}
	.st101{clip-path:url(#SVGID_17_);fill:#F8970E;}
	.st102{clip-path:url(#SVGID_17_);fill:#F8980F;}
	.st103{clip-path:url(#SVGID_17_);fill:#F8990F;}
	.st104{clip-path:url(#SVGID_17_);fill:#F89A10;}
	.st105{clip-path:url(#SVGID_17_);fill:#F89B11;}
	.st106{clip-path:url(#SVGID_17_);fill:#F99C11;}
	.st107{clip-path:url(#SVGID_17_);fill:#F99D12;}
	.st108{clip-path:url(#SVGID_17_);fill:#F99E12;}
	.st109{clip-path:url(#SVGID_17_);fill:#F99F13;}
	.st110{clip-path:url(#SVGID_17_);fill:#F9A013;}
	.st111{clip-path:url(#SVGID_17_);fill:#F9A114;}
	.st112{clip-path:url(#SVGID_17_);fill:#F9A214;}
	.st113{clip-path:url(#SVGID_17_);fill:#FAA415;}
	.st114{clip-path:url(#SVGID_17_);fill:#FAA515;}
	.st115{clip-path:url(#SVGID_17_);fill:#FAA616;}
	.st116{clip-path:url(#SVGID_17_);fill:#FAA716;}
	.st117{clip-path:url(#SVGID_17_);fill:#FAA817;}
	.st118{clip-path:url(#SVGID_17_);fill:#FAA917;}
	.st119{clip-path:url(#SVGID_17_);fill:#FAAA18;}
	.st120{clip-path:url(#SVGID_17_);fill:#FBAB18;}
	.st121{clip-path:url(#SVGID_17_);fill:#FBAC19;}
	.st122{clip-path:url(#SVGID_17_);fill:#FBAD1A;}
	.st123{clip-path:url(#SVGID_17_);fill:#FBAE1A;}
	.st124{clip-path:url(#SVGID_17_);fill:#FBAF1B;}
	.st125{clip-path:url(#SVGID_17_);fill:#FBB01B;}
	.st126{clip-path:url(#SVGID_17_);fill:#FBB11C;}
	.st127{clip-path:url(#SVGID_17_);fill:#FCB21C;}
	.st128{clip-path:url(#SVGID_17_);fill:#FCB31D;}
	.st129{clip-path:url(#SVGID_17_);fill:#FCB41D;}
	.st130{clip-path:url(#SVGID_17_);fill:#FCB51E;}
	.st131{clip-path:url(#SVGID_17_);fill:#FCB61E;}
	.st132{clip-path:url(#SVGID_17_);fill:#FCB71F;}
	.st133{clip-path:url(#SVGID_17_);fill:#FCB81F;}
	.st134{clip-path:url(#SVGID_17_);fill:#FDB920;}
	.st135{clip-path:url(#SVGID_17_);fill:#FDBA20;}
	.st136{clip-path:url(#SVGID_17_);fill:#FDBB21;}
	.st137{clip-path:url(#SVGID_17_);fill:#FDBC22;}
	.st138{clip-path:url(#SVGID_17_);fill:#FDBD22;}
	.st139{clip-path:url(#SVGID_17_);fill:#FDBE23;}
	.st140{clip-path:url(#SVGID_17_);fill:#FDBF23;}
	.st141{clip-path:url(#SVGID_17_);fill:#FEC024;}
	.st142{clip-path:url(#SVGID_17_);fill:#FEC124;}
	.st143{clip-path:url(#SVGID_17_);fill:#FEC225;}
	.st144{clip-path:url(#SVGID_17_);fill:#FEC325;}
	.st145{clip-path:url(#SVGID_17_);fill:#FEC426;}
	.st146{clip-path:url(#SVGID_17_);fill:#FEC526;}
	.st147{clip-path:url(#SVGID_17_);fill:#FEC627;}
	.st148{clip-path:url(#SVGID_17_);fill:#FFC727;}
	.st149{clip-path:url(#SVGID_17_);fill:#FFC828;}
	.st150{clip-path:url(#SVGID_17_);fill:#FFC928;}
	.st151{clip-path:url(#SVGID_17_);fill:#FFCA29;}
	.st152{opacity:0.55;}
	.st153{fill:#D36C0F;}
	.st154{fill:#FFCA29;}
	.st155{fill:#1EBC61;}
	.st156{fill:#282E6B;}
	.st157{fill:#9EEF79;}
	.st158{fill:#418BF9;}
	.st159{fill:#01D3EC;}
	.st160{opacity:0.5;}
	.st161{fill:#F9C710;}
	.st162{fill:#F89F1D;}
	.st163{fill:#E84C3D;}
	.st164{fill:#00ADEF;}
	.st165{fill:#FACA44;}
	.st166{fill:#ECF0F1;}
	.st167{fill:#FFF8D1;}
	.st168{fill:#272525;}
	.st169{fill:#6401E3;}
	.st170{fill:#FDBC07;}
	.st171{fill:#989898;}
	.st172{fill:#D5DAEE;}
	.st173{fill:#FDDA9A;}
	.st174{fill:#150035;}
	.st175{fill:#FDBC2E;stroke:#000000;stroke-width:1.3688;stroke-miterlimit:10;}
	.st176{fill:#FDBC2E;}
	.st177{fill:#FDBC2E;stroke:#000000;stroke-width:0.5979;stroke-miterlimit:10;}
	.st178{stroke:#000000;stroke-width:0.483;stroke-miterlimit:10;}
	.st179{fill:none;stroke:#000000;stroke-width:9.9055;stroke-miterlimit:10;}
	.st180{fill:none;stroke:#000000;stroke-width:5.3043;stroke-miterlimit:10;}
	.st181{fill:#00CC7E;stroke:#000000;stroke-width:3.5362;stroke-miterlimit:10;}
	.st182{fill:#16110D;}
	.st183{fill:#FFBE05;}
	.st184{fill:#FFEDC9;}
	.st185{fill:#FFBD16;}
	.st186{fill:#FFECC9;}
	.st187{fill:#15100C;}
	.st188{fill:#FDEBC9;}
	.st189{fill:#FCEAC9;}
	.st190{fill:#140F0C;}
	.st191{fill:#FFBE05;stroke:#000000;stroke-width:3;stroke-miterlimit:10;}
	.st192{fill:#707384;}
	.st193{fill:none;stroke:#000000;stroke-width:14.5116;stroke-miterlimit:10;}
	.st194{fill-rule:evenodd;clip-rule:evenodd;}
</style>
<g id="XMLID_1_">
	<path id="XMLID_49_" class="st168" d="M164.58,30.23c-0.13-0.3-0.31-0.58-0.54-0.82l-0.18-0.19c-1.16-1.24-2.9-1.76-4.54-1.34
		c-1.67,0.42-2.98,1.73-3.42,3.41c-0.38,1.46-1.17,2.79-2.27,3.82c-2.18,2.04-5.3,2.69-8.12,1.71c-3.05-1.06-5.12-3.82-5.68-7.55
		c-0.03-0.19-0.02-0.41,0.02-0.59c0.89-4,3.38-6.67,6.84-7.3c1.71-0.32,3.1-1.53,3.64-3.16c0.53-1.6,0.14-3.36-1.01-4.59
		l-11.38-12.2c-0.64-0.68-1.46-1.15-2.36-1.36C135.34,0.02,135.1,0,134.85,0c-1.13,0.03-2.22,0.45-3.05,1.21l-10.84,9.88
		c-0.62-1.47-1.5-2.81-2.6-3.99c-5.07-5.44-13.71-5.84-19.35-0.83c-5.46,5.22-5.75,13.69-0.66,19.28c1.09,1.2,2.36,2.18,3.77,2.92
		l-10.7,9.99c-0.26,0.24-0.43,0.48-0.53,0.62c-0.54,0.71-0.86,1.51-0.95,2.35c-0.02,0.24-0.02,0.48,0.02,0.72
		c0.14,0.93,0.55,1.78,1.17,2.46l11.23,12.32c1.14,1.25,2.86,1.79,4.5,1.39c1.67-0.41,2.99-1.7,3.44-3.38
		c0.91-3.39,3.77-5.67,7.82-6.23c0.19-0.03,0.41-0.02,0.59,0.02c3.69,0.86,6.27,3.15,7.08,6.28c0.75,2.9-0.15,5.94-2.36,7.96
		c-1.12,1.02-2.5,1.7-3.98,1.96c-1.71,0.3-3.13,1.5-3.69,3.13c-0.55,1.6-0.18,3.38,0.97,4.64l0.17,0.18
		c0.22,0.25,0.49,0.45,0.78,0.61L128.42,85c0.74,0.8,1.76,1.32,2.86,1.45c0.12,0.02,0.24,0.02,0.35,0.02c0.14,0,0.27-0.01,0.4-0.03
		c0.51-0.07,1.01-0.24,1.52-0.51c0.23-0.12,0.59-0.33,0.96-0.66l11.75-10.71c0.15-0.13,0.28-0.28,0.39-0.44
		c0.86-1.18,1.12-2.72,0.7-4.12c-0.41-1.38-1.42-2.47-2.77-2.97c-1.18-0.45-2.21-1.15-3.06-2.08c-1.49-1.63-2.22-3.74-2.07-5.94
		c0.15-2.2,1.17-4.2,2.88-5.62c0.07-0.06,0.14-0.13,0.21-0.2c1.55-1.58,3.64-2.38,5.83-2.41c2.21,0.03,4.25,0.93,5.76,2.55
		c0.86,0.93,1.48,2.01,1.83,3.22c0.4,1.38,1.4,2.47,2.74,3c1.36,0.53,2.92,0.39,4.16-0.37c0.17-0.1,0.32-0.22,0.46-0.35l11.63-10.85
		c0.67-0.63,1.15-1.44,1.36-2.34c0.06-0.25,0.09-0.52,0.08-0.78c-0.04-1.12-0.48-2.18-1.21-2.97L164.58,30.23z M160.9,53.18
		c-0.62-1.39-1.46-2.67-2.52-3.8c-2.59-2.78-6.12-4.34-9.92-4.39c-3.78-0.03-7.28,1.39-9.94,4.05c-2.87,2.44-4.58,5.84-4.84,9.58
		c-0.26,3.79,1.01,7.43,3.57,10.24c1.03,1.13,2.25,2.09,3.59,2.82l-9.15,8.34l-9.24-9.9c1.8-0.61,3.46-1.58,4.87-2.87
		c3.8-3.46,5.36-8.71,4.07-13.7c-1.35-5.2-5.61-9.11-11.38-10.46c-0.86-0.21-1.79-0.25-2.69-0.13c-5.67,0.79-10.03,3.96-12,8.62
		l-8.96-9.83L107,31.84c0.45-0.41,0.81-0.91,1.07-1.49c0.64-1.15,0.78-2.51,0.36-3.78c-0.44-1.33-1.44-2.37-2.72-2.85
		c-1.19-0.45-2.22-1.15-3.07-2.08c-2.95-3.24-2.78-8.16,0.31-11.11c3.22-2.87,8.24-2.63,11.18,0.52c0.86,0.92,1.48,2.01,1.82,3.22
		c0.39,1.34,1.34,2.41,2.63,2.95c1.23,0.52,2.59,0.5,3.79-0.05c0.59-0.21,1.11-0.53,1.55-0.93l10.76-9.8l9.07,9.72
		c-4.81,1.59-8.32,5.68-9.56,11.27c-0.19,0.87-0.22,1.79-0.1,2.69c0.88,5.86,4.43,10.41,9.51,12.18c4.86,1.7,10.22,0.57,13.98-2.94
		c1.4-1.3,2.5-2.88,3.25-4.62l9.12,10.01L160.9,53.18z"/>
	<path id="XMLID_43_" class="st168" d="M18.63,158.69c0.02,2.57,2.12,4.65,4.68,4.65c0.01,0,0.02,0,0.03,0l53.91-0.32
		c0.14,0,0.28-0.03,0.42-0.05c0.56,0.24,1.19,0.37,1.84,0.37l16.73-0.1c0.19,0,0.38-0.02,0.58-0.06c1.42-0.29,2.64-1.26,3.27-2.57
		c0.63-1.31,0.6-2.81-0.06-4.1c-0.85-1.66-1.84-5.06,1.03-9.28c0.11-0.16,0.25-0.31,0.41-0.41c1.86-1.29,3.78-1.95,5.7-1.95
		c4.39,0,7.99,3.58,8.01,7.97c0.01,1.27-0.27,2.48-0.84,3.6c-0.64,1.29-0.65,2.77-0.01,4.07c0.64,1.31,1.88,2.27,3.31,2.55
		c0.19,0.04,0.37,0.06,0.58,0.05l15.88-0.1c1.26,0,2.43-0.5,3.31-1.39c0.88-0.89,1.36-2.07,1.35-3.32l-0.1-16.6
		c-0.02-2.6-2.07-4.64-4.68-4.64c-0.91,0-1.8,0.26-2.58,0.76c-1.27,0.82-2.75,1.25-4.31,1.26c-2.98,0-5.69-1.64-7.09-4.27
		c-1.51-2.85-1.16-6.27,0.96-9.39c0.11-0.16,0.25-0.3,0.41-0.41c1.87-1.3,3.8-1.96,5.72-1.96c1.51,0,2.98,0.42,4.25,1.23
		c1.82,1.15,4.36,0.87,5.86-0.63c0.87-0.87,1.34-2.04,1.33-3.28l-0.1-16.67c-0.02-2.56-2.12-4.65-4.71-4.65l-14.26,0.09
		c0.5-1.46,0.75-2.98,0.74-4.55c-0.05-7.57-6.24-13.73-13.81-13.73c-3.05,0-6.13,1.01-8.92,2.92c0.43-0.58,0.83-1.19,1.17-1.84
		c2.47-4.77,1.94-10.51-1.43-15.36c-0.5-0.73-1.16-1.39-1.91-1.9c-4.25-2.9-9.25-3.65-13.55-2.12L81.68,48.3
		c-0.02-2.57-2.12-4.66-4.71-4.66l-14.3,0.09c1.58-4.41,0.8-9.29-2.24-13.64c-0.5-0.72-1.15-1.36-1.9-1.88
		c-2.78-1.89-5.85-2.88-8.87-2.88c-0.01,0-0.01,0-0.02,0c-3.71,0-7.18,1.44-9.8,4.07c-2.61,2.63-4.04,6.11-4.02,9.82
		c0.01,1.59,0.3,3.17,0.84,4.66l-14.31,0.09c-1.25,0.01-2.42,0.5-3.3,1.39c-0.88,0.89-1.36,2.07-1.35,3.32l0.1,16.73
		c0,0.19,0.02,0.39,0.06,0.57c0.45,2.16,2.37,3.73,4.56,3.73c0.73,0,1.44-0.17,2.11-0.51c2.83-1.44,6.18-1.08,9.29,1.03
		c0.16,0.11,0.31,0.25,0.41,0.41c2.15,3.11,2.54,6.53,1.05,9.39c-1.38,2.65-4.09,4.31-7.13,4.33c-1.24,0-2.44-0.28-3.57-0.85
		c-0.64-0.32-1.33-0.48-2.03-0.48c-2.22,0-4.14,1.6-4.57,3.79c-0.04,0.19-0.05,0.38-0.05,0.58l0.09,15.89c0,0.45,0.11,0.85,0.3,1.23
		c0,0.07-0.02,0.14-0.02,0.21l0.08,13.66c-4.41-1.58-9.29-0.8-13.64,2.24c-0.73,0.5-1.38,1.17-1.88,1.9
		c-3.32,4.9-3.79,10.65-1.26,15.39c2.43,4.54,7.14,7.34,12.27,7.32c1.59-0.01,3.17-0.3,4.66-0.85L18.63,158.69z M99.09,102.82
		c0.84-1.39,0.91-3.09,0.17-4.53c-0.85-1.66-1.84-5.06,1.03-9.28c0.11-0.16,0.26-0.31,0.41-0.42c1.86-1.29,3.78-1.94,5.7-1.94
		c4.39,0,7.99,3.58,8.02,7.97c0.01,1.27-0.28,2.48-0.84,3.61c-0.72,1.43-0.64,3.1,0.21,4.48c0.86,1.4,2.36,2.24,4.03,2.24
		l14.83-0.09l0.08,13.62c-4.55-2.04-10.06-1.4-14.66,1.79c-0.74,0.51-1.39,1.17-1.9,1.92c-3.32,4.88-3.8,10.63-1.29,15.36
		c2.4,4.53,7.08,7.35,12.29,7.35c1.98-0.01,3.92-0.45,5.7-1.27l0.08,13.61l-12.72,0.08c0.49-1.44,0.74-2.97,0.73-4.5
		c-0.04-7.57-6.24-13.73-13.81-13.73c-3.08,0-6.19,1.03-9,2.98c-0.73,0.51-1.39,1.17-1.89,1.91c-2.94,4.32-3.69,9.15-2.14,13.51
		l-13.54,0.08l-0.09-14.89c-0.01-2.57-2.11-4.67-4.67-4.67c-0.74,0-1.48,0.18-2.14,0.53c-1.14,0.6-2.38,0.91-3.72,0.92
		c-2.97,0-5.69-1.63-7.09-4.27c-1.51-2.84-1.16-6.27,0.95-9.38c0.11-0.16,0.25-0.31,0.4-0.41c3.12-2.18,6.53-2.55,9.35-1.12
		c1.76,0.91,4.02,0.54,5.43-0.87c0.88-0.89,1.37-2.07,1.36-3.33l-0.09-14.89l14.84-0.09C96.75,105.06,98.24,104.22,99.09,102.82z
		 M93.38,99.29l-11.4,0.07l-0.07-10.71c1.44,0.5,2.95,0.74,4.55,0.74c3.28-0.02,6.36-1.2,8.78-3.23
		C92.52,90.39,91.86,95.06,93.38,99.29z M28.25,90.15c5.14-0.03,9.81-2.89,12.18-7.46c2.47-4.76,1.94-10.5-1.43-15.36
		c-0.51-0.73-1.17-1.38-1.91-1.89c-4.26-2.9-9.22-3.65-13.5-2.14l-0.08-13.55l14.89-0.09c1.66-0.01,3.15-0.87,4.01-2.3
		c0.83-1.39,0.88-3.08,0.13-4.51c-0.6-1.14-0.92-2.38-0.92-3.67c-0.01-2.15,0.82-4.18,2.33-5.7c1.52-1.52,3.54-2.36,5.69-2.36
		c0,0,0.01,0,0.01,0c1.89,0,3.78,0.63,5.61,1.87c0.16,0.11,0.31,0.25,0.41,0.4c2.16,3.09,2.57,6.5,1.11,9.36
		c-0.74,1.45-0.67,3.15,0.19,4.54c0.86,1.4,2.35,2.24,4.02,2.24l14.89-0.09l0.09,14.84c0.01,2.57,2.11,4.66,4.67,4.66
		c0.72,0,1.44-0.17,2.11-0.51c2.8-1.44,6.18-1.08,9.28,1.03c0.16,0.11,0.3,0.25,0.41,0.41c2.15,3.1,2.54,6.52,1.05,9.39
		c-1.38,2.65-4.09,4.31-7.12,4.33c-1.25,0-2.45-0.28-3.54-0.83c-1.73-0.89-3.98-0.51-5.37,0.89c-0.89,0.9-1.38,2.08-1.37,3.34
		l0.08,13.53c-0.29,0.25-0.55,0.53-0.78,0.85v0h0l0,0c-0.11,0.15-0.2,0.31-0.29,0.46l-14.24,0.09c-0.66,0-1.23-0.33-1.53-0.88
		c-0.32-0.58-0.29-1.29,0.07-1.86c2.49-3.94,2.19-8.87-0.82-13.2c-0.3-0.43-0.69-0.81-1.14-1.12c-2.34-1.59-4.79-2.39-7.28-2.39
		c-2.93,0-5.68,1.14-7.74,3.22c-2.06,2.07-3.19,4.83-3.17,7.76c0.02,2.07,0.61,4.08,1.72,5.8c0.37,0.58,0.4,1.3,0.08,1.88
		c-0.31,0.56-0.89,0.91-1.53,0.92l-15.71,0.09l-0.07-12.72C25.17,89.91,26.67,90.15,28.25,90.15z M13.85,139.43
		c-2.97-0.04-5.72-1.61-7.13-4.25c-1.52-2.85-1.17-6.27,0.95-9.41c0.1-0.15,0.24-0.29,0.39-0.4c3.09-2.16,6.5-2.57,9.36-1.11
		c1.46,0.74,3.16,0.67,4.55-0.19c1.4-0.87,2.23-2.37,2.22-4.02l-0.07-12.13l15.45-0.09c2.75-0.02,5.28-1.53,6.59-3.95
		c1.32-2.44,1.21-5.42-0.3-7.78c-0.52-0.81-0.79-1.75-0.8-2.71c-0.01-1.37,0.52-2.66,1.49-3.64c1.84-1.86,4.76-2,7.44-0.25
		c0.95,1.44,2.12,4.04,0.52,6.57c-1.49,2.35-1.58,5.33-0.25,7.75c1.32,2.39,3.85,3.88,6.63,3.88l13.59-0.08l0.06,10.76
		c-4.38-1.54-9.39-0.74-13.64,2.24c-0.72,0.5-1.37,1.15-1.87,1.9c-3.31,4.89-3.79,10.63-1.28,15.36c2.41,4.53,7.08,7.35,12.29,7.35
		c1.59-0.01,3.17-0.3,4.66-0.84l0.07,12.43c-0.11,0.14-0.23,0.27-0.32,0.42l-50.04,0.3l-0.09-14.89c-0.01-1.66-0.87-3.16-2.29-4.01
		c-1.4-0.83-3.08-0.88-4.51-0.13C16.38,139.11,15.14,139.42,13.85,139.43z"/>
</g>
</svg>
