<?xml version="1.0" encoding="utf-8"?>
<!-- Generator: Adobe Illustrator 23.0.4, SVG Export Plug-In . SVG Version: 6.00 Build 0)  -->
<svg version="1.1" id="Layer_1" xmlns="http://www.w3.org/2000/svg" xmlns:xlink="http://www.w3.org/1999/xlink" x="0px" y="0px"
	 viewBox="0 0 146.57 220" style="enable-background:new 0 0 146.57 220;" xml:space="preserve">
<style type="text/css">
	.st0{fill:#F7F0ED;}
	.st1{fill:#FFBE05;stroke:#000000;stroke-width:1.2862;stroke-linecap:round;stroke-linejoin:round;stroke-miterlimit:10;}
	.st2{fill:#FFFFFF;stroke:#1A1A1A;stroke-width:1.2862;stroke-linecap:round;stroke-linejoin:round;stroke-miterlimit:10;}
	.st3{fill:#F7F0ED;stroke:#1A1A1A;stroke-width:1.2862;stroke-linecap:round;stroke-linejoin:round;stroke-miterlimit:10;}
	.st4{fill:#F7F0ED;stroke:#000000;stroke-width:1.2862;stroke-linecap:round;stroke-linejoin:round;stroke-miterlimit:10;}
	.st5{fill:#1A1A1A;stroke:#1A1A1A;stroke-width:1.2862;stroke-linecap:round;stroke-linejoin:round;stroke-miterlimit:10;}
	.st6{fill:#808080;}
	.st7{fill:none;stroke:#F7F0ED;stroke-width:1.8461;stroke-linecap:round;stroke-miterlimit:10;}
	.st8{opacity:0.1;fill:#640917;}
	.st9{opacity:0.27;fill:none;stroke:#640917;stroke-width:1.8461;stroke-linecap:round;stroke-miterlimit:10;}
	.st10{fill:none;stroke:#000000;stroke-width:1.8461;stroke-linecap:round;stroke-miterlimit:10;}
	.st11{opacity:0.1;fill:none;stroke:#640917;stroke-width:1.8461;stroke-linecap:round;stroke-miterlimit:10;}
	.st12{fill:none;stroke:#FFFFFF;stroke-width:1.8461;stroke-linecap:round;stroke-miterlimit:10;}
	.st13{fill:#F7F0ED;stroke:#640917;stroke-width:1.2862;stroke-linecap:round;stroke-linejoin:round;stroke-miterlimit:10;}
	.st14{fill:none;stroke:#1A1A1A;stroke-width:1.8461;stroke-linecap:round;stroke-miterlimit:10;}
	.st15{opacity:0.27;fill:none;stroke:#000000;stroke-width:1.8461;stroke-linecap:round;stroke-miterlimit:10;}
	.st16{opacity:0.1;fill:none;stroke:#000000;stroke-width:1.2862;stroke-linecap:round;stroke-miterlimit:10;}
	.st17{fill:#FFD671;stroke:#1A1A1A;stroke-width:1.2862;stroke-miterlimit:10;}
	.st18{fill:#E25959;stroke:#640917;stroke-width:1.2862;stroke-linecap:round;stroke-miterlimit:10;}
	.st19{fill:#B1C9C7;stroke:#000000;stroke-width:1.2862;stroke-miterlimit:10;}
	.st20{fill:#FCD3B6;stroke:#000000;stroke-width:1.2862;stroke-linecap:round;stroke-miterlimit:10;}
	.st21{fill:#EDB19B;stroke:#000000;stroke-width:1.2862;stroke-linecap:round;stroke-miterlimit:10;}
	.st22{fill:#FCD3B6;stroke:#640917;stroke-width:1.2862;stroke-linecap:round;stroke-miterlimit:10;}
	.st23{fill:#EDB19B;stroke:#640917;stroke-width:1.2862;stroke-linecap:round;stroke-miterlimit:10;}
	.st24{fill:#CDE0DF;stroke:#000000;stroke-width:1.2862;stroke-miterlimit:10;}
	.st25{fill:#FFFFFF;stroke:#000000;stroke-width:1.2862;stroke-linecap:round;stroke-miterlimit:10;}
	.st26{fill:#2E49CE;stroke:#000000;stroke-width:1.2862;stroke-miterlimit:10;}
	.st27{fill:#FFD671;stroke:#000000;stroke-width:1.2862;stroke-miterlimit:10;}
	.st28{fill:#FCD3B6;stroke:#66321E;stroke-width:5.7001;stroke-linecap:round;stroke-miterlimit:10;}
	.st29{fill:none;stroke:#808080;stroke-width:2.5435;stroke-miterlimit:10;}
	.st30{fill:#808080;stroke:#4D4D4D;stroke-width:0.9446;stroke-miterlimit:10;}
	.st31{opacity:0.41;}
	.st32{fill:#FEEDCC;}
	.st33{fill:#FFBE2E;}
	.st34{fill:#ECF1F7;}
	.st35{fill:#243762;}
	.st36{fill:#FFFFFF;}
	.st37{fill:#FFBE2E;stroke:#000000;stroke-width:1.8684;stroke-miterlimit:10;}
	.st38{opacity:0.26;}
	.st39{fill:#F7A9B4;}
	.st40{opacity:0.25;fill:#FFFFFF;}
	.st41{fill:#5908C1;}
	.st42{clip-path:url(#SVGID_4_);fill:#FFBE2E;}
	.st43{opacity:0.3;}
	.st44{fill:#371A45;}
	.st45{opacity:0.25;}
	.st46{opacity:0.35;}
	.st47{fill:#00AAFF;}
	.st48{opacity:0.6;}
	.st49{fill:#EC1C24;}
	.st50{fill:#D25658;}
	.st51{fill:#6BD6F0;}
	.st52{opacity:0.2;}
	.st53{opacity:0.7;}
	.st54{fill:#22A7F0;}
	.st55{fill:#0858B7;stroke:#000000;stroke-width:9.9513;stroke-miterlimit:10;}
	.st56{fill:#FFFFFF;stroke:#000000;stroke-width:4.6506;stroke-miterlimit:10;}
	.st57{fill:#FFFFFF;stroke:#000000;stroke-width:10.213;stroke-miterlimit:10;}
	.st58{fill:#C1272D;stroke:#000000;stroke-width:5.1065;stroke-miterlimit:10;}
	.st59{fill:#390075;}
	.st60{fill:#DBE3EE;}
	.st61{fill:#33AEF1;}
	.st62{filter:url(#Adobe_OpacityMaskFilter);}
	.st63{filter:url(#Adobe_OpacityMaskFilter_1_);}
	.st64{mask:url(#SVGID_7_);fill:url(#SVGID_8_);}
	.st65{opacity:0.3;fill:url(#SVGID_9_);}
	.st66{filter:url(#Adobe_OpacityMaskFilter_2_);}
	.st67{filter:url(#Adobe_OpacityMaskFilter_3_);}
	.st68{mask:url(#SVGID_10_);fill:url(#SVGID_11_);}
	.st69{opacity:0.3;fill:url(#SVGID_12_);}
	.st70{filter:url(#Adobe_OpacityMaskFilter_4_);}
	.st71{filter:url(#Adobe_OpacityMaskFilter_5_);}
	.st72{mask:url(#SVGID_13_);fill:url(#SVGID_14_);}
	.st73{opacity:0.3;fill:url(#SVGID_15_);}
	.st74{clip-path:url(#SVGID_17_);fill:#F47C00;}
	.st75{clip-path:url(#SVGID_17_);fill:#F47D01;}
	.st76{clip-path:url(#SVGID_17_);fill:#F47E01;}
	.st77{clip-path:url(#SVGID_17_);fill:#F47F02;}
	.st78{clip-path:url(#SVGID_17_);fill:#F58002;}
	.st79{clip-path:url(#SVGID_17_);fill:#F58103;}
	.st80{clip-path:url(#SVGID_17_);fill:#F58203;}
	.st81{clip-path:url(#SVGID_17_);fill:#F58304;}
	.st82{clip-path:url(#SVGID_17_);fill:#F58404;}
	.st83{clip-path:url(#SVGID_17_);fill:#F58505;}
	.st84{clip-path:url(#SVGID_17_);fill:#F58605;}
	.st85{clip-path:url(#SVGID_17_);fill:#F68706;}
	.st86{clip-path:url(#SVGID_17_);fill:#F68806;}
	.st87{clip-path:url(#SVGID_17_);fill:#F68907;}
	.st88{clip-path:url(#SVGID_17_);fill:#F68A07;}
	.st89{clip-path:url(#SVGID_17_);fill:#F68B08;}
	.st90{clip-path:url(#SVGID_17_);fill:#F68C09;}
	.st91{clip-path:url(#SVGID_17_);fill:#F68D09;}
	.st92{clip-path:url(#SVGID_17_);fill:#F78E0A;}
	.st93{clip-path:url(#SVGID_17_);fill:#F78F0A;}
	.st94{clip-path:url(#SVGID_17_);fill:#F7900B;}
	.st95{clip-path:url(#SVGID_17_);fill:#F7910B;}
	.st96{clip-path:url(#SVGID_17_);fill:#F7920C;}
	.st97{clip-path:url(#SVGID_17_);fill:#F7930C;}
	.st98{clip-path:url(#SVGID_17_);fill:#F7940D;}
	.st99{clip-path:url(#SVGID_17_);fill:#F8950D;}
	.st100{clip-path:url(#SVGID_17_);fill:#F8960E;}
	.st101{clip-path:url(#SVGID_17_);fill:#F8970E;}
	.st102{clip-path:url(#SVGID_17_);fill:#F8980F;}
	.st103{clip-path:url(#SVGID_17_);fill:#F8990F;}
	.st104{clip-path:url(#SVGID_17_);fill:#F89A10;}
	.st105{clip-path:url(#SVGID_17_);fill:#F89B11;}
	.st106{clip-path:url(#SVGID_17_);fill:#F99C11;}
	.st107{clip-path:url(#SVGID_17_);fill:#F99D12;}
	.st108{clip-path:url(#SVGID_17_);fill:#F99E12;}
	.st109{clip-path:url(#SVGID_17_);fill:#F99F13;}
	.st110{clip-path:url(#SVGID_17_);fill:#F9A013;}
	.st111{clip-path:url(#SVGID_17_);fill:#F9A114;}
	.st112{clip-path:url(#SVGID_17_);fill:#F9A214;}
	.st113{clip-path:url(#SVGID_17_);fill:#FAA415;}
	.st114{clip-path:url(#SVGID_17_);fill:#FAA515;}
	.st115{clip-path:url(#SVGID_17_);fill:#FAA616;}
	.st116{clip-path:url(#SVGID_17_);fill:#FAA716;}
	.st117{clip-path:url(#SVGID_17_);fill:#FAA817;}
	.st118{clip-path:url(#SVGID_17_);fill:#FAA917;}
	.st119{clip-path:url(#SVGID_17_);fill:#FAAA18;}
	.st120{clip-path:url(#SVGID_17_);fill:#FBAB18;}
	.st121{clip-path:url(#SVGID_17_);fill:#FBAC19;}
	.st122{clip-path:url(#SVGID_17_);fill:#FBAD1A;}
	.st123{clip-path:url(#SVGID_17_);fill:#FBAE1A;}
	.st124{clip-path:url(#SVGID_17_);fill:#FBAF1B;}
	.st125{clip-path:url(#SVGID_17_);fill:#FBB01B;}
	.st126{clip-path:url(#SVGID_17_);fill:#FBB11C;}
	.st127{clip-path:url(#SVGID_17_);fill:#FCB21C;}
	.st128{clip-path:url(#SVGID_17_);fill:#FCB31D;}
	.st129{clip-path:url(#SVGID_17_);fill:#FCB41D;}
	.st130{clip-path:url(#SVGID_17_);fill:#FCB51E;}
	.st131{clip-path:url(#SVGID_17_);fill:#FCB61E;}
	.st132{clip-path:url(#SVGID_17_);fill:#FCB71F;}
	.st133{clip-path:url(#SVGID_17_);fill:#FCB81F;}
	.st134{clip-path:url(#SVGID_17_);fill:#FDB920;}
	.st135{clip-path:url(#SVGID_17_);fill:#FDBA20;}
	.st136{clip-path:url(#SVGID_17_);fill:#FDBB21;}
	.st137{clip-path:url(#SVGID_17_);fill:#FDBC22;}
	.st138{clip-path:url(#SVGID_17_);fill:#FDBD22;}
	.st139{clip-path:url(#SVGID_17_);fill:#FDBE23;}
	.st140{clip-path:url(#SVGID_17_);fill:#FDBF23;}
	.st141{clip-path:url(#SVGID_17_);fill:#FEC024;}
	.st142{clip-path:url(#SVGID_17_);fill:#FEC124;}
	.st143{clip-path:url(#SVGID_17_);fill:#FEC225;}
	.st144{clip-path:url(#SVGID_17_);fill:#FEC325;}
	.st145{clip-path:url(#SVGID_17_);fill:#FEC426;}
	.st146{clip-path:url(#SVGID_17_);fill:#FEC526;}
	.st147{clip-path:url(#SVGID_17_);fill:#FEC627;}
	.st148{clip-path:url(#SVGID_17_);fill:#FFC727;}
	.st149{clip-path:url(#SVGID_17_);fill:#FFC828;}
	.st150{clip-path:url(#SVGID_17_);fill:#FFC928;}
	.st151{clip-path:url(#SVGID_17_);fill:#FFCA29;}
	.st152{opacity:0.55;}
	.st153{fill:#D36C0F;}
	.st154{fill:#FFCA29;}
	.st155{fill:#1EBC61;}
	.st156{fill:#282E6B;}
	.st157{fill:#9EEF79;}
	.st158{fill:#418BF9;}
	.st159{fill:#01D3EC;}
	.st160{opacity:0.5;}
	.st161{fill:#F9C710;}
	.st162{fill:#F89F1D;}
	.st163{fill:#E84C3D;}
	.st164{fill:#00ADEF;}
	.st165{fill:#FACA44;}
	.st166{fill:#ECF0F1;}
	.st167{fill:#FFF8D1;}
	.st168{fill:#272525;}
	.st169{fill:#6401E3;}
	.st170{fill:#FDBC07;}
	.st171{fill:#989898;}
	.st172{fill:#D5DAEE;}
	.st173{fill:#FDDA9A;}
	.st174{fill:#150035;}
	.st175{fill:#FDBC2E;stroke:#000000;stroke-width:1.3688;stroke-miterlimit:10;}
	.st176{fill:#FDBC2E;}
	.st177{fill:#FDBC2E;stroke:#000000;stroke-width:0.5979;stroke-miterlimit:10;}
	.st178{stroke:#000000;stroke-width:0.483;stroke-miterlimit:10;}
	.st179{fill:none;stroke:#000000;stroke-width:9.9055;stroke-miterlimit:10;}
	.st180{fill:none;stroke:#000000;stroke-width:5.3043;stroke-miterlimit:10;}
	.st181{fill:#00CC7E;stroke:#000000;stroke-width:3.5362;stroke-miterlimit:10;}
	.st182{fill:#16110D;}
	.st183{fill:#FFBE05;}
	.st184{fill:#FFEDC9;}
	.st185{fill:#FFBD16;}
	.st186{fill:#FFECC9;}
	.st187{fill:#15100C;}
	.st188{fill:#FDEBC9;}
	.st189{fill:#FCEAC9;}
	.st190{fill:#140F0C;}
	.st191{fill:#FFBE05;stroke:#000000;stroke-width:3;stroke-miterlimit:10;}
	.st192{fill:#707384;}
	.st193{fill:none;stroke:#000000;stroke-width:14.5116;stroke-miterlimit:10;}
	.st194{fill-rule:evenodd;clip-rule:evenodd;}
</style>
<g id="XMLID_10422_">
	<path id="XMLID_10423_" class="st168" d="M143.85,14.68c-1.34-5.37-4.7-9.9-9.45-12.74c-9.81-5.88-22.55-2.67-28.43,7.12
		L76.12,58.9c-0.07,0.12-0.13,0.24-0.2,0.36c-0.07,0.12-0.16,0.22-0.22,0.34L2.95,181.03c-2.84,4.75-3.67,10.32-2.33,15.69
		c0.6,2.39,1.62,4.61,2.97,6.59L2.1,205.8c-1.2,2-1.55,4.34-0.98,6.6c0.57,2.26,1.98,4.16,3.98,5.36c1.37,0.82,2.91,1.24,4.46,1.24
		c0.72,0,1.43-0.08,2.14-0.26c2.26-0.57,4.17-1.98,5.36-3.98l1.5-2.5c0.71,0.07,1.42,0.14,2.13,0.14c1.69,0,3.39-0.21,5.07-0.63
		c5.37-1.34,9.89-4.7,12.73-9.45l72.75-121.42c0.07-0.12,0.13-0.25,0.2-0.38c0.07-0.11,0.15-0.21,0.22-0.33l1.47-2.45
		c0.12,0.11,0.23,0.24,0.37,0.34c1.06,0.8,2.29,1.21,3.56,1.21c0.37,0,0.75-0.03,1.12-0.1c1.71-0.33,3.23-1.41,4.18-2.97h0
		l23.16-37.99c1.88-3.07,1.17-7.12-1.61-9.21c-0.41-0.31-0.85-0.54-1.31-0.73C144.55,24.04,145.01,19.29,143.85,14.68z
		 M13.33,212.52L13.33,212.52c-0.6,1-1.55,1.7-2.68,1.99c-1.13,0.28-2.31,0.11-3.31-0.49c-1-0.6-1.71-1.55-1.99-2.68
		c-0.28-1.14-0.11-2.31,0.49-3.31l0.73-1.23c1.06,0.99,2.23,1.89,3.5,2.65c1.28,0.76,2.63,1.34,4.01,1.81L13.33,212.52z
		 M31.02,197.85L31.02,197.85c-1.64,2.75-4.27,4.7-7.37,5.48c-3.11,0.78-6.34,0.3-9.09-1.35c-2.75-1.64-4.7-4.27-5.47-7.38
		c-0.78-3.11-0.3-6.34,1.35-9.09l64.5-107.66c1.71,3.93,4.57,7.23,8.32,9.48c3.26,1.95,6.9,2.95,10.61,2.95
		c0.56,0,1.12-0.05,1.68-0.1L31.02,197.85z M104.2,75.72c-1.65,2.75-4.27,4.7-7.38,5.47c-3.11,0.78-6.34,0.31-9.09-1.34
		c-2.75-1.65-4.7-4.27-5.48-7.38c-0.78-3.1-0.3-6.33,1.34-9.09l29.86-49.83c2.25-3.75,6.24-5.84,10.32-5.84
		c2.1,0,4.22,0.55,6.15,1.71c2.75,1.64,4.69,4.27,5.47,7.38c0.78,3.11,0.3,6.34-1.35,9.09L104.2,75.72z M141.81,35.98l-23.16,37.98
		c-0.32,0.52-0.77,0.86-1.28,0.96c-0.31,0.05-0.77,0.05-1.24-0.31c-0.27-0.21-0.47-0.48-0.62-0.8l24.94-41.62
		c0.26,0.01,0.55,0.08,0.86,0.32C142.27,33.24,142.5,34.83,141.81,35.98z"/>
</g>
</svg>
