<?xml version="1.0" encoding="utf-8"?>
<!-- Generator: Adobe Illustrator 23.0.4, SVG Export Plug-In . SVG Version: 6.00 Build 0)  -->
<svg version="1.1" id="Layer_1" xmlns="http://www.w3.org/2000/svg" xmlns:xlink="http://www.w3.org/1999/xlink" x="0px" y="0px"
	 viewBox="0 0 191.85 155.34" style="enable-background:new 0 0 191.85 155.34;" xml:space="preserve">
<style type="text/css">
	.st0{fill:#F7F0ED;}
	.st1{fill:#FFBE05;stroke:#000000;stroke-width:1.2862;stroke-linecap:round;stroke-linejoin:round;stroke-miterlimit:10;}
	.st2{fill:#FFFFFF;stroke:#1A1A1A;stroke-width:1.2862;stroke-linecap:round;stroke-linejoin:round;stroke-miterlimit:10;}
	.st3{fill:#F7F0ED;stroke:#1A1A1A;stroke-width:1.2862;stroke-linecap:round;stroke-linejoin:round;stroke-miterlimit:10;}
	.st4{fill:#F7F0ED;stroke:#000000;stroke-width:1.2862;stroke-linecap:round;stroke-linejoin:round;stroke-miterlimit:10;}
	.st5{fill:#1A1A1A;stroke:#1A1A1A;stroke-width:1.2862;stroke-linecap:round;stroke-linejoin:round;stroke-miterlimit:10;}
	.st6{fill:#808080;}
	.st7{fill:none;stroke:#F7F0ED;stroke-width:1.8461;stroke-linecap:round;stroke-miterlimit:10;}
	.st8{opacity:0.1;fill:#640917;}
	.st9{opacity:0.27;fill:none;stroke:#640917;stroke-width:1.8461;stroke-linecap:round;stroke-miterlimit:10;}
	.st10{fill:none;stroke:#000000;stroke-width:1.8461;stroke-linecap:round;stroke-miterlimit:10;}
	.st11{opacity:0.1;fill:none;stroke:#640917;stroke-width:1.8461;stroke-linecap:round;stroke-miterlimit:10;}
	.st12{fill:none;stroke:#FFFFFF;stroke-width:1.8461;stroke-linecap:round;stroke-miterlimit:10;}
	.st13{fill:#F7F0ED;stroke:#640917;stroke-width:1.2862;stroke-linecap:round;stroke-linejoin:round;stroke-miterlimit:10;}
	.st14{fill:none;stroke:#1A1A1A;stroke-width:1.8461;stroke-linecap:round;stroke-miterlimit:10;}
	.st15{opacity:0.27;fill:none;stroke:#000000;stroke-width:1.8461;stroke-linecap:round;stroke-miterlimit:10;}
	.st16{opacity:0.1;fill:none;stroke:#000000;stroke-width:1.2862;stroke-linecap:round;stroke-miterlimit:10;}
	.st17{fill:#FFD671;stroke:#1A1A1A;stroke-width:1.2862;stroke-miterlimit:10;}
	.st18{fill:#E25959;stroke:#640917;stroke-width:1.2862;stroke-linecap:round;stroke-miterlimit:10;}
	.st19{fill:#B1C9C7;stroke:#000000;stroke-width:1.2862;stroke-miterlimit:10;}
	.st20{fill:#FCD3B6;stroke:#000000;stroke-width:1.2862;stroke-linecap:round;stroke-miterlimit:10;}
	.st21{fill:#EDB19B;stroke:#000000;stroke-width:1.2862;stroke-linecap:round;stroke-miterlimit:10;}
	.st22{fill:#FCD3B6;stroke:#640917;stroke-width:1.2862;stroke-linecap:round;stroke-miterlimit:10;}
	.st23{fill:#EDB19B;stroke:#640917;stroke-width:1.2862;stroke-linecap:round;stroke-miterlimit:10;}
	.st24{fill:#CDE0DF;stroke:#000000;stroke-width:1.2862;stroke-miterlimit:10;}
	.st25{fill:#FFFFFF;stroke:#000000;stroke-width:1.2862;stroke-linecap:round;stroke-miterlimit:10;}
	.st26{fill:#2E49CE;stroke:#000000;stroke-width:1.2862;stroke-miterlimit:10;}
	.st27{fill:#FFD671;stroke:#000000;stroke-width:1.2862;stroke-miterlimit:10;}
	.st28{fill:#FCD3B6;stroke:#66321E;stroke-width:5.7001;stroke-linecap:round;stroke-miterlimit:10;}
	.st29{fill:none;stroke:#808080;stroke-width:2.5435;stroke-miterlimit:10;}
	.st30{fill:#808080;stroke:#4D4D4D;stroke-width:0.9446;stroke-miterlimit:10;}
	.st31{opacity:0.41;}
	.st32{fill:#FEEDCC;}
	.st33{fill:#FFBE2E;}
	.st34{fill:#ECF1F7;}
	.st35{fill:#243762;}
	.st36{fill:#FFFFFF;}
	.st37{fill:#FFBE2E;stroke:#000000;stroke-width:1.8684;stroke-miterlimit:10;}
	.st38{opacity:0.26;}
	.st39{fill:#F7A9B4;}
	.st40{opacity:0.25;fill:#FFFFFF;}
	.st41{fill:#5908C1;}
	.st42{clip-path:url(#SVGID_4_);fill:#FFBE2E;}
	.st43{opacity:0.3;}
	.st44{fill:#371A45;}
	.st45{opacity:0.25;}
	.st46{opacity:0.35;}
	.st47{fill:#00AAFF;}
	.st48{opacity:0.6;}
	.st49{fill:#EC1C24;}
	.st50{fill:#D25658;}
	.st51{fill:#6BD6F0;}
	.st52{opacity:0.2;}
	.st53{opacity:0.7;}
	.st54{fill:#22A7F0;}
	.st55{fill:#0858B7;stroke:#000000;stroke-width:9.9513;stroke-miterlimit:10;}
	.st56{fill:#FFFFFF;stroke:#000000;stroke-width:4.6506;stroke-miterlimit:10;}
	.st57{fill:#FFFFFF;stroke:#000000;stroke-width:10.213;stroke-miterlimit:10;}
	.st58{fill:#C1272D;stroke:#000000;stroke-width:5.1065;stroke-miterlimit:10;}
	.st59{fill:#390075;}
	.st60{fill:#DBE3EE;}
	.st61{fill:#33AEF1;}
	.st62{filter:url(#Adobe_OpacityMaskFilter);}
	.st63{filter:url(#Adobe_OpacityMaskFilter_1_);}
	.st64{mask:url(#SVGID_7_);fill:url(#SVGID_8_);}
	.st65{opacity:0.3;fill:url(#SVGID_9_);}
	.st66{filter:url(#Adobe_OpacityMaskFilter_2_);}
	.st67{filter:url(#Adobe_OpacityMaskFilter_3_);}
	.st68{mask:url(#SVGID_10_);fill:url(#SVGID_11_);}
	.st69{opacity:0.3;fill:url(#SVGID_12_);}
	.st70{filter:url(#Adobe_OpacityMaskFilter_4_);}
	.st71{filter:url(#Adobe_OpacityMaskFilter_5_);}
	.st72{mask:url(#SVGID_13_);fill:url(#SVGID_14_);}
	.st73{opacity:0.3;fill:url(#SVGID_15_);}
	.st74{clip-path:url(#SVGID_17_);fill:#F47C00;}
	.st75{clip-path:url(#SVGID_17_);fill:#F47D01;}
	.st76{clip-path:url(#SVGID_17_);fill:#F47E01;}
	.st77{clip-path:url(#SVGID_17_);fill:#F47F02;}
	.st78{clip-path:url(#SVGID_17_);fill:#F58002;}
	.st79{clip-path:url(#SVGID_17_);fill:#F58103;}
	.st80{clip-path:url(#SVGID_17_);fill:#F58203;}
	.st81{clip-path:url(#SVGID_17_);fill:#F58304;}
	.st82{clip-path:url(#SVGID_17_);fill:#F58404;}
	.st83{clip-path:url(#SVGID_17_);fill:#F58505;}
	.st84{clip-path:url(#SVGID_17_);fill:#F58605;}
	.st85{clip-path:url(#SVGID_17_);fill:#F68706;}
	.st86{clip-path:url(#SVGID_17_);fill:#F68806;}
	.st87{clip-path:url(#SVGID_17_);fill:#F68907;}
	.st88{clip-path:url(#SVGID_17_);fill:#F68A07;}
	.st89{clip-path:url(#SVGID_17_);fill:#F68B08;}
	.st90{clip-path:url(#SVGID_17_);fill:#F68C09;}
	.st91{clip-path:url(#SVGID_17_);fill:#F68D09;}
	.st92{clip-path:url(#SVGID_17_);fill:#F78E0A;}
	.st93{clip-path:url(#SVGID_17_);fill:#F78F0A;}
	.st94{clip-path:url(#SVGID_17_);fill:#F7900B;}
	.st95{clip-path:url(#SVGID_17_);fill:#F7910B;}
	.st96{clip-path:url(#SVGID_17_);fill:#F7920C;}
	.st97{clip-path:url(#SVGID_17_);fill:#F7930C;}
	.st98{clip-path:url(#SVGID_17_);fill:#F7940D;}
	.st99{clip-path:url(#SVGID_17_);fill:#F8950D;}
	.st100{clip-path:url(#SVGID_17_);fill:#F8960E;}
	.st101{clip-path:url(#SVGID_17_);fill:#F8970E;}
	.st102{clip-path:url(#SVGID_17_);fill:#F8980F;}
	.st103{clip-path:url(#SVGID_17_);fill:#F8990F;}
	.st104{clip-path:url(#SVGID_17_);fill:#F89A10;}
	.st105{clip-path:url(#SVGID_17_);fill:#F89B11;}
	.st106{clip-path:url(#SVGID_17_);fill:#F99C11;}
	.st107{clip-path:url(#SVGID_17_);fill:#F99D12;}
	.st108{clip-path:url(#SVGID_17_);fill:#F99E12;}
	.st109{clip-path:url(#SVGID_17_);fill:#F99F13;}
	.st110{clip-path:url(#SVGID_17_);fill:#F9A013;}
	.st111{clip-path:url(#SVGID_17_);fill:#F9A114;}
	.st112{clip-path:url(#SVGID_17_);fill:#F9A214;}
	.st113{clip-path:url(#SVGID_17_);fill:#FAA415;}
	.st114{clip-path:url(#SVGID_17_);fill:#FAA515;}
	.st115{clip-path:url(#SVGID_17_);fill:#FAA616;}
	.st116{clip-path:url(#SVGID_17_);fill:#FAA716;}
	.st117{clip-path:url(#SVGID_17_);fill:#FAA817;}
	.st118{clip-path:url(#SVGID_17_);fill:#FAA917;}
	.st119{clip-path:url(#SVGID_17_);fill:#FAAA18;}
	.st120{clip-path:url(#SVGID_17_);fill:#FBAB18;}
	.st121{clip-path:url(#SVGID_17_);fill:#FBAC19;}
	.st122{clip-path:url(#SVGID_17_);fill:#FBAD1A;}
	.st123{clip-path:url(#SVGID_17_);fill:#FBAE1A;}
	.st124{clip-path:url(#SVGID_17_);fill:#FBAF1B;}
	.st125{clip-path:url(#SVGID_17_);fill:#FBB01B;}
	.st126{clip-path:url(#SVGID_17_);fill:#FBB11C;}
	.st127{clip-path:url(#SVGID_17_);fill:#FCB21C;}
	.st128{clip-path:url(#SVGID_17_);fill:#FCB31D;}
	.st129{clip-path:url(#SVGID_17_);fill:#FCB41D;}
	.st130{clip-path:url(#SVGID_17_);fill:#FCB51E;}
	.st131{clip-path:url(#SVGID_17_);fill:#FCB61E;}
	.st132{clip-path:url(#SVGID_17_);fill:#FCB71F;}
	.st133{clip-path:url(#SVGID_17_);fill:#FCB81F;}
	.st134{clip-path:url(#SVGID_17_);fill:#FDB920;}
	.st135{clip-path:url(#SVGID_17_);fill:#FDBA20;}
	.st136{clip-path:url(#SVGID_17_);fill:#FDBB21;}
	.st137{clip-path:url(#SVGID_17_);fill:#FDBC22;}
	.st138{clip-path:url(#SVGID_17_);fill:#FDBD22;}
	.st139{clip-path:url(#SVGID_17_);fill:#FDBE23;}
	.st140{clip-path:url(#SVGID_17_);fill:#FDBF23;}
	.st141{clip-path:url(#SVGID_17_);fill:#FEC024;}
	.st142{clip-path:url(#SVGID_17_);fill:#FEC124;}
	.st143{clip-path:url(#SVGID_17_);fill:#FEC225;}
	.st144{clip-path:url(#SVGID_17_);fill:#FEC325;}
	.st145{clip-path:url(#SVGID_17_);fill:#FEC426;}
	.st146{clip-path:url(#SVGID_17_);fill:#FEC526;}
	.st147{clip-path:url(#SVGID_17_);fill:#FEC627;}
	.st148{clip-path:url(#SVGID_17_);fill:#FFC727;}
	.st149{clip-path:url(#SVGID_17_);fill:#FFC828;}
	.st150{clip-path:url(#SVGID_17_);fill:#FFC928;}
	.st151{clip-path:url(#SVGID_17_);fill:#FFCA29;}
	.st152{opacity:0.55;}
	.st153{fill:#D36C0F;}
	.st154{fill:#FFCA29;}
	.st155{fill:#1EBC61;}
	.st156{fill:#282E6B;}
	.st157{fill:#9EEF79;}
	.st158{fill:#418BF9;}
	.st159{fill:#01D3EC;}
	.st160{opacity:0.5;}
	.st161{fill:#F9C710;}
	.st162{fill:#F89F1D;}
	.st163{fill:#E84C3D;}
	.st164{fill:#00ADEF;}
	.st165{fill:#FACA44;}
	.st166{fill:#ECF0F1;}
	.st167{fill:#FFF8D1;}
	.st168{fill:#272525;}
	.st169{fill:#6401E3;}
	.st170{fill:#FDBC07;}
	.st171{fill:#989898;}
	.st172{fill:#D5DAEE;}
	.st173{fill:#FDDA9A;}
	.st174{fill:#150035;}
	.st175{fill:#FDBC2E;stroke:#000000;stroke-width:1.3688;stroke-miterlimit:10;}
	.st176{fill:#FDBC2E;}
	.st177{fill:#FDBC2E;stroke:#000000;stroke-width:0.5979;stroke-miterlimit:10;}
	.st178{stroke:#000000;stroke-width:0.483;stroke-miterlimit:10;}
	.st179{fill:none;stroke:#000000;stroke-width:9.9055;stroke-miterlimit:10;}
	.st180{fill:none;stroke:#000000;stroke-width:5.3043;stroke-miterlimit:10;}
	.st181{fill:#00CC7E;stroke:#000000;stroke-width:3.5362;stroke-miterlimit:10;}
	.st182{fill:#16110D;}
	.st183{fill:#FFBE05;}
	.st184{fill:#FFEDC9;}
	.st185{fill:#FFBD16;}
	.st186{fill:#FFECC9;}
	.st187{fill:#15100C;}
	.st188{fill:#FDEBC9;}
	.st189{fill:#FCEAC9;}
	.st190{fill:#140F0C;}
	.st191{fill:#FFBE05;stroke:#000000;stroke-width:3;stroke-miterlimit:10;}
	.st192{fill:#707384;}
	.st193{fill:none;stroke:#000000;stroke-width:14.5116;stroke-miterlimit:10;}
	.st194{fill-rule:evenodd;clip-rule:evenodd;}
</style>
<g id="XMLID_9_">
	<path id="XMLID_18_" class="st168" d="M106.33,0c-6.94,0-13.87,0-20.8,0c-1.05,0-2.1,0-3.15,0C55.93,0,29.49,0,3.05,0
		C1.4,0,0,1.53,0,3.33C0,45.32,0,87.31,0,129.3c0,1.8,1.4,3.33,3.05,3.33c25.43,0,50.86,0,76.29,0c0,6.4,0,12.79,0,19.19
		c0,2.31,2.67,4.44,4.58,2.88c2.15-1.75,4.3-3.51,6.45-5.26c1.58-1.29,3.17-2.58,4.75-3.87c0.4-0.33,1-0.7,1.5-1.04
		c0.3,0.21,0.6,0.42,0.82,0.65c1.38,1.39,3.08,2.52,4.58,3.75c2.34,1.92,4.68,3.84,7.03,5.76c1.3,1.07,2.59,0.68,3.42-0.31
		c0.68-0.53,1.16-1.38,1.16-2.57c0-6.4,0-12.79,0-19.19c25.06,0,50.12,0,75.19,0c0.89,0,1.57-0.36,2.06-0.89
		c0.04-0.03,0.07-0.07,0.11-0.11c0.02-0.02,0.04-0.04,0.05-0.06c0.5-0.53,0.83-1.28,0.83-2.27c0-41.99,0-83.98,0-125.97
		c0-1.81-1.4-3.33-3.05-3.33c-26.08,0-52.15,0-78.23,0C109.16,0,107.74,0,106.33,0z M79.33,125.96c-24.41,0-48.83,0-73.24,0
		c0-39.77,0-79.53,0-119.3c24.42,0,48.83,0,73.24,0C79.33,46.43,79.33,86.2,79.33,125.96z M107.53,145.18
		c-3.16-2.59-6.31-5.18-9.47-7.77c-0.78-0.64-2.3-0.63-3.07,0c-3.19,2.6-6.38,5.2-9.57,7.8c0-46.18,0-92.36,0-138.54
		c0.04,0,0.07,0,0.1,0c6.93,0,13.87,0,20.8,0c0.4,0,0.8,0,1.21,0C107.53,52.84,107.53,99.01,107.53,145.18z M113.62,6.67
		c24.05,0,48.1,0,72.14,0c0,39.77,0,79.53,0,119.3c-24.04,0-48.09,0-72.14,0C113.62,86.2,113.62,46.43,113.62,6.67z"/>
	<path id="XMLID_17_" class="st168" d="M19.93,37.98c14.34,0,28.68,0,43.03,0c2.61,0,2.62-4.44,0-4.44c-14.34,0-28.68,0-43.03,0
		C17.32,33.54,17.31,37.98,19.93,37.98z"/>
	<path id="XMLID_16_" class="st168" d="M19.93,56.67c14.34,0,28.68,0,43.03,0c2.61,0,2.62-4.45,0-4.45c-14.34,0-28.68,0-43.03,0
		C17.32,52.23,17.31,56.67,19.93,56.67z"/>
	<path id="XMLID_15_" class="st168" d="M19.93,75.36c14.34,0,28.68,0,43.03,0c2.61,0,2.62-4.45,0-4.45c-14.34,0-28.68,0-43.03,0
		C17.32,70.92,17.31,75.36,19.93,75.36z"/>
	<path id="XMLID_14_" class="st168" d="M19.93,94.05c14.34,0,28.68,0,43.03,0c2.61,0,2.62-4.45,0-4.45c-14.34,0-28.68,0-43.03,0
		C17.32,89.6,17.31,94.05,19.93,94.05z"/>
	<path id="XMLID_13_" class="st168" d="M172.15,33.54c-14.35,0-28.69,0-43.03,0c-2.61,0-2.61,4.44,0,4.44c14.34,0,28.68,0,43.03,0
		C174.77,37.98,174.77,33.54,172.15,33.54z"/>
	<path id="XMLID_12_" class="st168" d="M172.15,52.23c-14.35,0-28.69,0-43.03,0c-2.61,0-2.61,4.45,0,4.45c14.34,0,28.68,0,43.03,0
		C174.77,56.67,174.77,52.23,172.15,52.23z"/>
	<path id="XMLID_11_" class="st168" d="M172.15,70.92c-14.35,0-28.69,0-43.03,0c-2.61,0-2.61,4.45,0,4.45c14.34,0,28.68,0,43.03,0
		C174.77,75.36,174.77,70.92,172.15,70.92z"/>
	<path id="XMLID_10_" class="st168" d="M172.15,89.6c-14.35,0-28.69,0-43.03,0c-2.61,0-2.61,4.45,0,4.45c14.34,0,28.68,0,43.03,0
		C174.77,94.05,174.77,89.6,172.15,89.6z"/>
</g>
</svg>
