<svg width="64" height="64" viewBox="0 0 64 64" xmlns="http://www.w3.org/2000/svg" xmlns:xlink="http://www.w3.org/1999/xlink"><title>Discover Innovation</title><defs><path d="M16 44.256c1.207 0 2.235.417 3.37.16.696-.157 1.527-.913 2.187-1.158C27.613 41.006 32 35.193 32 28.378c0-8.77-7.263-15.878-16-15.878S0 19.61 0 28.378c0 6.83 4.408 12.655 10.487 14.896.712.262 1.435.982 2.19 1.142 1.07.228 2.19-.16 3.323-.16z" id="a"/><path id="b" d="M10 42.004h12v11H10z"/><path id="c" d="M10 41.004h12v7H10z"/></defs><g fill="none" fill-rule="evenodd"><g transform="translate(16 5)"><use fill="#FFF" xlink:href="#a"/><path stroke="#4F4D4C" stroke-width="2" d="M16 43.256c.448 0 .794.036 1.464.132.406.058.55.077.746.094.372.033.664.022.94-.04.13-.03.34-.135.665-.337l.213-.135c.626-.4.835-.52 1.18-.65C27.028 40.156 31 34.615 31 28.378c0-8.18-6.778-14.878-15-14.878-8.222 0-15 6.698-15 14.878 0 6.253 3.99 11.804 9.832 13.957.36.133.59.266 1.166.637.48.31.7.427.886.466.396.084.76.066 1.677-.057.687-.09 1.015-.124 1.44-.124z"/></g><g transform="translate(16 5)"><use fill="#FC0" xlink:href="#b"/><path stroke="#4F4D4C" stroke-width="2" d="M11 43.004h10v9H11z"/></g><g transform="translate(16 5)"><use fill="#FFF" xlink:href="#c"/><path stroke="#4F4D4C" stroke-width="2" d="M11 42.004h10v5H11z"/></g><path stroke="#4F4D4C" stroke-width="2" d="M27 49.5v-13l5.06 6.022L37 36.5v13"/><path d="M32 5v7M48 9.905l-4.213 5.59M16 9.905l4.04 5.717" stroke="#4F4C4D" stroke-width="2" stroke-linecap="square"/></g></svg>