<?xml version="1.0" encoding="UTF-8"?>
<svg width="64px" height="64px" viewBox="0 0 64 64" version="1.1" xmlns="http://www.w3.org/2000/svg" xmlns:xlink="http://www.w3.org/1999/xlink">
    <!-- Generator: Sketch 47.1 (45422) - http://www.bohemiancoding.com/sketch -->
    <title>pictogram/64/pictogramInternational64</title>
    <desc>Created with Sketch.</desc>
    <defs></defs>
    <g id="Symbols" stroke="none" stroke-width="1" fill="none" fill-rule="evenodd">
        <g id="DDL-CBA---Pictograms" transform="translate(-1327.000000, -701.000000)">
            <g id="Labels" transform="translate(1138.000000, 388.000000)"></g>
        </g>
        <g id="pictogram/64/pictogramInternational64">
            <rect id="Bounding-Box" x="0" y="0" width="64" height="64"></rect>
            <g id="pictogram" transform="translate(8.000000, 8.000000)" stroke="#4F4C4D" stroke-width="2">
                <circle id="World-Outline" fill="#FFFFFF" cx="24" cy="24" r="24"></circle>
                <path d="M40,6.10000038 C40,8.30181897 39.1957861,10.893176 37.7523494,12.3366128 C36.3089126,13.7800495 34.3150213,14.6720271 32.1132027,14.6720271 C29.8943079,14.6720271 28.0952856,16.4710495 28.0952856,18.6899442 C28.0952856,20.908839 29.8943079,22.7078614 32.1132027,22.7078614 C32.6988141,22.7078614 33.2010537,22.9328647 33.5646752,23.2964862 C33.9282967,23.6601077 34.1522956,24.1623474 34.1522956,24.7168199 C34.1522956,25.272297 33.9282967,25.7745366 33.5646752,26.2235389 L28.1254199,31.6627942 L28.1254199,36.0594 C28.1254199,38.1085377 26.4499485,39.7840092 24.4008107,39.7840092 L23.8151993,39.7840092 C21.7660616,39.7840092 20.0895857,38.1085377 20.0895857,36.0594 L20.0895857,28.7347371 C20.0895857,26.5158423 18.2915677,24.7168199 16.0716685,24.7168199 C13.8527738,24.7168199 11.8438152,23.817811 10.3903337,22.363325 C8.9358477,20.908839 8.03583427,18.8998804 8.03583427,16.6809857 C8.03583427,14.4620909 8.9358477,12.4531324 10.3903337,10.9986464 C11.8438152,9.54516484 13.8527738,8.6451514 16.0716685,8.6451514 C18.2915677,8.6451514 20.3005263,9.54516484 21.7540078,10.9986464 L23.9357368,13.1803754 C24.4811691,13.7258076 25.2345286,14.0633127 26.0662374,14.0633127 C26.8989507,14.0633127 27.6523102,13.7258076 28.196738,13.1803754 C28.7421702,12.6349431 29.0796752,11.8815836 29.0796752,11.0498748 C29.0796752,10.2171615 28.7421702,9.46380201 28.196738,8.91836976 C27.6523102,8.37293751 26.8989507,8.03643695 26.0662374,8.03643695 C23.8473427,8.03643695 22.0483203,6.23741456 22.0483203,4.01851982 C22.0483203,1.79962508 23.7811053,0.100000381 26,0.100000381 C28.2188947,0.100000381 34.7756348,1.3494873 40,6.10000038 Z" id="World" fill="#FFCC00"></path>
            </g>
        </g>
    </g>
</svg>