<?xml version="1.0"?>
<svg xmlns="http://www.w3.org/2000/svg" id="Layer_3" enable-background="new 0 0 64 64" height="512px" viewBox="0 0 64 64" width="512px" class=""><g><path d="m56.43 7.57c3.44 3.43 5.57 8.19 5.57 13.43-10.49 0-19-8.51-19-19 5.24 0 10 2.13 13.43 5.57z" fill="#fcd770" data-original="#FCD770"/><path d="m43 2c0 10.49 8.51 19 19 19-7.93 4.12-15.22 9.29-21.64 15.36l-6.4-6.4c.06-.71-.11-1.43-.5-2.04 1.45-.32 2.54-1.61 2.54-3.16v-1.52c0-1.55-1.09-2.84-2.54-3.16.64-1.01.68-2.29.09-3.33 3.57-4.59 6.74-9.53 9.45-14.75z" fill="#e6e9ed" data-original="#E6E9ED" class=""/><path d="m33.96 29.96 6.4 6.4c-.69.65-1.36 1.3-2.03 1.97s-1.32 1.34-1.97 2.03l-6.4-6.4c.72-.07 1.43-.37 1.99-.93l1.08-1.08c.56-.56.86-1.27.93-1.99z" fill="#ffeaa7" data-original="#FFEAA7"/><path d="m29.96 33.96 6.4 6.4c-6.07 6.42-11.24 13.71-15.36 21.64-5.24 0-10-2.13-13.43-5.57-3.44-3.43-5.57-8.19-5.57-13.43 5.04-2.61 9.82-5.66 14.28-9.08l-4.28 7.08 4-1 2 4 3.32-8.64c.54.41 1.19.64 1.92.64h1.52c1.55 0 2.84-1.09 3.16-2.54.61.39 1.33.56 2.04.5z" fill="#e6e9ed" data-original="#E6E9ED" class=""/><path d="m36 23.24v1.52c0 1.55-1.09 2.84-2.54 3.16.39.61.56 1.33.5 2.04-.07.72-.37 1.43-.93 1.99l-1.08 1.08c-.56.56-1.27.86-1.99.93-.71.06-1.43-.11-2.04-.5-.32 1.45-1.61 2.54-3.16 2.54h-1.52c-.73 0-1.38-.23-1.92-.64-.62-.45-1.07-1.13-1.24-1.9-1.07.68-2.45.68-3.51-.02-.19-.11-.36-.25-.52-.41l-1.08-1.08c-.16-.16-.3-.33-.41-.52-.7-1.06-.7-2.44-.02-3.51-.77-.17-1.45-.62-1.9-1.24-.41-.54-.64-1.19-.64-1.92v-1.52c0-1.55 1.09-2.84 2.54-3.16-.8-1.25-.66-2.93.43-4.03l1.08-1.08c1.1-1.09 2.78-1.23 4.03-.43.32-1.45 1.61-2.54 3.16-2.54h1.52c1.55 0 2.84 1.09 3.16 2.54 1.25-.8 2.93-.66 4.03.43l1.08 1.08c.21.21.39.45.52.7.59 1.04.55 2.32-.09 3.33 1.45.32 2.54 1.61 2.54 3.16z" fill="#ff826e" data-original="#FF826E" class="active-path" data-old_color="#ff826e" style="fill:#F8AA02"/><circle cx="24" cy="24" fill="#fcd770" r="6" data-original="#FCD770"/><path d="m20.08 33.46c.17.77.62 1.45 1.24 1.9l-3.32 8.64-2-4-4 1 4.28-7.08.29-.48c1.06.7 2.44.7 3.51.02z" fill="#ffeaa7" data-original="#FFEAA7"/><path d="m14.56 31.43-7.56 4.57 1-4-4-2 8.64-3.32c.45.62 1.13 1.07 1.9 1.24-.68 1.07-.68 2.45.02 3.51z" fill="#ffeaa7" data-original="#FFEAA7"/><path d="m43 1h-.608l-.28.54c-2.466 4.756-5.367 9.312-8.602 13.585l-.858-.858c-1.104-1.104-2.726-1.482-4.179-1.066-.731-1.323-2.147-2.201-3.709-2.201h-1.527c-1.562 0-2.978.878-3.709 2.201-1.453-.416-3.076-.039-4.179 1.066l-1.08 1.08c-1.104 1.104-1.485 2.727-1.066 4.18-1.325.732-2.203 2.148-2.203 3.709v1.527c0 .48.092.944.246 1.381l-9.722 3.736 5.312 2.656-1.394 5.572 8.906-5.376.784.784c-4.275 3.235-8.839 6.131-13.592 8.596l-.54.28v.608c0 11.028 8.972 20 20 20h.608l.28-.54c9.063-17.48 23.093-31.509 40.572-40.572l.54-.28v-.608c0-11.028-8.972-20-20-20zm17.953 18.947c-9.089-.527-16.374-7.812-16.9-16.9 9.085.529 16.371 7.816 16.9 16.9zm-25.992 9.6c-.009-.361-.061-.723-.163-1.074 1.324-.732 2.202-2.148 2.202-3.709v-1.527c0-1.562-.878-2.978-2.202-3.709.251-.872.209-1.803-.099-2.649 2.803-3.649 5.344-7.517 7.603-11.533 1.414 8.342 7.996 14.928 16.335 16.348-6.637 3.73-12.76 8.172-18.27 13.259zm-21.961-6.311c0-1.039.737-1.955 1.753-2.18l1.397-.309-.77-1.206c-.56-.877-.433-2.046.302-2.78l1.08-1.08c.735-.733 1.904-.859 2.78-.302l1.206.77.309-1.396c.224-1.016 1.141-1.753 2.179-1.753h1.527c1.039 0 1.956.737 2.18 1.753l.309 1.396 1.206-.77c.877-.558 2.046-.432 2.78.302l1.08 1.08c.734.734.861 1.903.302 2.78l-.77 1.206 1.397.309c1.016.225 1.753 1.141 1.753 2.18v1.527c0 1.039-.737 1.955-1.753 2.18l-1.397.309.77 1.206c.56.877.433 2.046-.302 2.78l-1.08 1.08c-.734.734-1.903.861-2.78.302l-1.206-.77-.309 1.396c-.224 1.017-1.141 1.754-2.179 1.754h-1.527c-1.039 0-1.956-.737-2.18-1.753l-.309-1.396-1.206.77c-.876.56-2.045.433-2.78-.302l-1.08-1.08c-.734-.734-.861-1.903-.302-2.78l.77-1.206-1.397-.309c-1.016-.225-1.753-1.141-1.753-2.18zm3.957 11.488c.824.282 1.725.317 2.57.075.169.306.379.586.615.839l-2.262 5.886-1.344-2.689-2.427.607zm-10.481-4.604 5.887-2.262c.253.236.532.445.839.615-.244.845-.209 1.745.074 2.57l-4.717 2.849.606-2.428zm13.923 30.87c-9.449-.312-17.078-7.941-17.39-17.39 3.4-1.791 6.698-3.805 9.87-5.992l-2.989 4.949 5.573-1.393 2.656 5.311 3.735-9.721c.437.154.9.245 1.381.245h1.527c1.562 0 2.978-.878 3.709-2.201.351.1.711.152 1.072.161l5.408 5.408c-5.682 6.157-10.575 13.07-14.552 20.623zm15.936-22.069-4.537-4.537c.307-.178.596-.393.854-.651l1.08-1.08c.259-.259.474-.547.652-.854l4.537 4.537c-.878.845-1.74 1.707-2.586 2.585z" data-original="#000000" class="" style="fill:#000000"/><path d="m24 31c3.86 0 7-3.141 7-7s-3.14-7-7-7-7 3.141-7 7 3.14 7 7 7zm0-12c2.757 0 5 2.243 5 5s-2.243 5-5 5-5-2.243-5-5 2.243-5 5-5z" data-original="#000000" class="" style="fill:#000000"/><path d="m42.658 12.542-1.681-1.084c-.358.555-.721 1.105-1.089 1.653l1.658 1.117c.377-.557.747-1.12 1.112-1.686z" data-original="#000000" class="" style="fill:#000000"/><path d="m40.402 15.893-1.637-1.148c-.379.54-.764 1.076-1.154 1.607l1.612 1.184c.399-.544.792-1.092 1.179-1.643z" data-original="#000000" class="" style="fill:#000000"/><path d="m27.109 43.379c-.536.677-1.064 1.36-1.584 2.052l1.6 1.201c.509-.678 1.026-1.348 1.552-2.011z" data-original="#000000" class="" style="fill:#000000"/><path d="m23.346 48.445 1.643 1.143c.475-.684.958-1.361 1.45-2.031l-1.612-1.184c-.502.684-.996 1.375-1.481 2.072z" data-original="#000000" class="" style="fill:#000000"/><path d="m18.172 56.713c-2.89-.598-5.549-2.116-7.55-4.325l-1.482 1.341c2.463 2.721 5.803 4.525 9.406 5.082l.69.106.338-.611c1.463-2.649 3.06-5.256 4.747-7.746l-1.656-1.121c-1.588 2.343-3.097 4.788-4.493 7.274z" data-original="#000000" class="" style="fill:#000000"/></g> </svg>
