<svg id="Layer_1" height="512" viewBox="0 0 128 128" width="512" xmlns="http://www.w3.org/2000/svg" data-name="Layer 1"><path d="m21.645 97.167-6.645 12.083v-95.928a3.322 3.322 0 0 1 3.322-3.322 3.322 3.322 0 0 1 3.322 3.322z" fill="#5a5a5a"/><path d="m113 109.25-6.645-12.083v-83.845a3.322 3.322 0 0 1 3.323-3.322 3.322 3.322 0 0 1 3.322 3.322z" fill="#444"/><path d="m10 17h108v29.795h-108z" fill="#e43c53"/><path d="m64.434 17h53.566v29.795h-53.566z" fill="#ca3046"/><path d="m118 118h-108l20.876-37.333h66.248z" fill="#fbbe2c"/><path d="m64.434 118h53.566l-20.876-37.333h-32.69z" fill="#fd9e27"/><path d="m113 109.25h-98.107l11.663-20.858h74.888z" fill="#5a5a5a"/><path d="m64.434 109.25h48.673l-11.663-20.858h-37.01z" fill="#444"/><path d="m36.981 97.167h-15.332l4.907-8.775h15.944z" fill="#deecf1"/><path d="m45.75 109.25h-16.018l7.249-12.083h15.944z" fill="#deecf1"/><path d="m82.255 109.25h16.018l-7.25-12.083h-15.943z" fill="#c7e2e7"/><path d="m91.023 97.167h15.332l-4.906-8.775h-15.944z" fill="#c7e2e7"/><g fill="#deecf1"><path d="m70.08 88.392h-12.155l-5 8.775h22.155z"/><path d="m38.75 26.467h7.493v2.108h-4.449v1.713h3.8v1.98h-3.8v4.008h-3.044z"/><path d="m48 26.467h3.037v9.808h-3.037z"/><path d="m53.228 26.467h2.83l3.693 5.427v-5.427h2.857v9.808h-2.856l-3.674-5.385v5.385h-2.85z"/><path d="m64.743 26.467h3.037v9.808h-3.037z"/><path d="m69.426 33.031 2.884-.181a2.2 2.2 0 0 0 .381 1.07 1.6 1.6 0 0 0 1.338.6 1.482 1.482 0 0 0 1-.3.912.912 0 0 0 .351-.706.9.9 0 0 0 -.335-.682 3.874 3.874 0 0 0 -1.552-.569 6.6 6.6 0 0 1 -2.843-1.191 2.4 2.4 0 0 1 -.856-1.893 2.572 2.572 0 0 1 .438-1.428 2.907 2.907 0 0 1 1.318-1.057 6.154 6.154 0 0 1 2.412-.385 4.933 4.933 0 0 1 2.867.7 3.018 3.018 0 0 1 1.171 2.215l-2.857.167a1.335 1.335 0 0 0 -1.485-1.265 1.215 1.215 0 0 0 -.8.224.687.687 0 0 0 -.268.545.546.546 0 0 0 .221.422 2.484 2.484 0 0 0 1.017.361 12.722 12.722 0 0 1 2.847.866 2.992 2.992 0 0 1 1.251 1.087 2.756 2.756 0 0 1 .391 1.452 3.11 3.11 0 0 1 -.522 1.74 3.266 3.266 0 0 1 -1.459 1.208 5.893 5.893 0 0 1 -2.362.411 4.864 4.864 0 0 1 -3.466-.963 3.8 3.8 0 0 1 -1.082-2.448z"/><path d="m79.863 26.467h3.031v3.433h3.312v-3.433h3.044v9.808h-3.044v-3.967h-3.312v3.967h-3.031z"/></g><path d="m64.434 97.167h10.646l-5-8.775h-5.646z" fill="#c7e2e7"/></svg>