<svg width="64" height="64" viewBox="0 0 64 64" xmlns="http://www.w3.org/2000/svg"><title>Corporate Solutions</title><g stroke="#4F4D4C" stroke-width="2" fill="none" fill-rule="evenodd"><path d="M10.65 30.844l2.45-2.442M42.84 45.21l1.53-1.527M51.708 32.676l-2.45-2.442"/><path d="M33.647 54.37c.846-.844.846-2.21 0-3.054l1.672 1.67c.846.842 2.217.842 3.064 0 .846-.843.846-2.21 0-3.053l.918.915c.847.844 2.22.844 3.065 0 .846-.843.846-2.21 0-3.052l-2.592-2.586c.846.843 2.218.843 3.064 0 .845-.843.845-2.21 0-3.053l-1.55-1.543-.613-.61-12.273-12.23 3.677-3.663-3.063-3.052-11.002 11.02c-2.708 2.698-2.708 7.07 0 9.77L29.05 52.84l1.532 1.527c.846.842 2.218.842 3.065 0z" fill="#FFF"/><path d="M40.08 45.515l-4.305-4.29M38.383 49.933l-5.672-5.655M33.953 51.62l-4.307-4.29"/><path fill="#FC0" d="M13.1 36.95l15.934-15.876-1.226-1.22-5.515-5.496L6.36 30.234z"/><path d="M46.192 41.835c2.71-2.698 2.71-7.072 0-9.77l-11.03-10.99L24.91 31.29c-1.01 1.008-1.01 2.657 0 3.664 1.01 1.007 2.665 1.007 3.676 0l3.512-3.5 12.256 12.21 1.838-1.83z" fill="#FFF"/><path fill="#FC0" d="M57.836 30.233L41.903 14.357l-6.74 6.717L51.094 36.95z"/></g></svg>