<svg xmlns="http://www.w3.org/2000/svg" width="170.382" height="175.293" viewBox="0 0 170.382 175.293"><defs><style>.a{fill:#6401e3;stroke:#000;stroke-miterlimit:10;stroke-width:1.249px;}.b{fill:#253bd8;}</style></defs><g transform="translate(28.523 0)"><path d="M1068.806,2778.707a70.93,70.93,0,1,1,70.93-70.931A71.011,71.011,0,0,1,1068.806,2778.707Zm0-141.231a70.3,70.3,0,1,0,70.3,70.3A70.38,70.38,0,0,0,1068.806,2637.476Z" transform="translate(-997.876 -2636.846)"/></g><path class="a" d="M1054.086,2814.117l25.008-6.7,6.7-25.008-18.307-18.307-25.008,6.7-6.7,25.008Z" transform="translate(-976.258 -2660.028)"/><g transform="translate(61.067 124.574)"><path d="M1056.234,2839.887l-18.565-18.564.047-.176,6.749-25.184.175-.047,25.184-6.748,18.564,18.565-.047.176-6.749,25.183-.175.047Zm-17.862-18.752,18.05,18.05,24.657-6.606,6.606-24.657-18.05-18.05-24.657,6.606Z" transform="translate(-1037.669 -2789.168)"/></g><path class="b" d="M1019.371,2678.693l-28.185,40.785L963,2678.693Z" transform="translate(-963 -2644.469)"/></svg>