<svg xmlns="http://www.w3.org/2000/svg" width="102.982" height="126.636" viewBox="0 0 102.982 126.636"><defs><style>.a{fill:#ffcc0c;}.b{fill:#040306;}.c{fill:#231f20;}</style></defs><path class="a" d="M563.961,3229.7l-50,50.338-.3-.3.261-99.735Z" transform="translate(-482.824 -3165.437)"/><path class="b" d="M526.251,3229.824l-50,50.338-.3-.3.261-99.735Z" transform="translate(-475.955 -3165.46)"/><g transform="translate(38.156 69.584)"><rect class="c" width="2.706" height="2.706" transform="translate(62.11 54.134) rotate(-0.196)"/><rect class="c" width="2.706" height="2.706" transform="matrix(1, -0.003, 0.003, 1, 62.08, 45.113)"/><rect class="c" width="2.706" height="2.706" transform="matrix(1, -0.003, 0.003, 1, 62.049, 36.093)"/><rect class="c" width="2.706" height="2.706" transform="matrix(1, -0.003, 0.003, 1, 62.018, 27.072)"/><rect class="c" width="2.706" height="2.706" transform="matrix(1, -0.003, 0.003, 1, 61.988, 18.051)"/><rect class="c" width="2.706" height="2.706" transform="matrix(1, -0.003, 0.003, 1, 61.957, 9.03)"/><rect class="c" width="2.706" height="2.706" transform="matrix(1, -0.003, 0.003, 1, 61.926, 0.009)"/><rect class="c" width="2.706" height="2.706" transform="translate(53.089 54.165) rotate(-0.196)"/><rect class="c" width="2.706" height="2.706" transform="translate(53.059 45.144) rotate(-0.196)"/><rect class="c" width="2.706" height="2.706" transform="translate(53.028 36.123) rotate(-0.196)"/><rect class="c" width="2.706" height="2.706" transform="matrix(1, -0.003, 0.003, 1, 52.997, 27.102)"/><rect class="c" width="2.706" height="2.706" transform="translate(52.967 18.082) rotate(-0.196)"/><rect class="c" width="2.706" height="2.706" transform="matrix(1, -0.003, 0.003, 1, 52.936, 9.061)"/><rect class="c" width="2.706" height="2.706" transform="translate(52.911 1.865) rotate(-0.196)"/><rect class="c" width="2.706" height="2.706" transform="translate(44.069 54.196) rotate(-0.196)"/><rect class="c" width="2.706" height="2.706" transform="translate(44.038 45.175) rotate(-0.196)"/><rect class="c" width="2.706" height="2.706" transform="translate(44.007 36.154) rotate(-0.196)"/><rect class="c" width="2.706" height="2.706" transform="translate(43.977 27.133) rotate(-0.193)"/><rect class="c" width="2.706" height="2.706" transform="translate(43.946 18.112) rotate(-0.196)"/><rect class="c" width="2.706" height="2.706" transform="matrix(1, -0.003, 0.003, 1, 43.915, 9.092)"/><rect class="c" width="2.706" height="2.706" transform="translate(35.048 54.227) rotate(-0.196)"/><rect class="c" width="2.706" height="2.706" transform="translate(35.017 45.206) rotate(-0.196)"/><rect class="c" width="2.706" height="2.706" transform="translate(34.986 36.185) rotate(-0.196)"/><rect class="c" width="2.706" height="2.706" transform="matrix(1, -0.003, 0.003, 1, 34.956, 27.164)"/><rect class="c" width="2.706" height="2.706" transform="translate(34.925 18.143) rotate(-0.196)"/><rect class="c" width="2.706" height="2.706" transform="translate(26.027 54.257) rotate(-0.196)"/><rect class="c" width="2.706" height="2.706" transform="translate(25.996 45.236) rotate(-0.196)"/><rect class="c" width="2.706" height="2.706" transform="translate(25.965 36.216) rotate(-0.196)"/><rect class="c" width="2.706" height="2.706" transform="matrix(1, -0.003, 0.003, 1, 25.935, 27.195)"/><rect class="c" width="2.706" height="2.706" transform="matrix(1, -0.003, 0.003, 1, 17.006, 54.288)"/><rect class="c" width="2.706" height="2.706" transform="translate(16.975 45.267) rotate(-0.196)"/><rect class="c" width="2.706" height="2.706" transform="translate(16.944 36.246) rotate(-0.196)"/><rect class="c" width="2.706" height="2.706" transform="translate(7.985 54.319) rotate(-0.196)"/><rect class="c" width="2.706" height="2.706" transform="translate(0 54.346) rotate(-0.196)"/><rect class="c" width="2.706" height="2.706" transform="translate(7.954 45.298) rotate(-0.196)"/></g><g transform="translate(37.734 0)"><rect class="c" width="2.706" height="2.706" transform="matrix(1, -0.003, 0.003, 1, 62.111, 0.009)"/><rect class="c" width="2.706" height="2.706" transform="matrix(1, -0.003, 0.003, 1, 62.141, 9.03)"/><rect class="c" width="2.706" height="2.706" transform="matrix(1, -0.003, 0.003, 1, 62.172, 18.051)"/><rect class="c" width="2.706" height="2.706" transform="matrix(1, -0.003, 0.003, 1, 62.203, 27.072)"/><rect class="c" width="2.706" height="2.706" transform="matrix(1, -0.003, 0.003, 1, 62.234, 36.093)"/><rect class="c" width="2.706" height="2.706" transform="translate(62.264 45.114) rotate(-0.196)"/><rect class="c" width="2.706" height="2.706" transform="translate(62.295 54.134) rotate(-0.192)"/><rect class="c" width="2.706" height="2.706" transform="translate(53.09 0.04) rotate(-0.196)"/><rect class="c" width="2.706" height="2.706" transform="matrix(1, -0.003, 0.003, 1, 53.12, 9.061)"/><rect class="c" width="2.706" height="2.706" transform="translate(53.151 18.082) rotate(-0.196)"/><rect class="c" width="2.706" height="2.706" transform="translate(53.182 27.102) rotate(-0.196)"/><rect class="c" width="2.706" height="2.706" transform="translate(53.213 36.123) rotate(-0.196)"/><rect class="c" width="2.706" height="2.706" transform="translate(53.243 45.144) rotate(-0.196)"/><rect class="c" width="2.706" height="2.706" transform="translate(53.268 52.34) rotate(-0.196)"/><rect class="c" width="2.706" height="2.706" transform="translate(44.069 0.071) rotate(-0.196)"/><rect class="c" width="2.706" height="2.706" transform="translate(44.1 9.091) rotate(-0.193)"/><rect class="c" width="2.706" height="2.706" transform="translate(44.13 18.112) rotate(-0.196)"/><rect class="c" width="2.706" height="2.706" transform="translate(44.161 27.133) rotate(-0.196)"/><rect class="c" width="2.706" height="2.706" transform="translate(44.192 36.154) rotate(-0.196)"/><rect class="c" width="2.706" height="2.706" transform="translate(44.223 45.175) rotate(-0.196)"/><rect class="c" width="2.706" height="2.706" transform="translate(35.048 0.101) rotate(-0.196)"/><rect class="c" width="2.706" height="2.706" transform="matrix(1, -0.003, 0.003, 1, 35.079, 9.122)"/><rect class="c" width="2.706" height="2.706" transform="translate(35.109 18.143) rotate(-0.196)"/><rect class="c" width="2.706" height="2.706" transform="translate(35.14 27.164) rotate(-0.196)"/><rect class="c" width="2.706" height="2.706" transform="translate(35.171 36.185) rotate(-0.196)"/><rect class="c" width="2.706" height="2.706" transform="translate(26.027 0.132) rotate(-0.196)"/><rect class="c" width="2.706" height="2.706" transform="matrix(1, -0.003, 0.003, 1, 26.058, 9.153)"/><rect class="c" width="2.706" height="2.706" transform="translate(26.089 18.174) rotate(-0.196)"/><rect class="c" width="2.706" height="2.706" transform="translate(26.119 27.195) rotate(-0.196)"/><rect class="c" width="2.706" height="2.706" transform="translate(17.006 0.163) rotate(-0.196)"/><rect class="c" width="2.706" height="2.706" transform="matrix(1, -0.003, 0.003, 1, 17.037, 9.184)"/><rect class="c" width="2.706" height="2.706" transform="translate(17.068 18.205) rotate(-0.196)"/><rect class="c" width="2.706" height="2.706" transform="translate(7.985 0.194) rotate(-0.196)"/><rect class="c" width="2.706" height="2.706" transform="translate(0 0.221) rotate(-0.196)"/><rect class="c" width="2.706" height="2.706" transform="matrix(1, -0.003, 0.003, 1, 8.016, 9.214)"/></g></svg>