<svg xmlns="http://www.w3.org/2000/svg" width="27.338" height="144.614" viewBox="0 0 27.338 144.614"><ellipse cx="1.817" cy="1.817" rx="1.817" ry="1.817" transform="translate(0)"/><ellipse cx="1.817" cy="1.817" rx="1.817" ry="1.817" transform="translate(23.703)"/><ellipse cx="1.817" cy="1.817" rx="1.817" ry="1.817" transform="translate(0 23.497)"/><ellipse cx="1.817" cy="1.817" rx="1.817" ry="1.817" transform="translate(23.703 23.497)"/><path d="M521.156,3617.32a1.817,1.817,0,1,1-1.817-1.817A1.818,1.818,0,0,1,521.156,3617.32Z" transform="translate(-517.521 -3568.51)"/><path d="M550.138,3617.32a1.817,1.817,0,1,1-1.817-1.817A1.818,1.818,0,0,1,550.138,3617.32Z" transform="translate(-522.801 -3568.51)"/><path d="M521.156,3646.051a1.817,1.817,0,1,1-1.817-1.817A1.818,1.818,0,0,1,521.156,3646.051Z" transform="translate(-517.521 -3573.743)"/><path d="M550.138,3646.051a1.817,1.817,0,1,1-1.817-1.817A1.818,1.818,0,0,1,550.138,3646.051Z" transform="translate(-522.801 -3573.743)"/><ellipse cx="1.817" cy="1.817" rx="1.817" ry="1.817" transform="translate(0 93.987)"/><ellipse cx="1.817" cy="1.817" rx="1.817" ry="1.817" transform="translate(23.703 93.987)"/><ellipse cx="1.817" cy="1.817" rx="1.817" ry="1.817" transform="translate(0 117.483)"/><ellipse cx="1.817" cy="1.817" rx="1.817" ry="1.817" transform="translate(23.703 117.483)"/><path d="M521.156,3732.241a1.817,1.817,0,1,1-1.817-1.817A1.817,1.817,0,0,1,521.156,3732.241Z" transform="translate(-517.521 -3589.445)"/><path d="M550.138,3732.241a1.817,1.817,0,1,1-1.817-1.817A1.817,1.817,0,0,1,550.138,3732.241Z" transform="translate(-522.801 -3589.445)"/></svg>