<svg xmlns="http://www.w3.org/2000/svg" width="141.599" height="152.968" viewBox="0 0 141.599 152.968"><defs><style>.a{fill:#253bd8;}.b{fill:#fff;}</style></defs><ellipse class="a" cx="48.07" cy="48.07" rx="48.07" ry="48.07" transform="translate(45.458)"/><g transform="translate(0 66.592)"><path class="b" d="M414.925,2820.749a2.117,2.117,0,1,1-2.117-2.117A2.117,2.117,0,0,1,414.925,2820.749Z" transform="translate(-410.69 -2818.631)"/><path class="b" d="M448.7,2820.749a2.118,2.118,0,1,1-2.118-2.117A2.118,2.118,0,0,1,448.7,2820.749Z" transform="translate(-416.842 -2818.631)"/><path d="M482.472,2820.749a2.118,2.118,0,1,1-2.118-2.117A2.118,2.118,0,0,1,482.472,2820.749Z" transform="translate(-422.995 -2818.631)"/><path d="M516.245,2820.749a2.118,2.118,0,1,1-2.118-2.117A2.118,2.118,0,0,1,516.245,2820.749Z" transform="translate(-429.147 -2818.631)"/><path d="M414.925,2854.229a2.117,2.117,0,1,1-2.117-2.118A2.117,2.117,0,0,1,414.925,2854.229Z" transform="translate(-410.69 -2824.73)"/><path d="M448.7,2854.229a2.118,2.118,0,1,1-2.118-2.118A2.118,2.118,0,0,1,448.7,2854.229Z" transform="translate(-416.842 -2824.73)"/><path d="M482.472,2854.229a2.118,2.118,0,1,1-2.118-2.118A2.118,2.118,0,0,1,482.472,2854.229Z" transform="translate(-422.995 -2824.73)"/><path d="M516.245,2854.229a2.118,2.118,0,1,1-2.118-2.118A2.118,2.118,0,0,1,516.245,2854.229Z" transform="translate(-429.147 -2824.73)"/><path d="M414.925,2887.708a2.117,2.117,0,1,1-2.117-2.117A2.117,2.117,0,0,1,414.925,2887.708Z" transform="translate(-410.69 -2830.829)"/><path d="M448.7,2887.708a2.118,2.118,0,1,1-2.118-2.117A2.118,2.118,0,0,1,448.7,2887.708Z" transform="translate(-416.842 -2830.829)"/><path d="M482.472,2887.708a2.118,2.118,0,1,1-2.118-2.117A2.118,2.118,0,0,1,482.472,2887.708Z" transform="translate(-422.995 -2830.829)"/><path d="M516.245,2887.708a2.118,2.118,0,1,1-2.118-2.117A2.118,2.118,0,0,1,516.245,2887.708Z" transform="translate(-429.147 -2830.829)"/><path d="M414.925,2921.187a2.117,2.117,0,1,1-2.117-2.117A2.117,2.117,0,0,1,414.925,2921.187Z" transform="translate(-410.69 -2836.927)"/><path d="M448.7,2921.187a2.118,2.118,0,1,1-2.118-2.117A2.118,2.118,0,0,1,448.7,2921.187Z" transform="translate(-416.842 -2836.927)"/><path d="M482.472,2921.187a2.118,2.118,0,1,1-2.118-2.117A2.118,2.118,0,0,1,482.472,2921.187Z" transform="translate(-422.995 -2836.927)"/><path d="M516.245,2921.187a2.118,2.118,0,1,1-2.118-2.117A2.118,2.118,0,0,1,516.245,2921.187Z" transform="translate(-429.147 -2836.927)"/></g></svg>