<svg xmlns="http://www.w3.org/2000/svg" width="132.826" height="132.893" viewBox="0 0 132.826 132.893"><path d="M1629.4,3746.893h-.006a.277.277,0,0,1-.277-.277.285.285,0,0,1,.354-.267.288.288,0,0,1,.358.266.274.274,0,0,1-.275.277h-.005a.294.294,0,0,1-.073-.009A.329.329,0,0,1,1629.4,3746.893Zm-4.418-.145a.316.316,0,0,1-.073-.009.279.279,0,1,1,.073.009Zm8.986-.01a.277.277,0,0,1-.068-.546.287.287,0,0,1,.35.268.278.278,0,0,1-.25.276Zm-13.385-.427a.344.344,0,0,1-.073-.008.282.282,0,1,1,.073.008Zm17.783-.02a.277.277,0,0,1-.067-.546.286.286,0,0,1,.349.268.278.278,0,0,1-.25.277Zm-22.143-.71a.314.314,0,0,1-.056,0,.279.279,0,0,1-.227-.273.29.29,0,0,1,.37-.262.277.277,0,0,1-.087.541Zm26.5-.03a.278.278,0,1,1,.093-.015A.33.33,0,0,1,1642.728,3745.551Zm-30.875-1a.277.277,0,1,1,.134-.538Zm35.173-.029a.278.278,0,0,1-.067-.547.281.281,0,0,1,.336.191.275.275,0,0,1-.176.339l-.026.008A.315.315,0,0,1,1647.027,3744.522Zm-39.4-1.278a.277.277,0,0,1,.134-.538Zm43.616-.04a.277.277,0,0,1-.067-.546.281.281,0,0,1,.336.191.276.276,0,0,1-.176.34l-.026.007A.3.3,0,0,1,1651.247,3743.2Zm-47.675-1.542a.269.269,0,0,1-.087-.014.355.355,0,0,1-.071-.034.28.28,0,1,1,.159.048Zm51.79-.053a.277.277,0,0,1-.154-.508.363.363,0,0,1,.071-.035.277.277,0,0,1,.2.517A.281.281,0,0,1,1655.362,3741.608Zm-55.8-1.812a.265.265,0,0,1-.135-.035.277.277,0,0,1,.219-.508.371.371,0,0,1,.07.035.277.277,0,0,1-.154.508Zm59.8-.057a.277.277,0,0,1-.129-.523.277.277,0,0,1,.288.473.346.346,0,0,1-.07.035A.28.28,0,0,1,1659.363,3739.739Zm-63.684-2.073a.269.269,0,0,1-.134-.035.277.277,0,0,1,.218-.508.405.405,0,0,1,.071.035.277.277,0,0,1-.155.508Zm67.552-.061a.277.277,0,0,1-.13-.522.277.277,0,0,1,.289.473.362.362,0,0,1-.071.035A.269.269,0,0,1,1663.231,3737.605Zm-71.256-2.318a.317.317,0,0,1-.175-.052.418.418,0,0,1-.047-.038.277.277,0,0,1,.392-.393.255.255,0,0,1,.058.369A.267.267,0,0,1,1591.974,3735.288Zm74.975-.07a.277.277,0,0,1-.2-.474.454.454,0,0,1,.047-.038.277.277,0,0,1,.32.453A.279.279,0,0,1,1666.949,3735.218Zm-78.534-2.556a.319.319,0,0,1-.175-.052.3.3,0,0,1-.047-.038.277.277,0,0,1,.392-.393.255.255,0,0,1,.058.369A.27.27,0,0,1,1588.415,3732.662Zm82.085-.075a.277.277,0,0,1-.2-.473.323.323,0,0,1,.047-.038.277.277,0,0,1,.32.452A.273.273,0,0,1,1670.5,3732.587Zm-85.483-2.787a.275.275,0,0,1-.153-.047.316.316,0,0,1-.082-.081.279.279,0,1,1,.235.127Zm88.852-.074a.272.272,0,0,1-.154-.046.277.277,0,0,1-.077-.384.322.322,0,0,1,.082-.081.277.277,0,0,1,.336.439A.274.274,0,0,1,1673.87,3729.726Zm-92.032-3a.275.275,0,0,1-.194-.08l0,0a.277.277,0,0,1,.392-.392.278.278,0,0,1-.195.476Zm95.206-.077a.277.277,0,0,1-.2-.473.28.28,0,0,1,.394,0,.275.275,0,0,1,0,.39l0,0A.277.277,0,0,1,1677.043,3726.647Zm-98.17-3.2a.279.279,0,1,1,.15-.513.318.318,0,0,1,.08.082.277.277,0,0,1-.231.431Zm101.131-.084a.28.28,0,1,1,.235-.127.288.288,0,0,1-.081.081A.268.268,0,0,1,1680,3723.363Zm-103.872-3.383a.279.279,0,1,1,.193-.478.3.3,0,0,1,.037.047.277.277,0,0,1-.231.431Zm106.611-.09a.277.277,0,0,1-.2-.473.254.254,0,0,1,.369-.058.3.3,0,0,1,.061.4.352.352,0,0,1-.038.046A.277.277,0,0,1,1682.743,3719.89Zm-109.116-3.551a.277.277,0,0,1-.231-.124.378.378,0,0,1-.035-.07.279.279,0,1,1,.266.194Zm111.616-.1a.279.279,0,0,1-.263-.365.431.431,0,0,1,.035-.072.278.278,0,1,1,.228.437Zm-113.872-3.7a.278.278,0,0,1-.231-.124.38.38,0,0,1-.035-.071.278.278,0,1,1,.42.148A.281.281,0,0,1,1571.372,3712.541Zm116.124-.109a.271.271,0,0,1-.088-.014.278.278,0,0,1-.175-.351.319.319,0,0,1,.035-.071.277.277,0,1,1,.228.436Zm-118.121-3.83a.279.279,0,1,1,.229-.436.375.375,0,0,1,.034.07.279.279,0,0,1-.175.352A.308.308,0,0,1,1569.375,3708.6Zm120.113-.12a.281.281,0,1,1,.265-.195.383.383,0,0,1-.034.071A.278.278,0,0,1,1689.488,3708.481Zm-121.839-3.944a.279.279,0,1,1,.229-.436.343.343,0,0,1,.034.071.278.278,0,0,1-.176.351A.291.291,0,0,1,1567.649,3704.538Zm123.562-.133a.278.278,0,0,1-.248-.4.264.264,0,0,1,.344-.16.291.291,0,0,1,.169.366c0,.012-.011.03-.017.042A.279.279,0,0,1,1691.21,3704.4ZM1566.2,3700.36a.274.274,0,0,1-.261-.187l-.007-.026a.277.277,0,0,1,.538-.134.28.28,0,0,1-.191.336A.3.3,0,0,1,1566.2,3700.36Zm126.459-.141a.278.278,0,0,1-.269-.344l.539.134A.279.279,0,0,1,1692.655,3700.219Zm.265-.2h0Zm-127.89-3.925a.278.278,0,0,1-.263-.19.323.323,0,0,1-.016-.093.278.278,0,1,1,.366.269A.307.307,0,0,1,1565.03,3696.1Zm128.783-.147a.277.277,0,0,1-.277-.277.309.309,0,0,1,.016-.093.278.278,0,1,1,.262.371Zm-129.661-4.185a.278.278,0,0,1-.263-.19.328.328,0,0,1-.015-.093.278.278,0,1,1,.366.269A.283.283,0,0,1,1564.152,3691.767Zm130.53-.15a.277.277,0,0,1-.277-.277.327.327,0,0,1,.015-.093.278.278,0,1,1,.263.371Zm-131.115-4.232a.28.28,0,1,1,.268-.349.293.293,0,0,1,.009.072A.277.277,0,0,1,1563.566,3687.385Zm131.691-.15a.267.267,0,0,1-.067-.008.28.28,0,0,1,.068-.551h0a.277.277,0,0,1,.277.277.308.308,0,0,1-.009.072A.276.276,0,0,1,1695.257,3687.234Zm-131.985-4.262a.275.275,0,0,1-.277-.275v-.005a.277.277,0,1,1,.277.28Zm132.269-.149a.277.277,0,0,1-.277-.277.28.28,0,0,1,.277-.28.274.274,0,0,1,.277.275v.005A.276.276,0,0,1,1695.541,3682.823Zm-132.271-4.272a.275.275,0,0,1-.277-.275v-.006a.278.278,0,1,1,.277.281Zm132.264-.149a.278.278,0,1,1,.277-.282v0A.276.276,0,0,1,1695.533,3678.4Zm-131.975-4.259h0a.277.277,0,0,1-.277-.277.353.353,0,0,1,.008-.073.278.278,0,1,1,.269.35Zm131.677-.151a.278.278,0,0,1-.269-.21.3.3,0,0,1-.008-.073.277.277,0,1,1,.344.275A.262.262,0,0,1,1695.235,3673.991Zm-131.1-4.232a.271.271,0,0,1-.088-.014.28.28,0,1,1,.366-.268.294.294,0,0,1-.016.093A.277.277,0,0,1,1564.139,3669.759Zm130.506-.149a.28.28,0,1,1,.262-.371.3.3,0,0,1,.016.093A.277.277,0,0,1,1694.645,3669.611Zm-129.632-4.184a.292.292,0,0,1-.088-.014.28.28,0,1,1,.366-.269.325.325,0,0,1-.015.093A.278.278,0,0,1,1565.012,3665.427Zm128.749-.147a.28.28,0,1,1,.262-.37.334.334,0,0,1,.015.093A.276.276,0,0,1,1693.761,3665.279Zm-1.172-4.262a.279.279,0,0,1-.079-.546.274.274,0,0,1,.34.176l.007.026a.278.278,0,0,1-.2.336A.272.272,0,0,1,1692.589,3661.017Zm-126.144-.071-.538-.135a.277.277,0,1,1,.538.135Zm1.181-3.951a.319.319,0,0,1-.1-.016.291.291,0,0,1-.168-.366.266.266,0,0,1,.017-.042.277.277,0,0,1,.5.248A.254.254,0,0,1,1567.626,3656.995Zm123.508-.151a.28.28,0,0,1-.249-.153.3.3,0,0,1,.167-.372.261.261,0,0,1,.338.141.279.279,0,0,1-.132.355A.271.271,0,0,1,1691.134,3656.843Zm-121.783-3.942a.29.29,0,0,1-.088-.014.278.278,0,0,1-.176-.351.378.378,0,0,1,.034-.072.278.278,0,0,1,.483.271A.277.277,0,0,1,1569.351,3652.9Zm120.051-.12a.278.278,0,0,1-.23-.124.363.363,0,0,1-.034-.071.279.279,0,1,1,.265.194Zm-118.054-3.829a.283.283,0,0,1-.154-.047.28.28,0,1,1,.42-.148.357.357,0,0,1-.035.071A.278.278,0,0,1,1571.347,3648.952Zm116.055-.109a.281.281,0,0,1-.156-.513.276.276,0,0,1,.384.077.377.377,0,0,1,.035.071.278.278,0,0,1-.176.351A.265.265,0,0,1,1687.4,3648.843Zm-113.8-3.7a.28.28,0,1,1,.266-.194.364.364,0,0,1-.035.07A.276.276,0,0,1,1573.6,3645.146Zm111.538-.1a.279.279,0,1,1,.227-.436.316.316,0,0,1,.035.071.275.275,0,0,1-.263.365Zm-109.038-3.522a.3.3,0,0,1-.165-.053.3.3,0,0,1-.061-.4.3.3,0,0,1,.038-.046.277.277,0,1,1,.393.392A.241.241,0,0,1,1576.1,3641.525Zm106.528-.116a.278.278,0,0,1-.2-.081.425.425,0,0,1-.038-.047.279.279,0,1,1,.234.127Zm-103.784-3.38a.284.284,0,0,1-.154-.047.279.279,0,0,1-.077-.385.32.32,0,0,1,.081-.081.278.278,0,1,1,.15.513Zm101.039-.083a.272.272,0,0,1-.154-.047.3.3,0,0,1-.081-.081.278.278,0,1,1,.234.128Zm-98.072-3.2a.276.276,0,0,1-.2-.47l0,0a.277.277,0,1,1,.392.393A.283.283,0,0,1,1581.816,3634.745Zm95.1-.074a.275.275,0,0,1-.2-.082.281.281,0,0,1,0-.394.277.277,0,0,1,.391,0l0,0a.278.278,0,0,1-.2.473Zm-91.926-3a.28.28,0,1,1,.234-.128.3.3,0,0,1-.081.081A.278.278,0,0,1,1584.992,3631.673Zm88.745-.073a.279.279,0,1,1,.15-.512.32.32,0,0,1,.081.081.277.277,0,0,1-.077.385A.281.281,0,0,1,1673.737,3631.6Zm-85.372-2.785a.281.281,0,1,1,.2-.084.326.326,0,0,1-.047.038A.278.278,0,0,1,1588.364,3628.815Zm81.993-.069a.276.276,0,0,1-.2-.081.255.255,0,0,1-.058-.369.3.3,0,0,1,.4-.061.346.346,0,0,1,.047.038.277.277,0,0,1-.2.473Zm-78.438-2.558a.287.287,0,1,1,.153-.047A.272.272,0,0,1,1591.919,3626.189Zm74.877-.064a.277.277,0,0,1-.2-.081.256.256,0,0,1-.058-.369.3.3,0,0,1,.4-.061.338.338,0,0,1,.047.038.277.277,0,0,1-.2.474Zm-71.156-2.319a.277.277,0,0,1-.155-.508.32.32,0,0,1,.071-.035.278.278,0,1,1,.083.543Zm67.428-.061a.278.278,0,0,1-.088-.014.339.339,0,0,1-.07-.035.278.278,0,1,1,.159.049Zm-63.558-2.067a.277.277,0,0,1-.155-.508.333.333,0,0,1,.071-.035.277.277,0,0,1,.218.508A.273.273,0,0,1,1599.509,3621.677Zm59.677-.058a.273.273,0,0,1-.088-.014.371.371,0,0,1-.071-.035.279.279,0,1,1,.159.049Zm-55.674-1.807a.28.28,0,1,1,.159-.048.354.354,0,0,1-.071.034A.273.273,0,0,1,1603.512,3619.812Zm51.658-.053a.282.282,0,0,1-.117-.025.278.278,0,0,1,.2-.518.326.326,0,0,1,.071.035.277.277,0,0,1-.154.508Zm-47.537-1.539a.279.279,0,0,1-.268-.2.274.274,0,0,1,.176-.34l.026-.008a.278.278,0,0,1,.134.539A.331.331,0,0,1,1607.633,3618.219Zm43.4-.048a.32.32,0,0,1-.067-.008l.135-.538a.277.277,0,0,1-.068.546Zm-39.182-1.265a.279.279,0,0,1-.268-.2.274.274,0,0,1,.176-.34l.025-.008a.278.278,0,1,1,.135.538A.275.275,0,0,1,1611.855,3616.906Zm34.957-.039a.278.278,0,0,1-.067-.008l.135-.538a.277.277,0,0,1-.068.546Zm-30.662-.985a.277.277,0,0,1-.088-.541.288.288,0,0,1,.371.263.279.279,0,0,1-.227.273A.321.321,0,0,1,1616.15,3615.882Zm26.36-.03a.328.328,0,0,1-.092-.015.279.279,0,1,1,.092.015Zm-22-.706a.277.277,0,0,1-.026-.553.277.277,0,0,1,.1.545A.311.311,0,0,1,1620.509,3615.147Zm17.641-.02h-.032a.277.277,0,0,1-.251-.276.287.287,0,0,1,.35-.268.277.277,0,0,1-.067.546Zm-13.242-.423a.277.277,0,1,1,.073-.008A.312.312,0,0,1,1624.907,3614.7Zm8.843-.01-.032,0a.277.277,0,0,1-.25-.276.289.289,0,0,1,.35-.268.277.277,0,0,1-.068.546Zm-4.418-.14a.279.279,0,0,1-.28-.277.275.275,0,0,1,.274-.277h.006a.277.277,0,1,1,0,.554Z" transform="translate(-1562.992 -3614)"/><g transform="translate(4.932 4.995)"><path d="M1630.154,3742.7a.346.346,0,0,1,.349-.344h0a.377.377,0,0,1,.073.005h0a.314.314,0,0,1,.072-.005h0a.339.339,0,0,1,.349.344h0a.355.355,0,0,1-.349.349h0a.3.3,0,0,1-.072-.011h0a.313.313,0,0,1-.073.011h0A.348.348,0,0,1,1630.154,3742.7Zm-4.087.188h0a.347.347,0,0,1-.322-.371h0a.347.347,0,0,1,.371-.316h0a.34.34,0,0,1,.322.366h0a.352.352,0,0,1-.349.327h0C1626.082,3742.893,1626.077,3742.887,1626.067,3742.887Zm8.645-.326a.344.344,0,0,1,.322-.372h0a.347.347,0,0,1,.371.316h0a.345.345,0,0,1-.322.372h0a.035.035,0,0,1-.022,0h0A.35.35,0,0,1,1634.712,3742.561Zm-13.055-.145a.345.345,0,0,1-.294-.394h0a.344.344,0,0,1,.388-.293h0a.345.345,0,0,1,.294.394h0a.34.34,0,0,1-.339.294h-.05Zm17.448-.316a.345.345,0,0,1,.288-.394h0a.345.345,0,0,1,.393.293h0a.344.344,0,0,1-.288.394h-.05A.342.342,0,0,1,1639.1,3742.1Zm-21.818-.478a.347.347,0,0,1-.266-.41h0a.353.353,0,0,1,.416-.266h0a.344.344,0,0,1,.267.41h0a.354.354,0,0,1-.339.272h0A.35.35,0,0,1,1617.287,3741.623Zm26.159-.293a.353.353,0,0,1,.266-.417h0a.348.348,0,0,1,.411.267h0a.344.344,0,0,1-.261.411h0a.426.426,0,0,1-.078.011h0A.349.349,0,0,1,1643.447,3741.329Zm-30.457-.81v-.006h0a.342.342,0,0,1-.233-.427h0a.345.345,0,0,1,.432-.233h0a.344.344,0,0,1,.233.427h0a.35.35,0,0,1-.333.25h0A.683.683,0,0,1,1612.99,3740.52Zm34.733-.277a.349.349,0,0,1,.232-.434h0a.35.35,0,0,1,.433.234h0a.347.347,0,0,1-.233.432h0a.289.289,0,0,1-.1.012h0A.348.348,0,0,1,1647.723,3740.242Zm-38.944-1.142h0a.345.345,0,0,1-.2-.443h0a.346.346,0,0,1,.449-.205h0a.349.349,0,0,1,.2.449h0a.341.341,0,0,1-.322.221h0A.353.353,0,0,1,1608.779,3739.1Zm43.13-.25a.346.346,0,0,1,.205-.449h-.005a.348.348,0,0,1,.449.2h0a.349.349,0,0,1-.2.45h0a.318.318,0,0,1-.122.022h0A.354.354,0,0,1,1651.909,3738.85Zm-47.222-1.47h0a.348.348,0,0,1-.172-.46h0a.347.347,0,0,1,.46-.167h0a.345.345,0,0,1,.172.46h0a.356.356,0,0,1-.316.2h0A.316.316,0,0,1,1604.687,3737.38Zm51.3-.227a.343.343,0,0,1,.167-.461h0a.348.348,0,0,1,.46.172h0a.341.341,0,0,1-.166.455h0a.366.366,0,0,1-.15.033h0A.338.338,0,0,1,1655.986,3737.153Zm-55.259-1.786h0a.346.346,0,0,1-.133-.471h0a.346.346,0,0,1,.471-.133h0a.351.351,0,0,1,.139.471h0a.358.358,0,0,1-.3.177h0A.359.359,0,0,1,1600.727,3735.367Zm59.2-.194a.352.352,0,0,1,.133-.478h0a.349.349,0,0,1,.471.139h0a.348.348,0,0,1-.133.472h0a.375.375,0,0,1-.172.044h0A.341.341,0,0,1,1659.924,3735.173Zm-63-2.1a.355.355,0,0,1-.1-.483h0a.348.348,0,0,1,.482-.1h0a.342.342,0,0,1,.1.477h0a.343.343,0,0,1-.289.161h0A.379.379,0,0,1,1596.922,3733.076Zm66.783-.171a.347.347,0,0,1,.1-.478h0a.348.348,0,0,1,.483.1h0a.342.342,0,0,1-.1.477h0a.344.344,0,0,1-.188.056h0A.34.34,0,0,1,1663.705,3732.906Zm-70.41-2.391a.345.345,0,0,1-.066-.488h0a.344.344,0,0,1,.482-.067v.006a.338.338,0,0,1,.066.482h0a.346.346,0,0,1-.277.139h0A.322.322,0,0,1,1593.3,3730.514Zm74.026-.138a.347.347,0,0,1,.066-.488h0a.34.34,0,0,1,.482.067h0a.349.349,0,0,1-.06.487h0a.383.383,0,0,1-.211.072h0A.348.348,0,0,1,1667.322,3730.376Zm-77.464-2.678a.345.345,0,0,1-.029-.489h0a.345.345,0,0,1,.489-.028h0a.349.349,0,0,1,.033.488h0a.353.353,0,0,1-.261.116h0A.339.339,0,0,1,1589.858,3727.7Zm80.885-.106a.343.343,0,0,1,.033-.487h0a.345.345,0,0,1,.489.027h0a.35.35,0,0,1-.028.489h0a.339.339,0,0,1-.233.089h0A.354.354,0,0,1,1670.743,3727.592Zm-84.108-2.945h0a.349.349,0,0,1,0-.493h0a.348.348,0,0,1,.488,0h0a.355.355,0,0,1,0,.494h0a.354.354,0,0,1-.244.1h0A.361.361,0,0,1,1586.636,3724.647Zm87.324-.082a.348.348,0,0,1-.006-.488h0a.35.35,0,0,1,.493-.006h0a.342.342,0,0,1,0,.487h0a.325.325,0,0,1-.244.106h0A.345.345,0,0,1,1673.96,3724.564Zm.488-.007h.006l-.006.007h0Zm-90.807-3.189h0a.349.349,0,0,1,.038-.488h0a.349.349,0,0,1,.488.039h0a.345.345,0,0,1-.038.488h0a.336.336,0,0,1-.223.083h0A.343.343,0,0,1,1583.641,3721.369Zm93.308-.05a.348.348,0,0,1-.039-.487h0a.339.339,0,0,1,.488-.038h0a.344.344,0,0,1,.044.487h0a.354.354,0,0,1-.261.122h0A.343.343,0,0,1,1676.949,3721.319Zm-96.059-3.432a.35.35,0,0,1,.072-.482h0a.353.353,0,0,1,.487.078v-.006a.352.352,0,0,1-.078.488h0a.347.347,0,0,1-.2.066h0A.339.339,0,0,1,1580.891,3717.887Zm98.815-.022a.346.346,0,0,1-.078-.482h0a.346.346,0,0,1,.483-.078h0a.353.353,0,0,1,.078.488h0v-.006h0a.34.34,0,0,1-.283.145h0A.333.333,0,0,1,1679.705,3717.865Zm-101.311-3.644h0a.356.356,0,0,1,.11-.482h0a.35.35,0,0,1,.478.11h0a.343.343,0,0,1-.106.478h0a.341.341,0,0,1-.189.055h0A.342.342,0,0,1,1578.395,3714.221Zm103.8,0a.343.343,0,0,1-.106-.478h0a.348.348,0,0,1,.477-.11h0a.342.342,0,0,1,.105.477h0a.356.356,0,0,1-.3.167h0A.335.335,0,0,1,1682.2,3714.221Zm-106.019-3.838a.344.344,0,0,1,.138-.471h0a.347.347,0,0,1,.471.144h0a.342.342,0,0,1-.144.466h0a.333.333,0,0,1-.16.044h0A.337.337,0,0,1,1576.177,3710.383Zm108.249.028a.35.35,0,0,1-.144-.471h0a.341.341,0,0,1,.465-.144h0a.342.342,0,0,1,.144.466h0a.341.341,0,0,1-.305.189h0A.4.4,0,0,1,1684.425,3710.411Zm-110.19-4.021a.343.343,0,0,1,.178-.455h0a.343.343,0,0,1,.455.177h0a.343.343,0,0,1-.177.455h0a.3.3,0,0,1-.139.033h0A.341.341,0,0,1,1574.235,3706.39Zm112.131.05a.348.348,0,0,1-.177-.455h0a.348.348,0,0,1,.46-.177h0a.346.346,0,0,1,.177.455h0a.34.34,0,0,1-.322.205h0A.322.322,0,0,1,1686.366,3706.44Zm-113.778-4.165a.351.351,0,0,1,.211-.443h0a.343.343,0,0,1,.444.21h0a.348.348,0,0,1-.212.444h0a.348.348,0,0,1-.116.016h0A.357.357,0,0,1,1572.588,3702.275Zm115.431.067a.354.354,0,0,1-.211-.444h0a.355.355,0,0,1,.444-.21h0a.346.346,0,0,1,.211.443h0a.345.345,0,0,1-.327.233h0A.294.294,0,0,1,1688.019,3702.342Zm-116.767-4.3a.343.343,0,0,1,.239-.427h0a.346.346,0,0,1,.426.243h0a.35.35,0,0,1-.238.428h0a.575.575,0,0,1-.094.011h0A.338.338,0,0,1,1571.251,3698.044Zm118.12.094a.34.34,0,0,1-.244-.421h0a.344.344,0,0,1,.427-.243h0a.345.345,0,0,1,.239.427h0a.349.349,0,0,1-.333.255h0A.247.247,0,0,1,1689.371,3698.138Zm-119.151-4.409a.346.346,0,0,1,.271-.41h0a.344.344,0,0,1,.4.271h0a.34.34,0,0,1-.272.4h0a.259.259,0,0,1-.066.011h0A.348.348,0,0,1,1570.22,3693.729Zm120.189.123a.348.348,0,0,1-.272-.411v.006a.347.347,0,0,1,.4-.277h0a.348.348,0,0,1,.272.411h0a.344.344,0,0,1-.339.277h0A.264.264,0,0,1,1690.409,3693.852Zm-120.9-4.5a.342.342,0,0,1,.3-.389h0a.352.352,0,0,1,.388.3h0a.349.349,0,0,1-.3.388h-.045A.346.346,0,0,1,1569.5,3689.349Zm121.631.149a.349.349,0,0,1-.3-.388h0a.352.352,0,0,1,.388-.3h0a.343.343,0,0,1,.3.388h0a.347.347,0,0,1-.344.305h0C1691.163,3689.5,1691.147,3689.5,1691.135,3689.5Zm-122.03-4.57h0a.342.342,0,0,1,.327-.365h0a.351.351,0,0,1,.366.327h0a.351.351,0,0,1-.328.365h-.016A.351.351,0,0,1,1569.105,3684.928Zm122.44.177a.347.347,0,0,1-.333-.366h0a.351.351,0,0,1,.366-.327h0a.348.348,0,0,1,.327.366h0a.346.346,0,0,1-.344.327h-.016Zm-122.18-4.264a.352.352,0,0,1-.344-.356h0a.347.347,0,0,1,.355-.338h0a.348.348,0,0,1,.339.355h0a.343.343,0,0,1-.35.338Zm121.919-.489h0a.346.346,0,0,1,.339-.354h0a.347.347,0,0,1,.355.338h0a.347.347,0,0,1-.339.355h-.011A.349.349,0,0,1,1691.285,3680.352Zm-121.714-3.92a.349.349,0,0,1-.316-.378h0a.343.343,0,0,1,.377-.311h0a.348.348,0,0,1,.316.377v0a.349.349,0,0,1-.349.316h-.028Zm121.469-.46a.349.349,0,0,1,.317-.377h0a.347.347,0,0,1,.377.31h0a.344.344,0,0,1-.316.377h0c-.011,0-.017.006-.028.006h0A.355.355,0,0,1,1691.04,3675.972Zm-120.949-3.922a.342.342,0,0,1-.282-.4h0a.338.338,0,0,1,.393-.283h0a.342.342,0,0,1,.289.395v.006a.345.345,0,0,1-.339.288h0A.231.231,0,0,1,1570.092,3672.051Zm120.394-.433a.354.354,0,0,1,.289-.4h0a.345.345,0,0,1,.4.289h0a.345.345,0,0,1-.288.393h0a.182.182,0,0,1-.056.006h0A.352.352,0,0,1,1690.486,3671.618Zm-119.557-3.9a.349.349,0,0,1-.255-.416h0a.348.348,0,0,1,.416-.261h0a.347.347,0,0,1,.261.415h0a.349.349,0,0,1-.339.267h0A.4.4,0,0,1,1570.929,3667.719Zm118.692-.4h-.006a.348.348,0,0,1,.261-.416h0a.348.348,0,0,1,.415.255h0a.345.345,0,0,1-.255.416h0a.207.207,0,0,1-.083.011h0A.338.338,0,0,1,1689.621,3667.314Zm-117.538-3.854a.353.353,0,0,1-.227-.438h0a.353.353,0,0,1,.438-.227h0a.352.352,0,0,1,.227.438h0a.355.355,0,0,1-.332.238h0A.583.583,0,0,1,1572.083,3663.46Zm116.356-.371h0a.345.345,0,0,1,.228-.433h0a.34.34,0,0,1,.432.222h0a.35.35,0,0,1-.222.438h0a.355.355,0,0,1-.105.016h0A.345.345,0,0,1,1688.44,3663.089Zm-114.9-3.8a.348.348,0,0,1-.195-.449h0a.349.349,0,0,1,.455-.194h0a.342.342,0,0,1,.189.449h0a.341.341,0,0,1-.322.222h0A.379.379,0,0,1,1573.542,3659.284Zm113.417-.327a.343.343,0,0,1,.188-.449h0a.353.353,0,0,1,.456.194h0a.351.351,0,0,1-.195.449h0a.374.374,0,0,1-.128.028h0A.34.34,0,0,1,1686.959,3658.957Zm-111.66-3.727a.344.344,0,0,1-.16-.46h0a.351.351,0,0,1,.465-.161h0a.345.345,0,0,1,.161.46h0a.343.343,0,0,1-.311.2h0A.307.307,0,0,1,1575.3,3655.23Zm109.879-.277h0a.35.35,0,0,1,.161-.466h0a.351.351,0,0,1,.465.161h0a.35.35,0,0,1-.16.466h0a.366.366,0,0,1-.15.033h0A.349.349,0,0,1,1685.179,3654.953Zm-107.827-3.633a.347.347,0,0,1-.128-.477h0a.342.342,0,0,1,.471-.122h0a.345.345,0,0,1,.128.472h0a.353.353,0,0,1-.3.171h0A.357.357,0,0,1,1577.352,3651.32Zm105.764-.238a.346.346,0,0,1,.128-.472h0a.339.339,0,0,1,.472.123h0a.346.346,0,0,1-.122.477h0a.415.415,0,0,1-.178.044h0A.351.351,0,0,1,1683.116,3651.082Zm-103.44-3.516a.35.35,0,0,1-.094-.482h0a.347.347,0,0,1,.483-.094h0a.347.347,0,0,1,.089.481h0a.334.334,0,0,1-.284.151h0A.345.345,0,0,1,1579.675,3647.566Zm101.105-.194h0a.347.347,0,0,1,.089-.482h0a.346.346,0,0,1,.483.089h0a.351.351,0,0,1-.089.483h0a.327.327,0,0,1-.2.061h0A.359.359,0,0,1,1680.781,3647.372Zm-98.521-3.383a.352.352,0,0,1-.056-.489h0a.352.352,0,0,1,.489-.06h0a.346.346,0,0,1,.055.487h0a.34.34,0,0,1-.272.134h0A.365.365,0,0,1,1582.26,3643.989Zm95.921-.156a.339.339,0,0,1,.056-.482h0a.34.34,0,0,1,.488.056h0a.351.351,0,0,1-.056.488h0a.35.35,0,0,1-.216.072h0A.34.34,0,0,1,1678.18,3643.833Zm-93.08-3.228a.348.348,0,0,1-.023-.488h0a.346.346,0,0,1,.494-.022h0a.349.349,0,0,1,.022.488h-.006a.347.347,0,0,1-.255.111h0A.336.336,0,0,1,1585.1,3640.605Zm90.236-.11h0a.343.343,0,0,1,.016-.488h0a.35.35,0,0,1,.494.022h0a.344.344,0,0,1-.023.488h0a.343.343,0,0,1-.232.088h0A.327.327,0,0,1,1675.336,3640.5Zm-87.158-3.056a.35.35,0,0,1,.011-.493h0a.343.343,0,0,1,.488.01h0a.35.35,0,0,1-.011.494h0a.362.362,0,0,1-.238.094h0A.331.331,0,0,1,1588.177,3637.439Zm84.074-.072a.344.344,0,0,1-.011-.488h0a.349.349,0,0,1,.488-.016h0a.356.356,0,0,1,.016.494h0a.353.353,0,0,1-.255.1h0A.333.333,0,0,1,1672.252,3637.367Zm-80.786-2.867a.345.345,0,0,1,.05-.488h0a.349.349,0,0,1,.487.044h0a.344.344,0,0,1-.05.488h0a.342.342,0,0,1-.221.077h0A.336.336,0,0,1,1591.466,3634.5Zm77.491-.027v-.006a.338.338,0,0,1-.049-.483h0a.343.343,0,0,1,.488-.05h0a.345.345,0,0,1,.05.488h0a.344.344,0,0,1-.271.127h0A.38.38,0,0,1,1668.957,3634.473Zm-74-2.674a.347.347,0,0,1,.083-.483h0v.006h0a.341.341,0,0,1,.482.078h0a.352.352,0,0,1-.083.487h0a.363.363,0,0,1-.2.061h0A.341.341,0,0,1,1594.96,3631.8Zm70.5.016h.007a.343.343,0,0,1-.089-.483h0a.347.347,0,0,1,.482-.083h0a.346.346,0,0,1,.088.483h0a.359.359,0,0,1-.288.145h0A.336.336,0,0,1,1665.458,3631.816Zm-66.821-2.451a.35.35,0,0,1,.117-.477h0v0h0a.344.344,0,0,1,.476.117h0a.338.338,0,0,1-.116.472h0a.349.349,0,0,1-.177.05h0A.344.344,0,0,1,1598.637,3629.365Zm63.144.055h0a.35.35,0,0,1-.116-.477h0a.343.343,0,0,1,.477-.116h0v-.007h0a.351.351,0,0,1,.117.478h0a.353.353,0,0,1-.3.172h0A.347.347,0,0,1,1661.781,3629.42Zm-59.3-2.219a.348.348,0,0,1,.155-.465h0a.345.345,0,0,1,.466.15h0a.349.349,0,0,1-.155.466h0a.306.306,0,0,1-.155.038h0A.341.341,0,0,1,1602.48,3627.2Zm55.458.089v.006a.35.35,0,0,1-.15-.472h0a.342.342,0,0,1,.46-.15h0a.35.35,0,0,1,.155.466h0a.345.345,0,0,1-.311.189h0A.322.322,0,0,1,1657.938,3627.291Zm-51.47-1.969a.348.348,0,0,1,.189-.455h0a.343.343,0,0,1,.454.182h0a.35.35,0,0,1-.188.456h0a.387.387,0,0,1-.133.027h0A.354.354,0,0,1,1606.467,3625.322Zm47.483.127a.345.345,0,0,1-.188-.449h0a.351.351,0,0,1,.455-.188h0a.35.35,0,0,1,.189.455h0a.351.351,0,0,1-.322.211h0A.282.282,0,0,1,1653.95,3625.448Zm-43.368-1.713a.343.343,0,0,1,.217-.438h0a.343.343,0,0,1,.438.217h0a.343.343,0,0,1-.217.438h0a.368.368,0,0,1-.11.016h0A.345.345,0,0,1,1610.582,3623.735Zm39.259.166h0a.345.345,0,0,1-.222-.438h0a.347.347,0,0,1,.438-.217h0a.346.346,0,0,1,.222.438h0a.357.357,0,0,1-.332.239h0A.236.236,0,0,1,1649.841,3623.9Zm-35.033-1.453a.345.345,0,0,1,.245-.421h0a.345.345,0,0,1,.421.249h0a.344.344,0,0,1-.244.421h0a.251.251,0,0,1-.088.011h0A.345.345,0,0,1,1614.808,3622.449Zm30.824.211a.347.347,0,0,1-.255-.422h0a.357.357,0,0,1,.427-.249h0a.354.354,0,0,1,.25.422h0a.349.349,0,0,1-.339.26h0A.227.227,0,0,1,1645.632,3622.66Zm-26.52-1.181a.343.343,0,0,1,.277-.405h0a.351.351,0,0,1,.4.277h0a.352.352,0,0,1-.283.406h0a.26.26,0,0,1-.061,0h0A.339.339,0,0,1,1619.112,3621.479Zm22.228.249a.343.343,0,0,1-.277-.4h0a.35.35,0,0,1,.4-.282h0a.346.346,0,0,1,.277.4h0a.344.344,0,0,1-.338.284h0A.23.23,0,0,1,1641.34,3621.728Zm-17.869-.909a.342.342,0,0,1,.311-.383h0a.348.348,0,0,1,.382.306h0a.348.348,0,0,1-.31.382h-.034A.347.347,0,0,1,1623.471,3620.818Zm13.526.289h0a.344.344,0,0,1-.305-.383h0a.34.34,0,0,1,.377-.305h0a.34.34,0,0,1,.311.377h0a.353.353,0,0,1-.344.317h0C1637.025,3621.113,1637.014,3621.107,1637,3621.107Zm-9.123-.632a.339.339,0,0,1,.333-.36h0a.354.354,0,0,1,.361.332h0a.352.352,0,0,1-.339.36h-.011A.347.347,0,0,1,1627.874,3620.475Zm4.747.327a.347.347,0,0,1-.338-.36h0a.355.355,0,0,1,.361-.334h0a.346.346,0,0,1,.333.361h0a.348.348,0,0,1-.344.333h-.011Z" transform="translate(-1569.022 -3620.108)"/></g><g transform="translate(9.884 9.915)"><path d="M1631.672,3739.175a.251.251,0,0,1-.066.006h0a.41.41,0,0,1-.415-.411h0a.412.412,0,0,1,.415-.416h0a.261.261,0,0,1,.066.006h0a.284.284,0,0,1,.073-.01h0a.419.419,0,0,1,.416.416h0a.416.416,0,0,1-.416.416h0A.334.334,0,0,1,1631.672,3739.175Zm-4.5-.167.005.007h0a.414.414,0,0,1-.383-.45h0a.416.416,0,0,1,.443-.383h0a.421.421,0,0,1,.384.449h0a.417.417,0,0,1-.411.384h0A.088.088,0,0,1,1627.17,3739.008Zm8.562-.388a.409.409,0,0,1,.377-.449h0a.417.417,0,0,1,.45.383h0a.421.421,0,0,1-.383.449h-.034A.417.417,0,0,1,1635.732,3738.62Zm-12.966-.122h0a.421.421,0,0,1-.349-.477h0a.422.422,0,0,1,.477-.349h0a.422.422,0,0,1,.35.476h0a.423.423,0,0,1-.411.355h0C1622.81,3738.5,1622.788,3738.5,1622.766,3738.5Zm17.341-.372a.414.414,0,0,1,.344-.476v0a.414.414,0,0,1,.477.344h0a.413.413,0,0,1-.343.476h0c-.022,0-.045.007-.067.007h0A.418.418,0,0,1,1640.107,3738.126Zm-21.695-.493h0a.419.419,0,0,1-.311-.5h0a.419.419,0,0,1,.5-.3h0a.41.41,0,0,1,.305.5h0a.414.414,0,0,1-.4.316h0A.306.306,0,0,1,1618.412,3737.633Zm26.021-.339a.41.41,0,0,1,.305-.5h0a.419.419,0,0,1,.5.3h0a.414.414,0,0,1-.311.5h0v.006h0a.48.48,0,0,1-.094.01h0A.413.413,0,0,1,1644.433,3737.294Zm-30.291-.859a.414.414,0,0,1-.267-.527h0a.413.413,0,0,1,.522-.266h0a.414.414,0,0,1,.266.521h0a.41.41,0,0,1-.394.289h0A.452.452,0,0,1,1614.143,3736.435Zm34.533-.31a.426.426,0,0,1,.267-.528h0a.423.423,0,0,1,.527.267h0a.418.418,0,0,1-.266.526h0a.374.374,0,0,1-.128.022h0A.423.423,0,0,1,1648.676,3736.125Zm-38.7-1.226h0a.415.415,0,0,1-.222-.544h0a.412.412,0,0,1,.543-.227h0a.417.417,0,0,1,.223.544h0a.414.414,0,0,1-.383.255h0A.548.548,0,0,1,1609.972,3734.9Zm42.841-.277a.414.414,0,0,1,.227-.544h0a.417.417,0,0,1,.544.222h0a.415.415,0,0,1-.227.543h0a.4.4,0,0,1-.155.034h0A.415.415,0,0,1,1652.813,3734.622Zm-46.873-1.587h0a.414.414,0,0,1-.177-.56h0a.414.414,0,0,1,.56-.183h0a.419.419,0,0,1,.177.56h0a.411.411,0,0,1-.371.227h0A.39.39,0,0,1,1605.94,3733.035Zm50.877-.238a.421.421,0,0,1,.183-.56h0a.416.416,0,0,1,.56.183h0a.422.422,0,0,1-.177.561h0a.475.475,0,0,1-.194.044h0A.425.425,0,0,1,1656.817,3732.8Zm-54.748-1.936h0a.421.421,0,0,1-.139-.571h0a.428.428,0,0,1,.577-.139h0a.42.42,0,0,1,.133.577h0a.409.409,0,0,1-.354.194h0A.383.383,0,0,1,1602.069,3730.861Zm58.6-.2a.415.415,0,0,1,.133-.572h0a.421.421,0,0,1,.577.133h0a.426.426,0,0,1-.139.576h0a.433.433,0,0,1-.216.061h0A.418.418,0,0,1,1660.672,3730.662Zm-62.29-2.268a.418.418,0,0,1-.094-.583h0a.417.417,0,0,1,.582-.089h0a.411.411,0,0,1,.095.577h0a.41.41,0,0,1-.339.172h0A.391.391,0,0,1,1598.381,3728.394Zm65.961-.161a.411.411,0,0,1,.094-.576h0a.4.4,0,0,1,.577.088h0a.412.412,0,0,1-.088.583h0a.438.438,0,0,1-.244.078h0A.425.425,0,0,1,1664.343,3728.233Zm-69.45-2.59a.419.419,0,0,1-.044-.587h0a.419.419,0,0,1,.588-.045h0a.42.42,0,0,1,.044.588h0a.422.422,0,0,1-.316.144h0A.431.431,0,0,1,1594.892,3725.643Zm72.922-.116a.42.42,0,0,1,.044-.588h.006a.408.408,0,0,1,.582.044h0a.413.413,0,0,1-.044.583h0a.387.387,0,0,1-.272.105h0A.423.423,0,0,1,1667.815,3725.527Zm-76.177-2.9a.418.418,0,0,1,0-.588h0a.408.408,0,0,1,.587,0h0a.418.418,0,0,1,0,.588h0a.433.433,0,0,1-.294.122h0A.423.423,0,0,1,1591.638,3722.632Zm79.427-.083a.417.417,0,0,1,0-.587h0a.418.418,0,0,1,.588,0h0a.413.413,0,0,1,0,.587h0a.4.4,0,0,1-.294.122h0A.41.41,0,0,1,1671.065,3722.548Zm-82.438-3.177h-.006a.413.413,0,0,1,.05-.583h0a.415.415,0,0,1,.588.044h0a.414.414,0,0,1-.05.583h0a.391.391,0,0,1-.267.105h0A.393.393,0,0,1,1588.626,3719.371Zm85.449-.039a.416.416,0,0,1-.049-.588h0a.419.419,0,0,1,.588-.043h0a.416.416,0,0,1,.05.587h0a.425.425,0,0,1-.316.144h0A.412.412,0,0,1,1674.075,3719.332Zm-88.2-3.444a.415.415,0,0,1,.087-.577h0a.417.417,0,0,1,.583.089h0a.416.416,0,0,1-.089.582h0a.413.413,0,0,1-.244.077h0A.393.393,0,0,1,1585.876,3715.888Zm90.951,0a.416.416,0,0,1-.095-.582h0a.422.422,0,0,1,.582-.094h0a.417.417,0,0,1,.088.583h0a.405.405,0,0,1-.332.172h0A.387.387,0,0,1,1676.827,3715.888Zm-93.42-3.683a.411.411,0,0,1,.132-.571h0a.412.412,0,0,1,.572.133h0a.413.413,0,0,1-.133.571h0a.39.39,0,0,1-.217.061h0A.4.4,0,0,1,1583.408,3712.205Zm95.887.033a.42.42,0,0,1-.139-.571h0a.422.422,0,0,1,.576-.139h0a.414.414,0,0,1,.133.572h0a.411.411,0,0,1-.354.2h0A.431.431,0,0,1,1679.295,3712.239Zm-98.061-3.9a.416.416,0,0,1,.182-.559h0a.42.42,0,0,1,.56.183h0a.421.421,0,0,1-.183.56h0a.392.392,0,0,1-.188.045h0A.416.416,0,0,1,1581.234,3708.334Zm100.24.072a.415.415,0,0,1-.183-.559h0a.414.414,0,0,1,.56-.177h0a.408.408,0,0,1,.183.554h0a.425.425,0,0,1-.372.228h0A.389.389,0,0,1,1681.474,3708.406Zm-102.1-4.1a.414.414,0,0,1,.222-.543h0a.422.422,0,0,1,.543.227h0a.414.414,0,0,1-.227.544h0a.393.393,0,0,1-.155.033h0A.418.418,0,0,1,1579.376,3704.308Zm103.967.106a.418.418,0,0,1-.227-.543v0a.415.415,0,0,1,.543-.228h0a.411.411,0,0,1,.228.544h0a.415.415,0,0,1-.384.255h0A.427.427,0,0,1,1683.343,3704.414Zm-105.5-4.259h0a.413.413,0,0,1,.266-.527h0a.414.414,0,0,1,.521.266h0a.418.418,0,0,1-.266.526h0a.493.493,0,0,1-.128.017h0A.411.411,0,0,1,1577.84,3700.155Zm107.056.133a.412.412,0,0,1-.271-.522h0a.418.418,0,0,1,.521-.271h0a.418.418,0,0,1,.272.527h0a.415.415,0,0,1-.4.289h0A.317.317,0,0,1,1684.9,3700.288Zm-108.266-4.4a.425.425,0,0,1,.311-.506h0a.415.415,0,0,1,.5.312h0a.414.414,0,0,1-.3.5h0a.579.579,0,0,1-.1.011h0A.42.42,0,0,1,1576.63,3695.885Zm109.48.172a.425.425,0,0,1-.311-.5h0a.416.416,0,0,1,.5-.305h0a.411.411,0,0,1,.305.5h0a.419.419,0,0,1-.4.321h0A.6.6,0,0,1,1686.11,3696.056Zm-110.34-4.525h0a.412.412,0,0,1,.344-.478h0a.419.419,0,0,1,.478.344h0a.42.42,0,0,1-.349.477h0a.22.22,0,0,1-.061.006h0A.416.416,0,0,1,1575.771,3691.531Zm111.216.205a.407.407,0,0,1-.343-.472h0a.417.417,0,0,1,.471-.349h0a.423.423,0,0,1,.35.477h0a.417.417,0,0,1-.411.349h0A.323.323,0,0,1,1686.986,3691.737Zm-111.736-4.615a.415.415,0,0,1,.382-.444h0a.417.417,0,0,1,.45.383h0a.416.416,0,0,1-.383.444h-.034A.416.416,0,0,1,1575.25,3687.122Zm112.275.244a.416.416,0,0,1-.383-.444h0a.408.408,0,0,1,.444-.382h0a.408.408,0,0,1,.383.443h0a.413.413,0,0,1-.411.383h-.034Zm-112.447-4.676h0a.412.412,0,0,1,.416-.416h0a.415.415,0,0,1,.415.416h0a.418.418,0,0,1-.415.417h0A.415.415,0,0,1,1575.077,3682.69Zm112.226-.138a.416.416,0,0,1,.415-.416h0a.415.415,0,0,1,.416.416h0a.418.418,0,0,1-.416.415h0A.418.418,0,0,1,1687.3,3682.552Zm-111.676-3.849a.417.417,0,0,1-.383-.449h0a.416.416,0,0,1,.449-.383h0a.42.42,0,0,1,.383.449h0a.417.417,0,0,1-.416.383h-.033Zm111.5-.522a.416.416,0,0,1,.383-.449h0a.415.415,0,0,1,.443.383h0a.413.413,0,0,1-.377.45h-.034A.417.417,0,0,1,1687.125,3678.182Zm-111.022-3.859a.409.409,0,0,1-.344-.471h0a.413.413,0,0,1,.471-.349h0a.421.421,0,0,1,.349.476h0a.416.416,0,0,1-.41.349h0A.322.322,0,0,1,1576.1,3674.323Zm110.506-.483a.415.415,0,0,1,.344-.477h0a.421.421,0,0,1,.476.349h0a.414.414,0,0,1-.343.477h-.067A.416.416,0,0,1,1686.609,3673.84ZM1576.924,3670a.419.419,0,0,1-.31-.5h0a.419.419,0,0,1,.5-.31h0a.413.413,0,0,1,.305.5v.006a.415.415,0,0,1-.4.316h0A.311.311,0,0,1,1576.924,3670Zm108.832-.444h0a.413.413,0,0,1,.305-.5h0a.411.411,0,0,1,.5.3h.006a.428.428,0,0,1-.311.5h0a.693.693,0,0,1-.1.011h0A.413.413,0,0,1,1685.755,3669.552Zm-107.673-3.8a.414.414,0,0,1-.266-.527h0a.413.413,0,0,1,.521-.266h0a.418.418,0,0,1,.267.526h0a.416.416,0,0,1-.393.284h0A.472.472,0,0,1,1578.083,3665.748Zm106.48-.4h0a.414.414,0,0,1,.266-.527h0a.415.415,0,0,1,.522.266h0a.414.414,0,0,1-.266.527h0a.456.456,0,0,1-.128.022h0A.41.41,0,0,1,1684.563,3665.349Zm-104.988-3.749a.418.418,0,0,1-.227-.543h0a.414.414,0,0,1,.544-.228h0a.419.419,0,0,1,.227.544h0a.413.413,0,0,1-.382.255h0A.391.391,0,0,1,1579.575,3661.6Zm103.468-.349a.416.416,0,0,1,.222-.544h0a.415.415,0,0,1,.544.227h0a.417.417,0,0,1-.222.544h0a.421.421,0,0,1-.16.033h0A.419.419,0,0,1,1683.044,3661.251Zm-101.655-3.672a.418.418,0,0,1-.183-.559h0a.42.42,0,0,1,.561-.177h0a.413.413,0,0,1,.182.56h0a.417.417,0,0,1-.371.222h0A.39.39,0,0,1,1581.388,3657.579Zm99.814-.288a.415.415,0,0,1,.182-.56h0a.414.414,0,0,1,.56.177h0a.416.416,0,0,1-.183.56h0a.374.374,0,0,1-.188.045h0A.417.417,0,0,1,1681.2,3657.291Zm-97.684-3.572a.409.409,0,0,1-.139-.571h0a.419.419,0,0,1,.571-.139h0a.419.419,0,0,1,.138.571h0a.415.415,0,0,1-.354.2h0A.373.373,0,0,1,1583.519,3653.719Zm95.543-.239a.413.413,0,0,1,.133-.571h0a.409.409,0,0,1,.571.138h0a.415.415,0,0,1-.132.572h0a.439.439,0,0,1-.217.061h0A.409.409,0,0,1,1679.061,3653.48Zm-93.12-3.444a.407.407,0,0,1-.094-.577h0v-.006h0a.422.422,0,0,1,.583-.088h0a.422.422,0,0,1,.088.582h0a.419.419,0,0,1-.339.166h0A.384.384,0,0,1,1585.941,3650.037Zm90.681-.182h0a.416.416,0,0,1,.094-.582h0a.422.422,0,0,1,.582.088h-.006a.41.41,0,0,1-.089.582h0a.4.4,0,0,1-.244.078h0A.419.419,0,0,1,1676.622,3649.854Zm-87.979-3.294a.416.416,0,0,1-.05-.588h0a.421.421,0,0,1,.588-.05h0a.419.419,0,0,1,.044.587h0a.408.408,0,0,1-.316.151h0A.411.411,0,0,1,1588.642,3646.56Zm85.267-.133h0a.42.42,0,0,1,.045-.588h0a.42.42,0,0,1,.588.044h0a.416.416,0,0,1-.045.588h0a.42.42,0,0,1-.271.1h0A.425.425,0,0,1,1673.909,3646.427ZM1591.6,3643.3a.417.417,0,0,1,0-.587h0a.418.418,0,0,1,.588,0h0a.409.409,0,0,1,0,.587h0a.394.394,0,0,1-.295.123h0A.411.411,0,0,1,1591.6,3643.3Zm79.333-.078a.424.424,0,0,1,0-.593h0a.417.417,0,0,1,.587,0h0a.418.418,0,0,1,0,.588h0a.413.413,0,0,1-.294.122h0A.427.427,0,0,1,1670.937,3643.221Zm-76.122-2.939a.42.42,0,0,1,.044-.588h0a.421.421,0,0,1,.588.045h0a.42.42,0,0,1-.044.588h0a.435.435,0,0,1-.272.1h0A.422.422,0,0,1,1594.815,3640.281Zm72.905-.027h0a.419.419,0,0,1-.043-.588h0a.419.419,0,0,1,.587-.045h0a.411.411,0,0,1,.05.583h0a.411.411,0,0,1-.316.15h0A.43.43,0,0,1,1667.72,3640.255Zm-69.472-2.729a.417.417,0,0,1,.094-.582h0a.419.419,0,0,1,.582.095h0a.41.41,0,0,1-.094.576h0a.4.4,0,0,1-.244.083h0A.424.424,0,0,1,1598.248,3637.525Zm66.039.023a.419.419,0,0,1-.094-.583h0a.416.416,0,0,1,.582-.088h0v-.006h0a.423.423,0,0,1,.094.582h0a.408.408,0,0,1-.339.172h0A.392.392,0,0,1,1664.287,3637.548Zm-62.4-2.5a.419.419,0,0,1,.133-.576h0a.419.419,0,0,1,.571.138h0a.414.414,0,0,1-.133.572h0a.391.391,0,0,1-.216.061h0A.407.407,0,0,1,1601.891,3635.047Zm58.757.072a.412.412,0,0,1-.138-.571h0a.417.417,0,0,1,.572-.139h0a.421.421,0,0,1,.138.571h0a.406.406,0,0,1-.355.2h0A.383.383,0,0,1,1660.649,3635.119Zm-54.936-2.262a.417.417,0,0,1,.177-.561h0v.007h0a.414.414,0,0,1,.56.177h0a.419.419,0,0,1-.178.561h0a.388.388,0,0,1-.189.044h0A.411.411,0,0,1,1605.712,3632.856Zm51.116.127a.414.414,0,0,1-.178-.559h0a.408.408,0,0,1,.555-.183h0a.416.416,0,0,1,.183.56h0a.417.417,0,0,1-.371.227h0A.466.466,0,0,1,1656.828,3632.983Zm-47.14-2a.419.419,0,0,1,.227-.543h0a.415.415,0,0,1,.544.223h0a.416.416,0,0,1-.222.543h0a.442.442,0,0,1-.161.033h0A.416.416,0,0,1,1609.689,3630.981Zm43.169.173h0a.416.416,0,0,1-.223-.544h0a.416.416,0,0,1,.544-.222h0v0h0a.415.415,0,0,1,.222.543h0a.413.413,0,0,1-.383.26h0A.391.391,0,0,1,1652.857,3631.154Zm-39.048-1.73a.414.414,0,0,1,.266-.527h0a.414.414,0,0,1,.521.267h0a.413.413,0,0,1-.266.527h0a.516.516,0,0,1-.128.021h0A.418.418,0,0,1,1613.809,3629.423Zm34.939.222a.411.411,0,0,1-.266-.522h0a.415.415,0,0,1,.521-.272h0a.419.419,0,0,1,.267.527h0a.416.416,0,0,1-.393.289h0A.371.371,0,0,1,1648.748,3629.646Zm-30.712-1.453a.415.415,0,0,1,.311-.5h0v-.005h0a.417.417,0,0,1,.5.31h0a.411.411,0,0,1-.305.5h0a.318.318,0,0,1-.1.011h0A.42.42,0,0,1,1618.035,3628.192Zm26.5.277h0a.422.422,0,0,1-.31-.5h0a.421.421,0,0,1,.5-.311h0a.416.416,0,0,1,.311.5h0a.42.42,0,0,1-.4.321h0A.53.53,0,0,1,1644.538,3628.469Zm-22.189-1.17a.416.416,0,0,1,.344-.478h0a.42.42,0,0,1,.477.35h0a.406.406,0,0,1-.344.471h0a.256.256,0,0,1-.067.006h0A.416.416,0,0,1,1622.35,3627.3Zm17.9.327a.413.413,0,0,1-.343-.477h0a.414.414,0,0,1,.471-.35h0a.423.423,0,0,1,.349.478h0a.415.415,0,0,1-.41.349h-.066Zm-13.526-.877a.414.414,0,0,1,.383-.449h0a.415.415,0,0,1,.443.383h0a.412.412,0,0,1-.376.449h-.034A.417.417,0,0,1,1626.72,3626.75Zm9.184.372h0a.415.415,0,0,1-.383-.444h0a.419.419,0,0,1,.449-.389h0a.425.425,0,0,1,.383.45h0a.418.418,0,0,1-.416.383h-.033Zm-4.787-.577a.421.421,0,0,1,.416-.421h0a.415.415,0,0,1,.415.416h0a.411.411,0,0,1-.415.415h0A.414.414,0,0,1,1631.118,3626.544Z" transform="translate(-1575.077 -3626.123)"/></g><g transform="translate(14.853 14.917)"><path d="M1632.224,3734.854a.492.492,0,0,1,.488-.488v.006h.056c.017,0,.039-.006.061-.006h0a.489.489,0,0,1,.488.488h0a.482.482,0,0,1-.483.482h-.122A.488.488,0,0,1,1632.224,3734.854Zm-3.943.3a.488.488,0,0,1-.443-.526h0a.488.488,0,0,1,.526-.444h0a.481.481,0,0,1,.438.527h0a.483.483,0,0,1-.482.443h-.038Zm8.457-.454a.488.488,0,0,1,.438-.527h0a.49.49,0,0,1,.527.444h0a.487.487,0,0,1-.437.527h-.045A.483.483,0,0,1,1636.739,3734.7Zm-12.856-.112a.491.491,0,0,1-.4-.56h0a.488.488,0,0,1,.56-.4h0a.488.488,0,0,1,.4.56h0a.493.493,0,0,1-.483.4h0A.359.359,0,0,1,1623.883,3734.588Zm17.215-.416a.494.494,0,0,1,.393-.565h0a.492.492,0,0,1,.566.393h0a.493.493,0,0,1-.393.566h0a.486.486,0,0,1-.089.006h0A.491.491,0,0,1,1641.1,3734.172Zm-21.551-.527a.484.484,0,0,1-.344-.593h0a.485.485,0,0,1,.588-.35h0a.489.489,0,0,1,.349.594h0a.486.486,0,0,1-.471.361h0A.427.427,0,0,1,1619.547,3733.645Zm25.855-.377a.477.477,0,0,1,.343-.593h0a.481.481,0,0,1,.593.344h0a.488.488,0,0,1-.344.594h0a.524.524,0,0,1-.128.017h0A.478.478,0,0,1,1645.4,3733.268Zm-30.092-.943v.006h0a.488.488,0,0,1-.294-.622h0a.483.483,0,0,1,.621-.293h0a.487.487,0,0,1,.294.62h0a.5.5,0,0,1-.46.322h0A.427.427,0,0,1,1615.31,3732.325Zm34.3-.327a.483.483,0,0,1,.294-.621h0a.483.483,0,0,1,.621.288h0a.483.483,0,0,1-.293.621h0a.432.432,0,0,1-.16.027h0A.489.489,0,0,1,1649.606,3732Zm-38.406-1.348a.486.486,0,0,1-.239-.643h0a.486.486,0,0,1,.644-.239h0a.486.486,0,0,1,.239.644h0a.486.486,0,0,1-.444.282h0A.435.435,0,0,1,1611.2,3730.65Zm42.487-.283a.483.483,0,0,1,.233-.643v-.006a.492.492,0,0,1,.649.239h0a.484.484,0,0,1-.238.643h0a.456.456,0,0,1-.205.045h0A.473.473,0,0,1,1653.687,3730.368Zm-46.435-1.742a.486.486,0,0,1-.183-.66h0a.48.48,0,0,1,.66-.183h0a.483.483,0,0,1,.183.661h0a.49.49,0,0,1-.421.243h0A.46.46,0,0,1,1607.252,3728.626Zm50.356-.238a.483.483,0,0,1,.182-.66h0a.486.486,0,0,1,.66.177h0a.491.491,0,0,1-.177.665h0a.477.477,0,0,1-.244.061h0A.488.488,0,0,1,1657.608,3728.388Zm-54.116-2.118h0a.49.49,0,0,1-.129-.677h0a.484.484,0,0,1,.677-.122h0a.482.482,0,0,1,.128.67h0a.488.488,0,0,1-.4.211h0A.5.5,0,0,1,1603.492,3726.27Zm57.854-.189a.49.49,0,0,1,.128-.677h0a.482.482,0,0,1,.671.128h0a.483.483,0,0,1-.122.677h0a.492.492,0,0,1-.277.083h0A.483.483,0,0,1,1661.346,3726.081Zm-61.4-2.485h0a.49.49,0,0,1-.067-.682h0a.479.479,0,0,1,.682-.066h0a.477.477,0,0,1,.066.681h0a.477.477,0,0,1-.371.178h0A.5.5,0,0,1,1599.948,3723.6Zm64.93-.133a.482.482,0,0,1,.061-.682h0a.485.485,0,0,1,.682.061h0a.485.485,0,0,1-.06.682h0a.478.478,0,0,1-.311.116h0A.478.478,0,0,1,1664.879,3723.463Zm-68.23-2.834a.481.481,0,0,1-.011-.682h0a.484.484,0,0,1,.688-.011h0a.488.488,0,0,1,.011.688h0a.49.49,0,0,1-.35.144h0A.475.475,0,0,1,1596.648,3720.629Zm71.519-.083a.481.481,0,0,1,.005-.681h0a.483.483,0,0,1,.688,0h0a.489.489,0,0,1-.005.688h0a.5.5,0,0,1-.339.139h0A.477.477,0,0,1,1668.167,3720.546Zm-74.552-3.15h0a.478.478,0,0,1,.05-.683h0a.478.478,0,0,1,.681.051h0a.478.478,0,0,1-.05.682h0a.488.488,0,0,1-.316.116h0A.473.473,0,0,1,1593.615,3717.4Zm77.585-.027a.491.491,0,0,1-.056-.688h0a.485.485,0,0,1,.688-.05h0a.489.489,0,0,1,.05.682h0a.49.49,0,0,1-.366.172h0A.473.473,0,0,1,1671.2,3717.369Zm-80.337-3.455a.487.487,0,0,1,.11-.677h0a.477.477,0,0,1,.677.111h0a.487.487,0,0,1-.111.676h0a.47.47,0,0,1-.282.089h0A.478.478,0,0,1,1590.864,3713.913Zm83.082.022a.486.486,0,0,1-.111-.677h0a.486.486,0,0,1,.676-.111h0a.486.486,0,0,1,.111.676h0a.477.477,0,0,1-.394.2h0A.486.486,0,0,1,1673.946,3713.935Zm-85.523-3.727a.485.485,0,0,1,.167-.665h0a.492.492,0,0,1,.671.166h0a.488.488,0,0,1-.172.666h0a.447.447,0,0,1-.244.072h0A.5.5,0,0,1,1588.423,3710.208Zm87.968.073a.488.488,0,0,1-.172-.666h0a.488.488,0,0,1,.666-.167h0a.483.483,0,0,1,.172.661h0a.491.491,0,0,1-.422.238h0A.494.494,0,0,1,1676.391,3710.281Zm-90.074-3.971h0a.486.486,0,0,1,.221-.649h0a.482.482,0,0,1,.649.221h0a.489.489,0,0,1-.222.649h0a.517.517,0,0,1-.217.05h0A.48.48,0,0,1,1586.317,3706.31Zm92.193.122a.489.489,0,0,1-.226-.648h0a.48.48,0,0,1,.644-.228h0a.485.485,0,0,1,.227.65h0a.483.483,0,0,1-.438.271h0A.463.463,0,0,1,1678.509,3706.431Zm-93.963-4.192a.484.484,0,0,1,.283-.627h0a.488.488,0,0,1,.627.282h0a.493.493,0,0,1-.284.627h0a.621.621,0,0,1-.172.027h0A.49.49,0,0,1,1584.547,3702.239Zm95.744.172a.483.483,0,0,1-.278-.626h-.006a.49.49,0,0,1,.626-.283h0a.484.484,0,0,1,.284.627h0a.484.484,0,0,1-.455.31h0A.455.455,0,0,1,1680.291,3702.411Zm-97.152-4.375h0a.493.493,0,0,1,.333-.6h0a.484.484,0,0,1,.6.332h.006a.493.493,0,0,1-.333.6h0a.6.6,0,0,1-.139.018h0A.487.487,0,0,1,1583.139,3698.035Zm98.577.216a.488.488,0,0,1-.333-.6h0a.477.477,0,0,1,.6-.333h0a.477.477,0,0,1,.332.6h0a.486.486,0,0,1-.465.35h0A.537.537,0,0,1,1681.715,3698.252Zm-99.614-4.531h0a.49.49,0,0,1,.383-.571h0a.493.493,0,0,1,.571.383h0a.487.487,0,0,1-.383.571h0a.514.514,0,0,1-.094.011h0A.485.485,0,0,1,1582.1,3693.721Zm100.679.267a.485.485,0,0,1-.388-.566h0a.486.486,0,0,1,.572-.388h0a.486.486,0,0,1,.383.571h0a.488.488,0,0,1-.478.393h0A.555.555,0,0,1,1682.78,3693.988Zm-101.344-4.654h.006a.478.478,0,0,1,.427-.533h0a.481.481,0,0,1,.532.427h0a.479.479,0,0,1-.427.538h-.056A.486.486,0,0,1,1581.436,3689.334Zm102.026.316a.494.494,0,0,1-.432-.538h0a.482.482,0,0,1,.538-.427h0a.48.48,0,0,1,.433.532h-.006a.476.476,0,0,1-.477.433h-.056Zm-102.309-4.742a.483.483,0,0,1,.477-.493h0a.479.479,0,0,1,.494.471h0a.488.488,0,0,1-.477.5h-.006A.487.487,0,0,1,1581.153,3684.908Zm102.625.355a.489.489,0,0,1-.477-.494h0a.488.488,0,0,1,.494-.477h0a.489.489,0,0,1,.477.5h0v-.006h0a.485.485,0,0,1-.483.477h-.011Zm-102.081-4.276a.481.481,0,0,1-.45-.516h0a.479.479,0,0,1,.51-.449h0a.482.482,0,0,1,.455.51v.006a.481.481,0,0,1-.483.449h-.033Zm101.505-.571a.488.488,0,0,1,.454-.516h0a.489.489,0,0,1,.516.455h0a.492.492,0,0,1-.455.515h-.034A.487.487,0,0,1,1683.2,3680.417Zm-101.079-3.8a.492.492,0,0,1-.41-.555h0a.489.489,0,0,1,.555-.41h0a.491.491,0,0,1,.4.554h0a.483.483,0,0,1-.483.416h0C1582.168,3676.623,1582.146,3676.617,1582.124,3676.617Zm100.607-.527a.491.491,0,0,1,.411-.554h0a.483.483,0,0,1,.549.41h0a.478.478,0,0,1-.4.549h0a.326.326,0,0,1-.072.005h0A.488.488,0,0,1,1682.73,3676.091Zm-99.813-3.8a.477.477,0,0,1-.356-.582h0a.484.484,0,0,1,.582-.361h0a.488.488,0,0,1,.361.588h0a.49.49,0,0,1-.471.372h0A.435.435,0,0,1,1582.917,3672.292Zm98.976-.471a.493.493,0,0,1,.355-.588h0a.493.493,0,0,1,.588.361h0a.481.481,0,0,1-.355.582h0a.43.43,0,0,1-.117.017h0A.49.49,0,0,1,1681.893,3671.821Zm-97.807-3.76a.484.484,0,0,1-.3-.616h0a.483.483,0,0,1,.61-.31h0a.49.49,0,0,1,.311.615h0a.492.492,0,0,1-.465.333h0A.731.731,0,0,1,1584.086,3668.06Zm96.6-.421a.489.489,0,0,1,.31-.616h0a.485.485,0,0,1,.61.305h0a.481.481,0,0,1-.305.616h0a.487.487,0,0,1-.155.027h0A.491.491,0,0,1,1680.684,3667.639Zm-95.067-3.705a.489.489,0,0,1-.255-.637h0a.486.486,0,0,1,.644-.25h0a.484.484,0,0,1,.249.637h0a.483.483,0,0,1-.444.289h0A.474.474,0,0,1,1585.618,3663.934Zm93.5-.354h.006a.482.482,0,0,1,.25-.638h0a.487.487,0,0,1,.638.25h0a.487.487,0,0,1-.249.638h0a.5.5,0,0,1-.195.044h0A.5.5,0,0,1,1679.12,3663.58Zm-91.622-3.617a.489.489,0,0,1-.195-.659h0a.484.484,0,0,1,.66-.2h0a.485.485,0,0,1,.195.656h0a.492.492,0,0,1-.427.255h0A.512.512,0,0,1,1587.5,3659.963Zm89.715-.294a.485.485,0,0,1,.2-.66h0a.483.483,0,0,1,.654.194h0a.484.484,0,0,1-.194.659h0a.486.486,0,0,1-.233.061h0A.488.488,0,0,1,1677.212,3659.669Zm-87.5-3.5a.483.483,0,0,1-.138-.671h0a.484.484,0,0,1,.671-.139h0a.479.479,0,0,1,.139.672h0a.486.486,0,0,1-.4.222h0A.477.477,0,0,1,1589.716,3656.165Zm85.261-.228h0a.479.479,0,0,1,.139-.671h0a.479.479,0,0,1,.671.138h0a.49.49,0,0,1-.138.672h0a.481.481,0,0,1-.267.078h0A.492.492,0,0,1,1674.977,3655.937Zm-82.726-3.36a.485.485,0,0,1-.078-.682h0a.479.479,0,0,1,.676-.083h0a.483.483,0,0,1,.083.681h0a.48.48,0,0,1-.383.183h0A.494.494,0,0,1,1592.251,3652.577Zm80.175-.166h0a.485.485,0,0,1,.079-.682h0a.485.485,0,0,1,.682.083h0a.48.48,0,0,1-.078.677h0a.473.473,0,0,1-.3.1h0A.483.483,0,0,1,1672.426,3652.41Zm-77.342-3.195a.489.489,0,0,1-.022-.688h0a.484.484,0,0,1,.688-.022h0a.488.488,0,0,1,.022.687h0a.5.5,0,0,1-.354.15h0A.5.5,0,0,1,1595.084,3649.216Zm74.5-.1a.489.489,0,0,1,.022-.688h0a.489.489,0,0,1,.688.022h-.006a.477.477,0,0,1-.016.682h0a.487.487,0,0,1-.333.134h0A.492.492,0,0,1,1669.581,3649.116ZM1598.2,3646.1a.479.479,0,0,1,.033-.683h0a.49.49,0,0,1,.688.034h0a.488.488,0,0,1-.039.687h0a.483.483,0,0,1-.321.122h0A.459.459,0,0,1,1598.2,3646.1Zm68.269-.034a.478.478,0,0,1-.033-.682h0a.482.482,0,0,1,.682-.04h0a.484.484,0,0,1,.039.683h0a.471.471,0,0,1-.361.166h0A.5.5,0,0,1,1666.464,3646.071Zm-64.908-2.8a.484.484,0,0,1,.094-.676h0a.486.486,0,0,1,.682.094h0a.485.485,0,0,1-.094.677h0a.492.492,0,0,1-.294.1h0A.478.478,0,0,1,1601.556,3643.276Zm61.548.034a.481.481,0,0,1-.094-.682h0a.484.484,0,0,1,.676-.094h0a.486.486,0,0,1,.094.682h0a.489.489,0,0,1-.389.188h0A.467.467,0,0,1,1663.1,3643.31Zm-57.954-2.562a.485.485,0,0,1,.15-.671h0v.005h0a.486.486,0,0,1,.672.15h0a.49.49,0,0,1-.15.671h0a.5.5,0,0,1-.261.072h0A.476.476,0,0,1,1605.15,3640.747Zm54.366.094h0a.479.479,0,0,1-.155-.665h0a.486.486,0,0,1,.671-.156h0a.482.482,0,0,1,.15.671h0a.486.486,0,0,1-.411.227h0A.475.475,0,0,1,1659.515,3640.842Zm-50.572-2.307a.488.488,0,0,1,.211-.655h0a.487.487,0,0,1,.654.211h0a.486.486,0,0,1-.211.654h0a.51.51,0,0,1-.221.05h0A.487.487,0,0,1,1608.943,3638.534Zm46.785.161h0a.486.486,0,0,1-.211-.654h0a.485.485,0,0,1,.654-.211h0a.487.487,0,0,1,.211.655h0a.493.493,0,0,1-.433.261h0A.522.522,0,0,1,1655.728,3638.7Zm-42.809-2.035a.48.48,0,0,1,.261-.631h0a.48.48,0,0,1,.632.26h0a.48.48,0,0,1-.261.632h0a.431.431,0,0,1-.188.04h0A.473.473,0,0,1,1612.919,3636.66Zm38.849.222a.488.488,0,0,1-.266-.633h0a.479.479,0,0,1,.632-.266h0a.484.484,0,0,1,.266.633h0a.485.485,0,0,1-.449.3h0A.538.538,0,0,1,1651.768,3636.882Zm-34.728-1.752a.477.477,0,0,1,.316-.6h0a.485.485,0,0,1,.61.316h0a.493.493,0,0,1-.321.61h0a.438.438,0,0,1-.145.022h0A.477.477,0,0,1,1617.04,3635.13Zm30.624.288h.006a.487.487,0,0,1-.321-.609h0a.486.486,0,0,1,.6-.322h0a.494.494,0,0,1,.321.61h0a.488.488,0,0,1-.466.339h0A.643.643,0,0,1,1647.664,3635.417Zm-26.393-1.452a.488.488,0,0,1,.372-.577h0a.494.494,0,0,1,.582.372h0a.487.487,0,0,1-.371.577h0a.338.338,0,0,1-.105.011h0A.492.492,0,0,1,1621.271,3633.965Zm22.184.349v-.005a.481.481,0,0,1-.371-.572h0a.481.481,0,0,1,.576-.371h0a.476.476,0,0,1,.371.576h0a.484.484,0,0,1-.471.384h0A.655.655,0,0,1,1643.455,3634.314Zm-17.858-1.142a.483.483,0,0,1,.416-.544h0a.494.494,0,0,1,.544.422h0a.49.49,0,0,1-.422.543h0c-.022,0-.038.005-.06.005h0A.49.49,0,0,1,1625.6,3633.172Zm13.57.4h0a.486.486,0,0,1-.421-.543h0a.487.487,0,0,1,.543-.422h0a.49.49,0,0,1,.422.544h0a.494.494,0,0,1-.483.427h0A.221.221,0,0,1,1639.168,3633.576Zm-9.195-.82a.474.474,0,0,1,.46-.506h0a.481.481,0,0,1,.5.46h0a.483.483,0,0,1-.46.5h-.022A.479.479,0,0,1,1629.973,3632.756Zm4.393-.05a.487.487,0,0,1,.5-.466h0v.005h0a.485.485,0,0,1,.466.5h0a.485.485,0,0,1-.505.461v0A.493.493,0,0,1,1634.365,3632.706Z" transform="translate(-1581.153 -3632.24)"/></g><g transform="translate(19.811 19.88)"><path d="M1633.262,3730.93a.556.556,0,0,1,.554-.555h0a.146.146,0,0,1,.05.006h0a.146.146,0,0,1,.05-.006h.006a.556.556,0,0,1,.554.555h0a.556.556,0,0,1-.554.555h-.106A.556.556,0,0,1,1633.262,3730.93Zm.66.555Zm-4.47-.2a.554.554,0,0,1-.5-.6h0a.555.555,0,0,1,.6-.5h0a.554.554,0,0,1,.5.6h0a.558.558,0,0,1-.55.5h-.055Zm8.224-.51a.558.558,0,0,1,.5-.6h0a.563.563,0,0,1,.61.5h0a.555.555,0,0,1-.5.605h0c-.022,0-.039,0-.056,0h0A.559.559,0,0,1,1637.677,3730.774Zm-12.55-.1v.006h0a.563.563,0,0,1-.444-.648h0a.559.559,0,0,1,.649-.444h0a.554.554,0,0,1,.444.649h0a.554.554,0,0,1-.544.449h0A.326.326,0,0,1,1625.127,3730.674Zm16.832-.459a.561.561,0,0,1,.443-.649h0a.562.562,0,0,1,.649.444h0a.562.562,0,0,1-.444.648h0a.75.75,0,0,1-.1.01h0A.558.558,0,0,1,1641.958,3730.215Zm-21.08-.55h0a.551.551,0,0,1-.378-.687h0a.55.55,0,0,1,.683-.377h0a.559.559,0,0,1,.382.688h0a.557.557,0,0,1-.537.4h0A.455.455,0,0,1,1620.879,3729.665Zm25.289-.4a.556.556,0,0,1,.377-.687h0a.552.552,0,0,1,.688.376h0a.552.552,0,0,1-.377.688h0a.785.785,0,0,1-.156.022h0A.561.561,0,0,1,1646.168,3729.26Zm-29.426-1a.549.549,0,0,1-.311-.715h0a.551.551,0,0,1,.716-.316h0a.554.554,0,0,1,.316.721h0a.564.564,0,0,1-.516.349h0A.534.534,0,0,1,1616.741,3728.257Zm33.525-.35a.559.559,0,0,1,.316-.721h0a.553.553,0,0,1,.716.311h0a.546.546,0,0,1-.31.72h0a.506.506,0,0,1-.2.04h0A.564.564,0,0,1,1650.266,3727.907Zm-37.511-1.441v0h0a.561.561,0,0,1-.245-.749h0a.561.561,0,0,1,.749-.244h0a.559.559,0,0,1,.244.749h0a.562.562,0,0,1-.494.3h0A.53.53,0,0,1,1612.755,3726.466Zm41.471-.289a.547.547,0,0,1,.238-.743h0a.557.557,0,0,1,.748.238h0a.559.559,0,0,1-.244.749h0a.578.578,0,0,1-.25.062h0A.544.544,0,0,1,1654.226,3726.177Zm-45.27-1.87a.554.554,0,0,1-.173-.765h0a.561.561,0,0,1,.765-.172h0a.549.549,0,0,1,.172.765h0a.551.551,0,0,1-.465.261h0A.534.534,0,0,1,1608.956,3724.308Zm49.041-.227a.549.549,0,0,1,.172-.76v0a.561.561,0,0,1,.766.172h0a.551.551,0,0,1-.173.766h0a.523.523,0,0,1-.294.088h0A.562.562,0,0,1,1658,3724.081Zm-52.619-2.274h0a.555.555,0,0,1-.105-.776h0a.556.556,0,0,1,.782-.1h0a.56.56,0,0,1,.1.776h0a.562.562,0,0,1-.438.217h0A.544.544,0,0,1,1605.378,3721.807Zm56.184-.161a.561.561,0,0,1,.094-.782h0a.568.568,0,0,1,.782.1h0a.566.566,0,0,1-.1.782h0a.562.562,0,0,1-.338.117h0A.554.554,0,0,1,1661.563,3721.646Zm-59.517-2.667a.552.552,0,0,1-.029-.782h0a.553.553,0,0,1,.782-.029h0a.548.548,0,0,1,.028.783h0a.546.546,0,0,1-.4.177h0A.547.547,0,0,1,1602.046,3718.979Zm62.833-.095a.555.555,0,0,1,.028-.788h0a.557.557,0,0,1,.782.029h0a.554.554,0,0,1-.028.787h0v-.006h0a.54.54,0,0,1-.377.15h0A.548.548,0,0,1,1664.879,3718.884Zm-65.89-3.028a.558.558,0,0,1,.044-.782h0a.56.56,0,0,1,.788.044h0a.554.554,0,0,1-.05.782h0a.543.543,0,0,1-.366.139h0A.555.555,0,0,1,1598.99,3715.856Zm68.934-.028a.56.56,0,0,1-.044-.788h0a.552.552,0,0,1,.781-.044h0a.553.553,0,0,1,.051.782h0a.572.572,0,0,1-.416.189h0A.59.59,0,0,1,1667.924,3715.828Zm-71.68-3.366h0a.552.552,0,0,1,.117-.776h0a.556.556,0,0,1,.776.116h0a.558.558,0,0,1-.122.777h0a.543.543,0,0,1-.327.11h0A.55.55,0,0,1,1596.244,3712.462Zm74.431.034a.556.556,0,0,1-.117-.777h0a.556.556,0,0,1,.776-.116h0a.555.555,0,0,1,.117.776h0a.556.556,0,0,1-.449.229h0A.567.567,0,0,1,1670.675,3712.5Zm-76.854-3.671a.552.552,0,0,1,.189-.76h0a.557.557,0,0,1,.765.189h0a.553.553,0,0,1-.194.759h0a.539.539,0,0,1-.283.083h0A.562.562,0,0,1,1593.821,3708.824Zm79.283.105a.557.557,0,0,1-.189-.765h0a.555.555,0,0,1,.76-.189h0a.558.558,0,0,1,.189.76h0a.556.556,0,0,1-.478.271h0A.579.579,0,0,1,1673.1,3708.93Zm-81.352-3.954h0a.551.551,0,0,1,.261-.738h0a.55.55,0,0,1,.738.26h0a.55.55,0,0,1-.261.738h0a.525.525,0,0,1-.238.055h0A.554.554,0,0,1,1591.752,3704.976Zm83.437.172a.565.565,0,0,1-.267-.744h0a.558.558,0,0,1,.744-.26h0a.555.555,0,0,1,.26.737h0a.555.555,0,0,1-.5.316h0A.6.6,0,0,1,1675.189,3705.147Zm-85.133-4.192h0a.556.556,0,0,1,.327-.716h0a.553.553,0,0,1,.71.332h0a.555.555,0,0,1-.328.711h0a.571.571,0,0,1-.194.033h0A.549.549,0,0,1,1590.055,3700.955Zm86.847.227a.554.554,0,0,1-.327-.709h0a.556.556,0,0,1,.711-.334h0a.56.56,0,0,1,.332.716h0a.561.561,0,0,1-.521.361h0A.608.608,0,0,1,1676.9,3701.182Zm-88.162-4.4a.555.555,0,0,1,.394-.676h0a.561.561,0,0,1,.682.393h0a.561.561,0,0,1-.4.683h0a.592.592,0,0,1-.139.016h0A.557.557,0,0,1,1588.74,3696.784Zm89.5.293a.553.553,0,0,1-.4-.676h0a.557.557,0,0,1,.676-.394h0a.554.554,0,0,1,.394.677h0a.543.543,0,0,1-.532.41h0A.593.593,0,0,1,1678.244,3697.078Zm-90.419-4.564h0a.556.556,0,0,1,.46-.637h0a.556.556,0,0,1,.638.454h0a.554.554,0,0,1-.46.639h0a.592.592,0,0,1-.088.01h0A.559.559,0,0,1,1587.825,3692.513Zm91.362.356a.559.559,0,0,1-.46-.638h0a.554.554,0,0,1,.639-.46h0a.552.552,0,0,1,.454.638h0a.553.553,0,0,1-.543.466h0C1679.243,3692.875,1679.215,3692.869,1679.187,3692.869Zm-91.866-4.692a.554.554,0,0,1,.516-.594h0a.553.553,0,0,1,.588.516h0a.553.553,0,0,1-.51.593h-.039A.553.553,0,0,1,1587.321,3688.177Zm92.41.4a.546.546,0,0,1-.516-.588h0a.55.55,0,0,1,.588-.516h0a.555.555,0,0,1,.516.594h0a.552.552,0,0,1-.55.515h0A.09.09,0,0,1,1679.731,3688.582Zm-91.972-4.2a.564.564,0,0,1-.543-.571h0a.551.551,0,0,1,.565-.538h0a.55.55,0,0,1,.544.566h0a.557.557,0,0,1-.554.543h-.011Zm91.545-.648h0a.55.55,0,0,1,.537-.565h0a.549.549,0,0,1,.572.537h0a.561.561,0,0,1-.538.572h-.016A.558.558,0,0,1,1679.3,3683.729Zm-91.3-3.666a.553.553,0,0,1-.488-.61h0a.554.554,0,0,1,.615-.488h0a.555.555,0,0,1,.488.616h0a.552.552,0,0,1-.549.488h0A.254.254,0,0,1,1588,3680.063Zm91-.588H1679a.559.559,0,0,1,.488-.616h0a.556.556,0,0,1,.615.488h0v-.006h0a.564.564,0,0,1-.482.622h-.072A.545.545,0,0,1,1679,3679.476Zm-90.353-3.677a.553.553,0,0,1-.427-.66h0v.006h0a.551.551,0,0,1,.654-.433h0a.556.556,0,0,1,.427.66h0a.55.55,0,0,1-.538.438h0A.429.429,0,0,1,1588.652,3675.8Zm89.648-.526a.557.557,0,0,1,.426-.66h0a.557.557,0,0,1,.661.427h0a.561.561,0,0,1-.428.66h0a.768.768,0,0,1-.116.011h0A.556.556,0,0,1,1678.3,3675.272Zm-88.606-3.66a.554.554,0,0,1-.36-.7h0a.55.55,0,0,1,.693-.361h0a.549.549,0,0,1,.36.693h0a.55.55,0,0,1-.527.388h0A.588.588,0,0,1,1589.695,3671.612Zm87.519-.466a.548.548,0,0,1,.36-.693h0a.545.545,0,0,1,.693.36h0a.554.554,0,0,1-.361.7h0a.56.56,0,0,1-.167.022h0A.548.548,0,0,1,1677.214,3671.146Zm-86.083-3.611a.551.551,0,0,1-.3-.72h0a.558.558,0,0,1,.726-.3h0a.559.559,0,0,1,.3.727h0a.556.556,0,0,1-.517.338h0A.491.491,0,0,1,1591.131,3667.535Zm84.607-.389a.551.551,0,0,1,.293-.726h0a.552.552,0,0,1,.726.294h0a.55.55,0,0,1-.294.726h0a.5.5,0,0,1-.217.044h0A.551.551,0,0,1,1675.738,3667.146Zm-82.794-3.526a.557.557,0,0,1-.228-.754h0a.55.55,0,0,1,.749-.222h0a.55.55,0,0,1,.227.748h0a.555.555,0,0,1-.488.294h0A.549.549,0,0,1,1592.945,3663.62Zm80.947-.316a.553.553,0,0,1,.221-.749h0a.551.551,0,0,1,.755.222h0a.558.558,0,0,1-.227.753h0a.542.542,0,0,1-.261.067h0A.546.546,0,0,1,1673.892,3663.3Zm-78.773-3.416a.555.555,0,0,1-.161-.766h0v0h0a.559.559,0,0,1,.771-.155h0a.555.555,0,0,1,.155.771h0a.552.552,0,0,1-.46.249h0A.556.556,0,0,1,1595.119,3659.888Zm76.576-.238a.547.547,0,0,1,.15-.765h0a.554.554,0,0,1,.771.149h0a.556.556,0,0,1-.155.771h0a.566.566,0,0,1-.305.094h0A.546.546,0,0,1,1671.695,3659.649Zm-74.07-3.272a.561.561,0,0,1-.077-.782h0a.553.553,0,0,1,.776-.083h0a.555.555,0,0,1,.083.782h0a.567.567,0,0,1-.433.205h0A.566.566,0,0,1,1597.625,3656.377Zm71.536-.161a.555.555,0,0,1,.083-.782h0a.552.552,0,0,1,.776.083h0a.554.554,0,0,1-.078.782h0a.557.557,0,0,1-.349.122h0A.566.566,0,0,1,1669.16,3656.216Zm-68.7-3.1a.554.554,0,0,1-.011-.788h0a.552.552,0,0,1,.782,0h0a.551.551,0,0,1,.011.781h0a.56.56,0,0,1-.4.167h0A.535.535,0,0,1,1600.459,3653.116Zm65.862-.083a.547.547,0,0,1,.011-.782h0a.552.552,0,0,1,.782,0h0a.564.564,0,0,1-.006.788h0a.56.56,0,0,1-.389.156h0A.566.566,0,0,1,1666.321,3653.033Zm.793-.777Zm-63.538-2.124a.554.554,0,0,1,.06-.782h.006a.546.546,0,0,1,.776.062h0a.553.553,0,0,1-.061.782h0a.558.558,0,0,1-.361.133h0A.559.559,0,0,1,1603.576,3650.133Zm59.623-.006h0a.548.548,0,0,1-.066-.776h0a.551.551,0,0,1,.782-.067h0a.56.56,0,0,1,.067.783h0a.563.563,0,0,1-.428.194h0A.555.555,0,0,1,1663.2,3650.127Zm-56.24-2.679a.553.553,0,0,1,.139-.771h0a.55.55,0,0,1,.771.138h0a.55.55,0,0,1-.139.771h.006a.58.58,0,0,1-.322.1h0A.562.562,0,0,1,1606.958,3647.448Zm52.858.078a.55.55,0,0,1-.133-.77h0a.556.556,0,0,1,.771-.139h0a.558.558,0,0,1,.138.771h0a.564.564,0,0,1-.46.239h0A.532.532,0,0,1,1659.816,3647.526Zm-49.236-2.429a.547.547,0,0,1,.205-.754h0a.555.555,0,0,1,.76.2h0a.562.562,0,0,1-.21.76h0a.575.575,0,0,1-.272.067h0A.552.552,0,0,1,1610.58,3645.1Zm45.625.161h.006a.563.563,0,0,1-.21-.761h0a.554.554,0,0,1,.754-.21h0a.56.56,0,0,1,.21.76h0a.556.556,0,0,1-.482.277h0A.625.625,0,0,1,1656.205,3645.258Zm-41.8-2.164a.563.563,0,0,1,.277-.737h0a.561.561,0,0,1,.738.283h0a.559.559,0,0,1-.277.732h0a.584.584,0,0,1-.233.05h0A.556.556,0,0,1,1614.4,3643.095Zm38,.233a.557.557,0,0,1-.277-.732h0a.552.552,0,0,1,.731-.277h0a.553.553,0,0,1,.284.732h0a.565.565,0,0,1-.51.327h0A.589.589,0,0,1,1652.4,3643.328Zm-34.007-1.869a.56.56,0,0,1,.349-.705h0a.556.556,0,0,1,.705.344h0a.554.554,0,0,1-.344.7h0a.539.539,0,0,1-.183.034h0A.558.558,0,0,1,1618.394,3641.459Zm30.041.31a.549.549,0,0,1-.349-.7h0a.553.553,0,0,1,.7-.343h0a.55.55,0,0,1,.344.7h0a.552.552,0,0,1-.521.372h0A.471.471,0,0,1,1648.436,3641.769Zm-25.91-1.563a.559.559,0,0,1,.416-.665h0a.551.551,0,0,1,.666.41h0a.55.55,0,0,1-.41.666h0a.5.5,0,0,1-.128.016h0A.566.566,0,0,1,1622.526,3640.206Zm21.806.388h.006a.555.555,0,0,1-.416-.665h0a.56.56,0,0,1,.666-.416h.006a.56.56,0,0,1,.411.671h0a.556.556,0,0,1-.538.427h0A.543.543,0,0,1,1644.332,3640.593Zm-17.574-1.242a.56.56,0,0,1,.471-.627h0a.55.55,0,0,1,.627.472h0a.553.553,0,0,1-.472.626h0a.324.324,0,0,1-.078.006h0A.554.554,0,0,1,1626.757,3639.352Zm13.387.455h0a.546.546,0,0,1-.471-.621h0a.554.554,0,0,1,.622-.477h0a.564.564,0,0,1,.472.626h0a.555.555,0,0,1-.55.478h0A.326.326,0,0,1,1640.145,3639.806Zm-9.094-.909a.56.56,0,0,1,.532-.582h0a.557.557,0,0,1,.582.526h0a.551.551,0,0,1-.528.583h-.027A.558.558,0,0,1,1631.05,3638.9Zm4.847.521a.547.547,0,0,1-.527-.577h0a.556.556,0,0,1,.577-.532h0a.555.555,0,0,1,.528.582h0a.551.551,0,0,1-.55.527h-.028Z" transform="translate(-1587.216 -3638.309)"/></g><g transform="translate(24.758 24.794)"><path d="M1634.292,3727a.626.626,0,0,1,.626-.627h.089a.629.629,0,0,1,.627.622h0a.625.625,0,0,1-.621.626h-.095A.625.625,0,0,1,1634.292,3727Zm-3.727.394a.615.615,0,0,1-.555-.682h0a.615.615,0,0,1,.682-.555h0a.623.623,0,0,1,.56.682h0a.625.625,0,0,1-.622.56h0A.263.263,0,0,1,1630.566,3727.394Zm8.108-.561a.628.628,0,0,1,.554-.687h0a.621.621,0,0,1,.688.554h0a.624.624,0,0,1-.555.688h-.067A.623.623,0,0,1,1638.673,3726.833Zm-12.411-.111a.626.626,0,0,1-.482-.743h0a.624.624,0,0,1,.738-.482h0a.626.626,0,0,1,.483.743h0a.623.623,0,0,1-.61.494h0A.944.944,0,0,1,1626.262,3726.722Zm16.665-.5a.618.618,0,0,1,.477-.743h0a.626.626,0,0,1,.743.482h0a.624.624,0,0,1-.483.738h0a.519.519,0,0,1-.128.017h0A.623.623,0,0,1,1642.927,3726.223Zm-20.879-.626h0a.628.628,0,0,1-.4-.788h0a.621.621,0,0,1,.787-.4h0a.619.619,0,0,1,.4.782h0a.622.622,0,0,1-.593.433h0A.784.784,0,0,1,1622.048,3725.6Zm25.039-.427a.623.623,0,0,1,.4-.788h0a.621.621,0,0,1,.787.4h0a.628.628,0,0,1-.4.788h0a.754.754,0,0,1-.194.028h0A.63.63,0,0,1,1647.087,3725.17Zm-29.11-1.136a.629.629,0,0,1-.316-.827h0a.627.627,0,0,1,.825-.316h0a.628.628,0,0,1,.316.827h0a.625.625,0,0,1-.571.371h0A.719.719,0,0,1,1617.977,3724.033Zm33.142-.349a.624.624,0,0,1,.31-.827h0a.626.626,0,0,1,.827.31h0a.627.627,0,0,1-.316.827h0a.579.579,0,0,1-.255.056h0A.618.618,0,0,1,1651.119,3723.684Zm-37.024-1.631v-.006h0a.62.62,0,0,1-.227-.849h0a.621.621,0,0,1,.854-.227h0a.623.623,0,0,1,.227.849h0a.633.633,0,0,1-.543.316h0A.635.635,0,0,1,1614.094,3722.053Zm40.873-.272a.625.625,0,0,1,.227-.854h0a.62.62,0,0,1,.849.228h0a.618.618,0,0,1-.222.849h0a.6.6,0,0,1-.316.088h0A.617.617,0,0,1,1654.967,3721.781Zm-44.528-2.107a.627.627,0,0,1-.138-.87h0a.618.618,0,0,1,.871-.138h0a.621.621,0,0,1,.138.87h0a.625.625,0,0,1-.5.255h0A.634.634,0,0,1,1610.439,3719.673Zm48.155-.188a.617.617,0,0,1,.138-.871h0a.622.622,0,0,1,.871.133h0a.634.634,0,0,1-.139.876h0a.637.637,0,0,1-.366.117h0A.624.624,0,0,1,1658.594,3719.485Zm-51.543-2.556a.623.623,0,0,1-.044-.882h0a.624.624,0,0,1,.882-.045h0a.617.617,0,0,1,.044.877h0a.621.621,0,0,1-.465.21h0A.642.642,0,0,1,1607.051,3716.928Zm54.915-.1a.622.622,0,0,1,.044-.882h0a.623.623,0,0,1,.882.044h0a.628.628,0,0,1-.044.881h0a.648.648,0,0,1-.422.161h0A.629.629,0,0,1,1661.966,3716.829Zm-57.994-2.983a.624.624,0,0,1,.045-.882h0a.617.617,0,0,1,.876.049h0a.624.624,0,0,1-.044.883h0a.616.616,0,0,1-.416.156h0A.607.607,0,0,1,1603.973,3713.845Zm61.071-.017a.628.628,0,0,1-.05-.882h0a.623.623,0,0,1,.882-.044h0a.628.628,0,0,1,.05.882h0a.625.625,0,0,1-.465.205h0A.6.6,0,0,1,1665.044,3713.828Zm-63.821-3.366a.626.626,0,0,1,.138-.87h0a.62.62,0,0,1,.871.133h0a.624.624,0,0,1-.138.876h0a.639.639,0,0,1-.366.116h0A.63.63,0,0,1,1601.222,3710.462Zm66.567.066a.625.625,0,0,1-.139-.87h0a.634.634,0,0,1,.877-.138h0a.627.627,0,0,1,.138.87h0a.633.633,0,0,1-.51.261h0A.6.6,0,0,1,1667.789,3710.528Zm-68.94-3.721a.612.612,0,0,1,.227-.848h0a.619.619,0,0,1,.848.227h0a.618.618,0,0,1-.228.848h0a.563.563,0,0,1-.31.083h0A.611.611,0,0,1,1598.849,3706.807Zm71.33.155a.628.628,0,0,1-.227-.854h0a.625.625,0,0,1,.854-.227h0a.629.629,0,0,1,.227.854h0a.625.625,0,0,1-.537.311h0A.642.642,0,0,1,1670.179,3706.962Zm-73.316-4.038v.007h0a.628.628,0,0,1,.316-.827h0a.628.628,0,0,1,.827.317h0a.632.632,0,0,1-.317.826h0a.685.685,0,0,1-.255.05h0A.627.627,0,0,1,1596.863,3702.925Zm75.323.239a.616.616,0,0,1-.316-.82h0a.622.622,0,0,1,.82-.322h0a.627.627,0,0,1,.316.827h0a.623.623,0,0,1-.572.371h0A.673.673,0,0,1,1672.187,3703.163Zm-76.887-4.3h0a.626.626,0,0,1,.4-.788h0a.626.626,0,0,1,.787.4h0a.626.626,0,0,1-.4.788h0a.627.627,0,0,1-.194.033h0A.63.63,0,0,1,1595.3,3698.86Zm78.479.316a.625.625,0,0,1-.4-.787h0a.619.619,0,0,1,.782-.4h0a.618.618,0,0,1,.4.781h0a.628.628,0,0,1-.593.432h0A.588.588,0,0,1,1673.778,3699.177Zm-79.6-4.526a.627.627,0,0,1,.478-.742h0a.625.625,0,0,1,.743.482h0a.621.621,0,0,1-.483.737h0a.512.512,0,0,1-.127.017h0A.623.623,0,0,1,1594.173,3694.651Zm80.77.393a.626.626,0,0,1-.483-.743h0a.624.624,0,0,1,.737-.482h0a.625.625,0,0,1,.483.738h0a.638.638,0,0,1-.616.5h0A.856.856,0,0,1,1674.944,3695.044Zm-81.452-4.7h0a.624.624,0,0,1,.56-.682h0a.619.619,0,0,1,.683.554h0a.621.621,0,0,1-.555.683h0a.3.3,0,0,1-.066,0h0A.624.624,0,0,1,1593.491,3690.342Zm82.178.466a.623.623,0,0,1-.56-.682h0a.631.631,0,0,1,.688-.56h0a.627.627,0,0,1,.555.688h0a.626.626,0,0,1-.622.56h0A.243.243,0,0,1,1675.67,3690.808Zm-82.406-4.814a.626.626,0,0,1,.627-.626h0a.62.62,0,0,1,.621.621h0a.621.621,0,0,1-.621.627h0A.625.625,0,0,1,1593.264,3685.994Zm82.056-.094a.621.621,0,0,1,.626-.622h0a.617.617,0,0,1,.621.622h0a.621.621,0,0,1-.621.626h0A.629.629,0,0,1,1675.321,3685.9Zm-80.808.088h0v0Zm-.465-3.665a.623.623,0,0,1-.56-.682h0a.623.623,0,0,1,.687-.556h0a.616.616,0,0,1,.555.683h0a.623.623,0,0,1-.615.56h0A.264.264,0,0,1,1594.047,3682.323Zm81.051-.644a.624.624,0,0,1,.555-.688h0a.632.632,0,0,1,.688.554h0a.627.627,0,0,1-.555.688h0a.252.252,0,0,1-.066.006h0A.625.625,0,0,1,1675.1,3681.679Zm-80.453-3.6a.627.627,0,0,1-.482-.743h0a.625.625,0,0,1,.738-.477h0a.619.619,0,0,1,.482.738h0a.622.622,0,0,1-.61.493h0A1.062,1.062,0,0,1,1594.645,3678.075Zm79.788-.572h0a.625.625,0,0,1,.482-.738h0a.617.617,0,0,1,.738.477h0a.623.623,0,0,1-.477.743h0a1.06,1.06,0,0,1-.133.011h0A.626.626,0,0,1,1674.433,3677.5Zm-78.745-3.594a.632.632,0,0,1-.406-.788h0a.631.631,0,0,1,.787-.4h0a.624.624,0,0,1,.4.788h0a.618.618,0,0,1-.594.432h0A.751.751,0,0,1,1595.688,3673.91Zm77.647-.488a.624.624,0,0,1,.4-.787h0a.625.625,0,0,1,.788.4h0a.622.622,0,0,1-.4.788h0a.6.6,0,0,1-.194.033h0A.634.634,0,0,1,1673.335,3673.421Zm-76.172-3.55a.62.62,0,0,1-.317-.82h0v-.006h0a.625.625,0,0,1,.82-.316h0a.623.623,0,0,1,.317.826h0a.615.615,0,0,1-.565.371h0A.579.579,0,0,1,1597.163,3669.872Zm74.652-.393a.622.622,0,0,1,.316-.827h0a.623.623,0,0,1,.821.317h0a.622.622,0,0,1-.311.82h0a.6.6,0,0,1-.255.056h0A.632.632,0,0,1,1671.815,3669.479Zm-72.762-3.461a.625.625,0,0,1-.227-.854h0a.625.625,0,0,1,.854-.227h0a.63.63,0,0,1,.227.854h0a.627.627,0,0,1-.543.311h0A.641.641,0,0,1,1599.053,3666.018Zm70.832-.305a.62.62,0,0,1,.228-.848h0a.625.625,0,0,1,.855.221h0a.626.626,0,0,1-.228.855h0a.588.588,0,0,1-.311.083h0A.627.627,0,0,1,1669.885,3665.712Zm-68.547-3.333a.627.627,0,0,1-.138-.871h0a.627.627,0,0,1,.871-.138h0a.623.623,0,0,1,.138.871h0a.612.612,0,0,1-.5.26h0A.6.6,0,0,1,1601.339,3662.38Zm66.24-.205h0a.621.621,0,0,1,.133-.871h0a.62.62,0,0,1,.87.133h0a.629.629,0,0,1-.133.877h0a.644.644,0,0,1-.367.116h0A.624.624,0,0,1,1667.578,3662.175ZM1603.99,3659a.624.624,0,0,1-.044-.882h0a.622.622,0,0,1,.882-.044h0a.621.621,0,0,1,.044.876v.006a.634.634,0,0,1-.466.205h0A.635.635,0,0,1,1603.99,3659Zm60.921-.111a.623.623,0,0,1,.044-.882h0a.629.629,0,0,1,.882.044h0a.628.628,0,0,1-.044.882h0a.62.62,0,0,1-.422.161h0A.615.615,0,0,1,1664.911,3658.892Zm-57.931-2.973a.623.623,0,0,1,.044-.882h0a.624.624,0,0,1,.882.044h0a.624.624,0,0,1-.045.882h0a.645.645,0,0,1-.421.161h0A.63.63,0,0,1,1606.979,3655.919Zm54.937-.01a.623.623,0,0,1-.05-.882h0a.629.629,0,0,1,.882-.051h0a.629.629,0,0,1,.05.882h0a.631.631,0,0,1-.466.21h0A.623.623,0,0,1,1661.916,3655.908Zm-51.649-2.745a.627.627,0,0,1,.139-.871h0a.62.62,0,0,1,.87.133h0a.621.621,0,0,1-.133.871h-.006a.606.606,0,0,1-.366.122h0A.63.63,0,0,1,1610.268,3653.163Zm48.36.083a.616.616,0,0,1-.139-.871h0a.626.626,0,0,1,.87-.138h0a.627.627,0,0,1,.139.87h0a.614.614,0,0,1-.5.261h0A.607.607,0,0,1,1658.628,3653.246Zm-44.794-2.485a.623.623,0,0,1,.223-.855h0a.625.625,0,0,1,.854.227h0a.626.626,0,0,1-.227.855h0a.647.647,0,0,1-.311.083h0A.613.613,0,0,1,1613.833,3650.762Zm41.245.182h0a.619.619,0,0,1-.228-.848h0a.627.627,0,0,1,.855-.233h0a.63.63,0,0,1,.227.854h0a.627.627,0,0,1-.544.311h0A.63.63,0,0,1,1655.078,3650.944Zm-37.457-2.2a.627.627,0,0,1,.316-.826h0a.626.626,0,0,1,.825.316h0a.628.628,0,0,1-.316.827h0a.607.607,0,0,1-.254.055h0A.628.628,0,0,1,1617.622,3648.748Zm33.69.277a.621.621,0,0,1-.321-.821h0a.628.628,0,0,1,.826-.316h0a.619.619,0,0,1,.317.82h0a.629.629,0,0,1-.572.372h0A.559.559,0,0,1,1651.312,3649.025Zm-29.7-1.879a.619.619,0,0,1,.393-.789h0a.62.62,0,0,1,.787.4h0a.622.622,0,0,1-.4.788h0a.749.749,0,0,1-.194.028h0A.617.617,0,0,1,1621.609,3647.146Zm25.749.371h.006a.624.624,0,0,1-.4-.787h0a.624.624,0,0,1,.787-.4h0a.62.62,0,0,1,.4.783h0a.618.618,0,0,1-.594.433h0A.6.6,0,0,1,1647.358,3647.517Zm-21.623-1.547a.627.627,0,0,1,.483-.744h0a.624.624,0,0,1,.737.483h0a.624.624,0,0,1-.477.738h0a.463.463,0,0,1-.128.016h0A.627.627,0,0,1,1625.735,3645.97Zm17.541.46a.625.625,0,0,1-.482-.738h0a.619.619,0,0,1,.738-.483h0a.618.618,0,0,1,.482.738h0a.621.621,0,0,1-.61.493h0A1.036,1.036,0,0,1,1643.276,3646.43Zm-13.31-1.2a.624.624,0,0,1,.555-.688h0a.632.632,0,0,1,.688.56h0a.627.627,0,0,1-.56.682h0c-.022,0-.044.006-.067.006h0A.624.624,0,0,1,1629.966,3645.232Zm9.129.543h0a.615.615,0,0,1-.555-.681h0a.619.619,0,0,1,.682-.555h0a.623.623,0,0,1,.56.682h0a.625.625,0,0,1-.621.56h0A.269.269,0,0,1,1639.095,3645.775Zm-4.846-.832a.621.621,0,0,1,.621-.627h.006a.62.62,0,0,1,.622.621h0a.622.622,0,0,1-.622.627h0A.625.625,0,0,1,1634.248,3644.944Z" transform="translate(-1593.264 -3644.317)"/></g><g transform="translate(29.732 29.812)"><path d="M1636.083,3723.775a.183.183,0,0,1-.056.006h0a.693.693,0,0,1-.693-.693h0a.693.693,0,0,1,.693-.693h.106a.688.688,0,0,1,.694.687h0a.694.694,0,0,1-.688.7h0A.163.163,0,0,1,1636.083,3723.775Zm-4.393-.249a.694.694,0,0,1-.61-.771h0a.7.7,0,0,1,.771-.6h0a.693.693,0,0,1,.61.77h0a.7.7,0,0,1-.693.611h0A.378.378,0,0,1,1631.69,3723.526Zm8.008-.616a.7.7,0,0,1,.61-.777h0a.7.7,0,0,1,.771.611h0a.7.7,0,0,1-.6.771h0c-.028,0-.056.006-.083.006h0A.7.7,0,0,1,1639.7,3722.91Zm-12.289-.149v.006h0a.7.7,0,0,1-.51-.839h0a.693.693,0,0,1,.838-.515h0a.7.7,0,0,1,.509.837h0a.7.7,0,0,1-.671.532h0A.585.585,0,0,1,1627.409,3722.76Zm16.5-.533a.687.687,0,0,1,.5-.837h.006a.7.7,0,0,1,.837.51h0a.7.7,0,0,1-.51.837h0a.8.8,0,0,1-.167.017h0A.691.691,0,0,1,1643.913,3722.228Zm-20.664-.731a.689.689,0,0,1-.406-.894h0a.691.691,0,0,1,.887-.41h0a.694.694,0,0,1,.411.893h0a.7.7,0,0,1-.649.455h0A.761.761,0,0,1,1623.25,3721.5Zm24.762-.443a.691.691,0,0,1,.4-.893h0a.7.7,0,0,1,.893.4h0a.7.7,0,0,1-.4.893h0a.782.782,0,0,1-.244.045h0A.688.688,0,0,1,1648.011,3721.053Zm-28.738-1.315a.683.683,0,0,1-.3-.931h0a.7.7,0,0,1,.932-.3h0a.687.687,0,0,1,.3.931h0a.684.684,0,0,1-.616.377h0A.646.646,0,0,1,1619.273,3719.737Zm32.664-.343a.7.7,0,0,1,.3-.937h0a.7.7,0,0,1,.931.3h0a.694.694,0,0,1-.294.938h0a.717.717,0,0,1-.316.078h0A.7.7,0,0,1,1651.938,3719.394Zm-36.407-1.869a.688.688,0,0,1-.183-.96h0a.684.684,0,0,1,.959-.188h0a.7.7,0,0,1,.189.965h0a.714.714,0,0,1-.576.305h0A.684.684,0,0,1,1615.53,3717.525Zm40.112-.239a.694.694,0,0,1,.182-.965h0a.7.7,0,0,1,.966.184h0a.7.7,0,0,1-.183.964h0a.675.675,0,0,1-.389.117h0A.7.7,0,0,1,1655.643,3717.287Zm-43.563-2.4v.005h0a.7.7,0,0,1-.078-.982h0a.7.7,0,0,1,.981-.072h0a.693.693,0,0,1,.073.976h0a.7.7,0,0,1-.527.244h0A.664.664,0,0,1,1612.08,3714.885Zm47-.133a.687.687,0,0,1,.067-.976h0a.694.694,0,0,1,.981.066h0a.693.693,0,0,1-.072.977h0v0h0a.7.7,0,0,1-.455.166h0A.689.689,0,0,1,1659.075,3714.752Zm-50.117-2.889h0a.7.7,0,0,1,.044-.982h0a.686.686,0,0,1,.976.044h0a.687.687,0,0,1-.038.977h0a.692.692,0,0,1-.472.182h0A.693.693,0,0,1,1608.958,3711.863Zm53.223-.034a.687.687,0,0,1-.045-.976h0a.7.7,0,0,1,.982-.045h0a.693.693,0,0,1,.044.977h0a.7.7,0,0,1-.515.227h0A.684.684,0,0,1,1662.181,3711.829Zm-55.963-3.338h0a.7.7,0,0,1,.154-.971h0a.7.7,0,0,1,.971.161h0a.691.691,0,0,1-.161.965h0a.677.677,0,0,1-.4.132h0A.688.688,0,0,1,1606.219,3708.491Zm58.707.078a.7.7,0,0,1-.16-.971h0a.694.694,0,0,1,.965-.162h0a.7.7,0,0,1,.166.971h-.006a.69.69,0,0,1-.566.289h0A.712.712,0,0,1,1664.926,3708.568Zm-61.032-3.749a.687.687,0,0,1,.272-.943h0a.7.7,0,0,1,.943.272h0a.7.7,0,0,1-.272.942h0a.719.719,0,0,1-.333.083h0A.7.7,0,0,1,1603.894,3704.819Zm63.372.183a.691.691,0,0,1-.271-.943h0a.683.683,0,0,1,.937-.272h0a.69.69,0,0,1,.277.938h0a.693.693,0,0,1-.61.361h0A.725.725,0,0,1,1667.266,3705Zm-65.246-4.1h0a.694.694,0,0,1,.382-.9h0a.7.7,0,0,1,.9.384h0a.694.694,0,0,1-.383.9h0a.7.7,0,0,1-.261.05h0A.694.694,0,0,1,1602.021,3700.9Zm67.148.283a.7.7,0,0,1-.383-.9h0a.693.693,0,0,1,.9-.383h0a.7.7,0,0,1,.383.9h0a.7.7,0,0,1-.643.433h0A.712.712,0,0,1,1669.169,3701.182Zm-68.54-4.4h0a.7.7,0,0,1,.487-.854h0a.69.69,0,0,1,.848.487h0a.688.688,0,0,1-.487.849h0a.663.663,0,0,1-.183.028h0A.691.691,0,0,1,1600.629,3696.783Zm69.976.378a.685.685,0,0,1-.487-.849h0a.69.69,0,0,1,.848-.489h0a.7.7,0,0,1,.488.849h0a.7.7,0,0,1-.671.516h0A.738.738,0,0,1,1670.6,3697.161Zm-70.869-4.631h0a.694.694,0,0,1,.582-.788h0a.694.694,0,0,1,.787.582h0a.691.691,0,0,1-.582.788h0a.623.623,0,0,1-.1.011h0A.692.692,0,0,1,1599.735,3692.53Zm71.812.477a.7.7,0,0,1-.588-.787h0a.7.7,0,0,1,.788-.589h0a.7.7,0,0,1,.588.788h0a.7.7,0,0,1-.688.594h0A.575.575,0,0,1,1671.548,3693.006Zm-72.2-4.8a.7.7,0,0,1,.676-.715h0a.689.689,0,0,1,.71.671h0a.693.693,0,0,1-.671.715h-.023A.7.7,0,0,1,1599.347,3688.2Zm72.645.561a.689.689,0,0,1-.671-.71h0a.69.69,0,0,1,.71-.677h0a.693.693,0,0,1,.676.71h0a.7.7,0,0,1-.693.677h-.022Zm-71.891-4.155a.689.689,0,0,1-.626-.749h0a.691.691,0,0,1,.748-.632h0a.691.691,0,0,1,.632.749h0a.693.693,0,0,1-.694.631h-.06Zm71.086-.737a.7.7,0,0,1,.626-.754h0a.7.7,0,0,1,.755.626h0a.693.693,0,0,1-.626.754h0c-.022,0-.045.006-.061.006h0A.694.694,0,0,1,1671.187,3683.873Zm-70.543-3.494a.693.693,0,0,1-.537-.821h0a.7.7,0,0,1,.821-.538h0a.7.7,0,0,1,.537.82h0a.7.7,0,0,1-.676.555h0A.634.634,0,0,1,1600.644,3680.379Zm69.922-.644h0a.694.694,0,0,1,.532-.821h0a.7.7,0,0,1,.826.538h0a.7.7,0,0,1-.537.821h0a.635.635,0,0,1-.145.011h0A.687.687,0,0,1,1670.567,3679.736Zm-68.885-3.494a.7.7,0,0,1-.438-.882h0a.7.7,0,0,1,.882-.433h0a.692.692,0,0,1,.433.876h0a.69.69,0,0,1-.654.472h0A.774.774,0,0,1,1601.682,3676.242Zm67.775-.538h0a.691.691,0,0,1,.433-.875h0a.687.687,0,0,1,.882.432h0a.692.692,0,0,1-.433.876h0a.623.623,0,0,1-.221.039h0A.7.7,0,0,1,1669.457,3675.7Zm-66.25-3.449a.685.685,0,0,1-.327-.921h0a.685.685,0,0,1,.921-.327h0a.685.685,0,0,1,.327.921h0a.686.686,0,0,1-.621.393h0A.654.654,0,0,1,1603.206,3672.255Zm64.67-.422a.688.688,0,0,1,.327-.92h0a.693.693,0,0,1,.926.322h0a.7.7,0,0,1-.327.926h0a.72.72,0,0,1-.3.067h0A.694.694,0,0,1,1667.877,3671.833Zm-62.685-3.349a.7.7,0,0,1-.216-.96h0a.7.7,0,0,1,.959-.216h0a.7.7,0,0,1,.21.959h.007a.707.707,0,0,1-.589.321h0A.7.7,0,0,1,1605.192,3668.484Zm60.66-.306h0a.69.69,0,0,1,.21-.953h0a.69.69,0,0,1,.954.211h.006a.7.7,0,0,1-.216.959h0a.706.706,0,0,1-.372.1h0A.676.676,0,0,1,1665.852,3668.178Zm-58.242-3.21a.7.7,0,0,1-.1-.977h0a.7.7,0,0,1,.977-.1h0a.693.693,0,0,1,.1.976h0a.7.7,0,0,1-.537.255h0A.683.683,0,0,1,1607.61,3664.967Zm55.791-.178a.7.7,0,0,1,.1-.976h0a.689.689,0,0,1,.976.1h0a.69.69,0,0,1-.1.975h0a.681.681,0,0,1-.438.156h0A.7.7,0,0,1,1663.4,3664.79Zm-52.974-3.022a.7.7,0,0,1,.011-.981h.006a.692.692,0,0,1,.976.011h0a.7.7,0,0,1-.011.981h0a.678.678,0,0,1-.482.194h0A.683.683,0,0,1,1610.428,3661.767Zm50.145-.055h0a.7.7,0,0,1-.016-.982h0a.694.694,0,0,1,.982-.017h0a.7.7,0,0,1,.016.981h0a.7.7,0,0,1-.5.211h0A.71.71,0,0,1,1660.572,3661.712Zm-46.973-2.8a.7.7,0,0,1,.129-.977h0a.7.7,0,0,1,.976.134h0a.7.7,0,0,1-.133.971h0a.694.694,0,0,1-.421.144h0A.7.7,0,0,1,1613.6,3658.917Zm43.8.066a.689.689,0,0,1-.128-.971h0a.69.69,0,0,1,.97-.132h0a.691.691,0,0,1,.128.971h0a.674.674,0,0,1-.55.277h0A.7.7,0,0,1,1657.4,3658.983Zm-40.319-2.523a.694.694,0,0,1,.244-.949h0a.688.688,0,0,1,.949.239h0a.688.688,0,0,1-.239.949h0a.7.7,0,0,1-.355.1h0A.7.7,0,0,1,1617.082,3656.46Zm36.846.188h0a.694.694,0,0,1-.244-.948h0a.694.694,0,0,1,.948-.244h0a.684.684,0,0,1,.244.948h0a.686.686,0,0,1-.593.344h0A.683.683,0,0,1,1653.928,3656.648Zm-33.091-2.218a.688.688,0,0,1,.349-.915h0a.7.7,0,0,1,.915.355h0a.691.691,0,0,1-.355.915h0a.7.7,0,0,1-.277.061h0A.685.685,0,0,1,1620.837,3654.43Zm29.37.311h0a.689.689,0,0,1-.354-.911h0a.683.683,0,0,1,.909-.354h0a.688.688,0,0,1,.361.909h0a.7.7,0,0,1-.638.416h0A.691.691,0,0,1,1650.207,3654.741Zm-25.405-1.875a.685.685,0,0,1,.46-.866h0a.69.69,0,0,1,.865.455h0a.7.7,0,0,1-.46.871h0a.877.877,0,0,1-.205.028h0A.7.7,0,0,1,1624.8,3652.867Zm21.479.427a.7.7,0,0,1-.46-.866h0a.69.69,0,0,1,.866-.46h0a.688.688,0,0,1,.46.86h0a.687.687,0,0,1-.66.493h0A.939.939,0,0,1,1646.281,3653.293Zm-17.359-1.514a.693.693,0,0,1,.56-.8h0a.693.693,0,0,1,.8.56h0a.689.689,0,0,1-.555.8h0a.93.93,0,0,1-.127.012h0A.7.7,0,0,1,1628.922,3651.779Zm13.294.543a.693.693,0,0,1-.56-.8h0a.7.7,0,0,1,.8-.566h0a.7.7,0,0,1,.56.8h0a.69.69,0,0,1-.682.571h0A.891.891,0,0,1,1642.216,3652.323Zm-9.067-1.131a.69.69,0,0,1,.649-.732h0a.7.7,0,0,1,.738.648h0a.706.706,0,0,1-.654.738h-.039A.693.693,0,0,1,1633.149,3651.191Zm4.914.643a.687.687,0,0,1-.648-.727h0a.694.694,0,0,1,.731-.654h0a.7.7,0,0,1,.654.732h0a.7.7,0,0,1-.694.654h0A.111.111,0,0,1,1638.062,3651.834Z" transform="translate(-1599.347 -3650.452)"/></g><g transform="translate(34.744 34.71)"><path d="M1637.2,3719.908a.247.247,0,0,1-.061.005h0a.767.767,0,0,1-.766-.765h0a.763.763,0,0,1,.766-.761h.117a.759.759,0,0,1,.766.755h0a.77.77,0,0,1-.761.771h0A.243.243,0,0,1,1637.2,3719.908Zm-4.381-.289h0a.768.768,0,0,1-.655-.859h0a.763.763,0,0,1,.859-.65h0a.759.759,0,0,1,.655.855h0a.764.764,0,0,1-.755.66h0A.662.662,0,0,1,1632.823,3719.62Zm7.9-.665a.763.763,0,0,1,.649-.861h0a.768.768,0,0,1,.865.649h0a.766.766,0,0,1-.648.861h-.006a.759.759,0,0,1-.105,0h0A.763.763,0,0,1,1640.72,3718.955Zm-12.134-.212a.763.763,0,0,1-.532-.936h0a.771.771,0,0,1,.943-.533h0a.765.765,0,0,1,.527.943h0a.764.764,0,0,1-.732.555h0A.66.66,0,0,1,1628.586,3718.743Zm16.288-.559a.76.76,0,0,1,.527-.937h0a.761.761,0,0,1,.943.521h0a.764.764,0,0,1-.527.943h0a.672.672,0,0,1-.205.028h0A.769.769,0,0,1,1644.874,3718.184Zm-20.37-.887a.765.765,0,0,1-.4-1h0a.765.765,0,0,1,1-.4v.006a.762.762,0,0,1,.4,1h0a.775.775,0,0,1-.7.455h0A.808.808,0,0,1,1624.5,3717.3Zm24.385-.444a.761.761,0,0,1,.388-1h0a.764.764,0,0,1,1.009.394h0a.764.764,0,0,1-.393,1h0a.755.755,0,0,1-.3.061h0A.752.752,0,0,1,1648.89,3716.852Zm-28.234-1.553a.763.763,0,0,1-.249-1.048h0a.752.752,0,0,1,1.042-.255h0a.759.759,0,0,1,.255,1.048h0a.747.747,0,0,1-.649.366h0A.743.743,0,0,1,1620.656,3715.3Zm32.021-.31a.764.764,0,0,1,.25-1.048h0a.76.76,0,0,1,1.048.25h0a.759.759,0,0,1-.249,1.048h0a.739.739,0,0,1-.4.111h0A.764.764,0,0,1,1652.677,3714.989Zm-35.554-2.191h0a.758.758,0,0,1-.111-1.07h0a.759.759,0,0,1,1.071-.111h0a.769.769,0,0,1,.106,1.076h0a.755.755,0,0,1-.588.277h0A.75.75,0,0,1,1617.123,3712.8Zm39.054-.177a.765.765,0,0,1,.105-1.071h0a.765.765,0,0,1,1.075.105h0a.771.771,0,0,1-.1,1.076h0a.771.771,0,0,1-.483.172h0A.77.77,0,0,1,1656.177,3712.621Zm-42.221-2.774a.762.762,0,0,1,.039-1.08h0a.765.765,0,0,1,1.075.038h0a.761.761,0,0,1-.033,1.075h0a.767.767,0,0,1-.522.205h0A.759.759,0,0,1,1613.956,3709.847Zm45.371-.043a.757.757,0,0,1-.039-1.076h0a.757.757,0,0,1,1.075-.039h0a.757.757,0,0,1,.039,1.076h0a.764.764,0,0,1-.56.244h0A.743.743,0,0,1,1659.327,3709.8Zm-48.1-3.311a.765.765,0,0,1,.183-1.065h0a.764.764,0,0,1,1.065.183h0a.769.769,0,0,1-.183,1.065h0a.766.766,0,0,1-.443.138h0A.76.76,0,0,1,1611.222,3706.493Zm50.844.089a.764.764,0,0,1-.188-1.06h0a.765.765,0,0,1,1.065-.183h0a.758.758,0,0,1,.183,1.06h0a.754.754,0,0,1-.621.321h0A.749.749,0,0,1,1662.066,3706.582Zm-53.1-3.783h0a.767.767,0,0,1,.321-1.031h0a.768.768,0,0,1,1.032.327h0a.759.759,0,0,1-.327,1.026h0a.725.725,0,0,1-.349.089h0A.758.758,0,0,1,1608.97,3702.8Zm55.37.222a.762.762,0,0,1-.328-1.025h0a.759.759,0,0,1,1.026-.328h0a.763.763,0,0,1,.333,1.026h0a.772.772,0,0,1-.682.411h0A.782.782,0,0,1,1664.34,3703.021Zm-57.1-4.192h0a.756.756,0,0,1,.46-.971h0a.759.759,0,0,1,.977.46h0a.758.758,0,0,1-.46.971h0a.707.707,0,0,1-.261.044h0A.762.762,0,0,1,1607.24,3698.829Zm58.874.355a.763.763,0,0,1-.465-.976h0a.763.763,0,0,1,.971-.466h0a.763.763,0,0,1,.465.976h0a.768.768,0,0,1-.72.51h0A.819.819,0,0,1,1666.114,3699.184Zm-60.044-4.526a.759.759,0,0,1,.594-.9h0a.755.755,0,0,1,.9.593h0a.756.756,0,0,1-.588.9h0a.819.819,0,0,1-.161.016h0A.766.766,0,0,1,1606.07,3694.658Zm61.27.478a.763.763,0,0,1-.6-.9h0a.769.769,0,0,1,.9-.6h0a.77.77,0,0,1,.594.9h0a.764.764,0,0,1-.749.609h0A.72.72,0,0,1,1667.34,3695.135Zm-61.858-4.764a.759.759,0,0,1,.71-.81h0a.762.762,0,0,1,.814.7h0a.759.759,0,0,1-.7.814h-.056A.759.759,0,0,1,1605.482,3690.372Zm62.518.587a.759.759,0,0,1-.71-.809h0a.763.763,0,0,1,.81-.71h0a.762.762,0,0,1,.71.81h0a.764.764,0,0,1-.76.716h0C1668.034,3690.964,1668.017,3690.958,1668,3690.958Zm-61.808-4.1a.763.763,0,0,1-.716-.81h0a.764.764,0,0,1,.815-.71h0a.764.764,0,0,1,.71.81h0a.768.768,0,0,1-.76.716h0C1606.226,3686.861,1606.209,3686.855,1606.192,3686.855Zm61.081-.826a.763.763,0,0,1,.71-.815h0a.766.766,0,0,1,.814.71h0a.761.761,0,0,1-.709.81h0a.171.171,0,0,1-.056.006h0A.771.771,0,0,1,1667.274,3686.029Zm-60.621-3.372a.763.763,0,0,1-.594-.9h0v0h0a.763.763,0,0,1,.9-.594h0a.761.761,0,0,1,.594.9h0a.764.764,0,0,1-.748.61h0A.721.721,0,0,1,1606.653,3682.657Zm60.055-.71a.764.764,0,0,1,.588-.9h0a.763.763,0,0,1,.9.587h0a.759.759,0,0,1-.589.9h0a.73.73,0,0,1-.156.017h0A.764.764,0,0,1,1666.708,3681.947Zm-59.024-3.394a.76.76,0,0,1-.465-.971h0a.765.765,0,0,1,.976-.465h0a.771.771,0,0,1,.465.976h0a.763.763,0,0,1-.721.5h0A.676.676,0,0,1,1607.684,3678.553Zm57.9-.572h0a.764.764,0,0,1,.46-.976h0a.768.768,0,0,1,.976.46h0a.764.764,0,0,1-.46.976h0a.683.683,0,0,1-.255.044h0A.761.761,0,0,1,1665.588,3677.981Zm-56.319-3.35a.758.758,0,0,1-.327-1.025h0a.763.763,0,0,1,1.026-.327h0a.758.758,0,0,1,.327,1.026v.006a.759.759,0,0,1-.677.41h0A.726.726,0,0,1,1609.27,3674.631Zm54.666-.421v0a.762.762,0,0,1,.321-1.026h0a.769.769,0,0,1,1.031.322h0a.77.77,0,0,1-.321,1.032h0a.827.827,0,0,1-.355.083h0A.768.768,0,0,1,1663.936,3674.21Zm-52.558-3.244a.756.756,0,0,1-.182-1.059h0a.756.756,0,0,1,1.058-.183h0a.757.757,0,0,1,.183,1.06h0a.756.756,0,0,1-.621.327h0A.762.762,0,0,1,1611.377,3670.966Zm50.406-.271a.762.762,0,0,1,.177-1.065h0a.764.764,0,0,1,1.065.183h0a.769.769,0,0,1-.177,1.065h0a.778.778,0,0,1-.444.138h0A.755.755,0,0,1,1661.784,3670.694Zm-47.822-3.073a.756.756,0,0,1-.038-1.075h0a.761.761,0,0,1,1.075-.039h0a.758.758,0,0,1,.039,1.076h0a.768.768,0,0,1-.56.244h0A.744.744,0,0,1,1613.962,3667.622Zm45.21-.116a.762.762,0,0,1,.033-1.076h0a.764.764,0,0,1,1.082.033h0a.761.761,0,0,1-.034,1.075h0a.773.773,0,0,1-.521.212h0A.765.765,0,0,1,1659.172,3667.506Zm-42.2-2.845a.766.766,0,0,1,.111-1.076h0a.76.76,0,0,1,1.071.111h0a.764.764,0,0,1-.105,1.071h0a.765.765,0,0,1-.483.172h0A.765.765,0,0,1,1616.973,3664.66Zm39.182.04h0a.76.76,0,0,1-.111-1.071h0a.765.765,0,0,1,1.07-.117h0a.767.767,0,0,1,.111,1.076h0a.772.772,0,0,1-.594.283h0A.744.744,0,0,1,1656.155,3664.7Zm-35.8-2.568a.765.765,0,0,1,.255-1.049h0a.76.76,0,0,1,1.048.255h0a.761.761,0,0,1-.255,1.048h0a.782.782,0,0,1-.393.111h0A.768.768,0,0,1,1620.356,3662.132Zm32.426.194a.758.758,0,0,1-.255-1.048h0a.77.77,0,0,1,1.048-.256h0a.768.768,0,0,1,.255,1.05h0a.759.759,0,0,1-.655.365h0A.732.732,0,0,1,1652.783,3662.325Zm-28.727-2.235a.768.768,0,0,1,.393-1.009h0a.766.766,0,0,1,1,.4h0a.765.765,0,0,1-.394,1h0a.821.821,0,0,1-.305.061h0A.763.763,0,0,1,1624.055,3660.09Zm25.067.344h0a.759.759,0,0,1-.4-1h0a.763.763,0,0,1,1-.4h0a.757.757,0,0,1,.394,1h0a.763.763,0,0,1-.7.455h0A.715.715,0,0,1,1649.122,3660.435ZM1628,3658.566a.756.756,0,0,1,.528-.937h0a.764.764,0,0,1,.942.527h0a.767.767,0,0,1-.532.943l.006-.006a.7.7,0,0,1-.211.033h0A.761.761,0,0,1,1628,3658.566Zm17.237.5a.757.757,0,0,1-.532-.937h0a.755.755,0,0,1,.937-.532h0a.764.764,0,0,1,.532.937h0a.765.765,0,0,1-.738.56h0A.833.833,0,0,1,1645.235,3659.065Zm-13.121-1.464a.761.761,0,0,1,.648-.859h0a.759.759,0,0,1,.86.654h0a.762.762,0,0,1-.649.86h0a.638.638,0,0,1-.105.006h0A.759.759,0,0,1,1632.114,3657.6Zm9.084.638a.764.764,0,0,1-.654-.86h0a.762.762,0,0,1,.854-.655h0a.767.767,0,0,1,.654.86h0a.758.758,0,0,1-.754.659h0A.682.682,0,0,1,1641.2,3658.239Zm-4.115-.272a.765.765,0,0,1-.766-.76h0a.767.767,0,0,1,.766-.765h0a.766.766,0,0,1,.76.765h0a.761.761,0,0,1-.76.76Zm0-1.525Z" transform="translate(-1605.475 -3656.441)"/></g><g transform="translate(39.723 39.674)"><path d="M1637.421,3715.23a.831.831,0,0,1,.832-.832h.044c.022,0,.044-.005.061-.005h0a.839.839,0,0,1,.838.832h0a.831.831,0,0,1-.832.832h-.111v.006h0A.834.834,0,0,1,1637.421,3715.23Zm-3.572.466h0a.83.83,0,0,1-.688-.954h0a.838.838,0,0,1,.959-.687h0a.833.833,0,0,1,.682.959h0a.831.831,0,0,1-.815.7h0A.606.606,0,0,1,1633.849,3715.7Zm7.958-.7a.833.833,0,0,1,.682-.959h0a.835.835,0,0,1,.959.682h0a.829.829,0,0,1-.682.959h0a.592.592,0,0,1-.139.011h0A.832.832,0,0,1,1641.807,3715Zm-12.245-.377a.837.837,0,0,1-.516-1.059h0a.826.826,0,0,1,1.054-.516h0a.833.833,0,0,1,.521,1.054h0a.843.843,0,0,1-.788.565h0A.915.915,0,0,1,1629.562,3714.62Zm16.427-.555a.84.84,0,0,1,.516-1.06h0a.835.835,0,0,1,1.059.517h0a.831.831,0,0,1-.516,1.058h0a.907.907,0,0,1-.272.045h0A.839.839,0,0,1,1645.989,3714.065Zm-20.475-1.226h0a.833.833,0,0,1-.338-1.126h0a.838.838,0,0,1,1.131-.338h0a.832.832,0,0,1,.333,1.132h0a.83.83,0,0,1-.733.432h0A.821.821,0,0,1,1625.514,3712.839Zm24.446-.383a.835.835,0,0,1,.327-1.131h0a.832.832,0,0,1,1.131.333h0a.832.832,0,0,1-.332,1.131h0a.822.822,0,0,1-.394.1h0A.832.832,0,0,1,1649.959,3712.456Zm-28.145-2.035a.824.824,0,0,1-.144-1.169h0a.827.827,0,0,1,1.164-.144h0a.834.834,0,0,1,.145,1.169h0a.837.837,0,0,1-.654.317h0A.82.82,0,0,1,1621.815,3710.421Zm31.794-.21a.83.83,0,0,1,.138-1.165h0a.831.831,0,0,1,1.171.139h0a.833.833,0,0,1-.145,1.17h0a.838.838,0,0,1-.51.177h0A.828.828,0,0,1,1653.609,3710.211Zm-35.05-2.784a.834.834,0,0,1,.05-1.176h0a.832.832,0,0,1,1.176.05h0a.832.832,0,0,1-.05,1.176h0a.838.838,0,0,1-.56.216h0A.837.837,0,0,1,1618.559,3707.427Zm38.283-.028a.827.827,0,0,1-.055-1.175h0a.83.83,0,0,1,1.175-.05h0a.831.831,0,0,1,.056,1.175h-.006a.828.828,0,0,1-.61.271h0A.808.808,0,0,1,1656.842,3707.4Zm-41-3.455a.837.837,0,0,1,.238-1.153h0a.837.837,0,0,1,1.154.238h0a.832.832,0,0,1-.239,1.154h0a.826.826,0,0,1-.455.138h0A.835.835,0,0,1,1615.842,3703.944Zm43.729.15a.823.823,0,0,1-.244-1.148h0a.827.827,0,0,1,1.147-.244h0a.832.832,0,0,1,.244,1.154h0a.83.83,0,0,1-.7.377h0A.793.793,0,0,1,1659.571,3704.094Zm-45.836-4.032a.836.836,0,0,1,.427-1.1h0a.828.828,0,0,1,1.093.427h0a.835.835,0,0,1-.421,1.1h0a.934.934,0,0,1-.339.066h0A.833.833,0,0,1,1613.734,3700.062Zm47.988.326a.829.829,0,0,1-.433-1.1h0a.828.828,0,0,1,1.093-.427h0a.831.831,0,0,1,.433,1.093h0a.838.838,0,0,1-.766.5h0A.842.842,0,0,1,1661.722,3700.388Zm-49.425-4.508a.825.825,0,0,1,.6-1.01h0a.828.828,0,0,1,1.009.6h0a.833.833,0,0,1-.6,1.015h0a.927.927,0,0,1-.205.022h0A.829.829,0,0,1,1612.3,3695.88Zm50.934.493a.828.828,0,0,1-.611-1v-.006a.832.832,0,0,1,1.01-.6h0a.835.835,0,0,1,.6,1.01h0a.834.834,0,0,1-.8.632h0A.835.835,0,0,1,1663.231,3696.374Zm-51.66-4.853a.829.829,0,0,1,.76-.9h0a.831.831,0,0,1,.893.76h0a.829.829,0,0,1-.76.9h0c-.022,0-.044.007-.066.007h0A.834.834,0,0,1,1611.571,3691.521Zm52.48.649a.827.827,0,0,1-.765-.893h0a.831.831,0,0,1,.893-.765h0a.835.835,0,0,1,.765.892h0a.835.835,0,0,1-.832.771h0C1664.1,3692.176,1664.074,3692.17,1664.052,3692.17Zm-51.726-4.17a.828.828,0,0,1-.76-.9h0a.827.827,0,0,1,.892-.76h0a.834.834,0,0,1,.766.9v0a.833.833,0,0,1-.832.765h-.066Zm50.944-.871a.835.835,0,0,1,.76-.9h0a.828.828,0,0,1,.9.759h0a.832.832,0,0,1-.754.9h-.072A.837.837,0,0,1,1663.27,3687.129Zm-50.384-3.378a.835.835,0,0,1-.6-1.009h0a.835.835,0,0,1,1.009-.6h0a.834.834,0,0,1,.6,1.009h0a.834.834,0,0,1-.81.633h0A.785.785,0,0,1,1612.885,3683.751Zm49.7-.709h0a.832.832,0,0,1,.6-1.01h0a.836.836,0,0,1,1.015.6h0a.83.83,0,0,1-.6,1.009h0a.671.671,0,0,1-.211.029h0A.828.828,0,0,1,1662.582,3683.042Zm-48.443-3.389a.835.835,0,0,1-.427-1.1h0a.828.828,0,0,1,1.093-.427h0a.838.838,0,0,1,.433,1.1h0a.836.836,0,0,1-.766.494h0A.9.9,0,0,1,1614.139,3679.653Zm47.084-.527h0a.838.838,0,0,1,.426-1.1h0a.84.84,0,0,1,1.1.427h0a.839.839,0,0,1-.428,1.1h0a.893.893,0,0,1-.333.066h0A.833.833,0,0,1,1661.224,3679.126Zm-45.166-3.31a.827.827,0,0,1-.244-1.148h0a.83.83,0,0,1,1.147-.244h0a.831.831,0,0,1,.245,1.153h0a.834.834,0,0,1-.694.377h0A.8.8,0,0,1,1616.058,3675.816Zm43.18-.327a.83.83,0,0,1,.238-1.148h0a.831.831,0,0,1,1.154.233h0a.831.831,0,0,1-.238,1.153h0a.817.817,0,0,1-.456.139h0A.836.836,0,0,1,1659.238,3675.489Zm-40.662-3.134a.832.832,0,0,1-.05-1.176h0a.823.823,0,0,1,1.176-.049h0a.826.826,0,0,1,.049,1.17h0a.809.809,0,0,1-.609.271h0A.841.841,0,0,1,1618.576,3672.355Zm38.105-.127h0a.837.837,0,0,1,.044-1.176h0a.844.844,0,0,1,1.181.044h0a.832.832,0,0,1-.05,1.175h0a.817.817,0,0,1-.566.223h0A.836.836,0,0,1,1656.681,3672.228Zm-35.05-2.885a.829.829,0,0,1,.139-1.165h0a.831.831,0,0,1,1.17.145h0a.829.829,0,0,1-.145,1.164h0a.806.806,0,0,1-.509.178h0A.821.821,0,0,1,1621.631,3669.344Zm31.994.083a.841.841,0,0,1-.15-1.17h0a.837.837,0,0,1,1.17-.145h0a.837.837,0,0,1,.15,1.165h0a.82.82,0,0,1-.66.322h0A.831.831,0,0,1,1653.625,3669.426Zm-28.494-2.545a.834.834,0,0,1,.338-1.131h0a.835.835,0,0,1,1.126.339h0a.833.833,0,0,1-.332,1.125h0a.881.881,0,0,1-.4.1h0A.831.831,0,0,1,1625.131,3666.881Zm25.023.283a.825.825,0,0,1-.339-1.125h0a.826.826,0,0,1,1.126-.339h0a.831.831,0,0,1,.338,1.126h0a.838.838,0,0,1-.738.438h0A.815.815,0,0,1,1650.154,3667.164Zm-21.163-2.135a.833.833,0,0,1,.515-1.059h0a.831.831,0,0,1,1.06.515h0a.831.831,0,0,1-.516,1.054h0a.773.773,0,0,1-.271.05h0A.837.837,0,0,1,1628.991,3665.029Zm17.358.478h0a.83.83,0,0,1-.516-1.054h0a.824.824,0,0,1,1.053-.522h0a.838.838,0,0,1,.522,1.06h0a.838.838,0,0,1-.788.56h0A.79.79,0,0,1,1646.35,3665.506Zm-13.238-1.67a.83.83,0,0,1,.682-.959h0a.83.83,0,0,1,.954.682h0a.832.832,0,0,1-.683.96h0a1.2,1.2,0,0,1-.138.011h0A.827.827,0,0,1,1633.111,3663.836Zm9.217.666h.006a.832.832,0,0,1-.688-.954h0a.826.826,0,0,1,.954-.688h0a.83.83,0,0,1,.687.954h0a.836.836,0,0,1-.82.7h0A1.193,1.193,0,0,1,1642.328,3664.5Zm-4.132-.327a.83.83,0,0,1-.832-.832h0a.83.83,0,0,1,.832-.832h0a.825.825,0,0,1,.832.826h0a.839.839,0,0,1-.832.838Z" transform="translate(-1611.563 -3662.511)"/></g><g transform="translate(44.595 44.632)"><path d="M1638.434,3711.3a.9.9,0,0,1,.9-.9v.006h.028a.2.2,0,0,1,.056-.006h0a.9.9,0,0,1,.9.9h0a.9.9,0,0,1-.9.9h-.088A.9.9,0,0,1,1638.434,3711.3Zm-3.35.487a.9.9,0,0,1-.71-1.059h0a.9.9,0,0,1,1.06-.71h0a.9.9,0,0,1,.709,1.059h0a.9.9,0,0,1-.882.727h0A1,1,0,0,1,1635.084,3711.792Zm7.537-.727a.9.9,0,0,1,.7-1.058h0a.9.9,0,0,1,1.059.7h0a.9.9,0,0,1-.7,1.059h0a.643.643,0,0,1-.177.022h0A.9.9,0,0,1,1642.621,3711.064Zm-11.63-.515a.9.9,0,0,1-.487-1.176h0a.9.9,0,0,1,1.181-.488h0a.9.9,0,0,1,.482,1.176h0a.894.894,0,0,1-.832.56h0A.836.836,0,0,1,1630.991,3710.549Zm15.6-.515a.906.906,0,0,1,.482-1.182h0a.9.9,0,0,1,1.181.483h0a.9.9,0,0,1-.483,1.182h0a.981.981,0,0,1-.349.072h0A.908.908,0,0,1,1646.586,3710.034Zm-19.366-1.5h0a.907.907,0,0,1-.244-1.254h0a.9.9,0,0,1,1.248-.244h0a.9.9,0,0,1,.249,1.248h0a.9.9,0,0,1-.748.4h0A.935.935,0,0,1,1627.219,3708.537Zm23.055-.295a.906.906,0,0,1,.244-1.253h0a.9.9,0,0,1,1.254.244h0a.9.9,0,0,1-.245,1.248h0a.883.883,0,0,1-.5.155h0A.91.91,0,0,1,1650.274,3708.242Zm-26.355-2.417h0a.9.9,0,0,1,0-1.276h0a.9.9,0,0,1,1.275,0h0a.9.9,0,0,1,0,1.276h0a.9.9,0,0,1-.631.26h0A.906.906,0,0,1,1623.92,3705.825Zm29.626-.061a.9.9,0,0,1-.006-1.275h0a.9.9,0,0,1,1.276-.006h0a.9.9,0,0,1,.006,1.275h0a.907.907,0,0,1-.644.267h0A.911.911,0,0,1,1653.546,3705.763Zm-32.343-3.244h0a.9.9,0,0,1,.244-1.248h0a.907.907,0,0,1,1.254.244h0a.906.906,0,0,1-.245,1.253h0a.939.939,0,0,1-.5.15h0A.9.9,0,0,1,1621.2,3702.519Zm35.072.177a.9.9,0,0,1-.256-1.248h0a.9.9,0,0,1,1.248-.255h0a.9.9,0,0,1,.256,1.248h0a.9.9,0,0,1-.755.4h0A.892.892,0,0,1,1656.275,3702.7Zm-37.091-3.943a.894.894,0,0,1,.483-1.176h0a.9.9,0,0,1,1.182.482v.006a.9.9,0,0,1-.488,1.176h0a.952.952,0,0,1-.344.066h0A.9.9,0,0,1,1619.183,3698.754Zm39.165.4a.9.9,0,0,1-.488-1.176h0a.9.9,0,0,1,1.176-.488h0a.9.9,0,0,1,.487,1.176h.006a.907.907,0,0,1-.837.56h0A.868.868,0,0,1,1658.349,3699.159Zm-40.412-4.492v-.005h0a.9.9,0,0,1,.71-1.06h0a.9.9,0,0,1,1.059.71h0a.9.9,0,0,1-.7,1.059h0a.983.983,0,0,1-.177.017h0A.907.907,0,0,1,1617.936,3694.666Zm41.76.615a.9.9,0,0,1-.716-1.053h0a.9.9,0,0,1,1.059-.71h0a.9.9,0,0,1,.71,1.054h0a.9.9,0,0,1-.882.732h0A.591.591,0,0,1,1659.7,3695.281Zm-42.177-4.869a.9.9,0,0,1,.9-.9h0a.9.9,0,0,1,.9.9h0a.9.9,0,0,1-.9.9h0A.9.9,0,0,1,1617.52,3690.413Zm41.832-.088a.9.9,0,0,1,.9-.9h0a.907.907,0,0,1,.9.9h0a.9.9,0,0,1-.9.9h0A.9.9,0,0,1,1659.352,3690.324Zm-40.712-3.112a.9.9,0,0,1-.71-1.053h0a.9.9,0,0,1,1.059-.71h0a.9.9,0,0,1,.71,1.054h0a.9.9,0,0,1-.882.731h0A.626.626,0,0,1,1618.641,3687.212Zm40.318-.792a.9.9,0,0,1,.7-1.06h0a.9.9,0,0,1,1.059.7h.006a.912.912,0,0,1-.71,1.065h0a1.023,1.023,0,0,1-.177.016h0A.9.9,0,0,1,1658.959,3686.42Zm-39.3-3.178a.9.9,0,0,1-.494-1.175h0a.911.911,0,0,1,1.182-.494h0a.913.913,0,0,1,.488,1.181h0a.91.91,0,0,1-.838.555h0A.922.922,0,0,1,1619.655,3683.242Zm38.155-.566a.9.9,0,0,1,.482-1.181h0a.9.9,0,0,1,1.181.483h0a.906.906,0,0,1-.487,1.181h0a.916.916,0,0,1-.344.067h0A.9.9,0,0,1,1657.811,3682.676Zm-36.386-3.133a.914.914,0,0,1-.249-1.254h0a.908.908,0,0,1,1.254-.249h0a.908.908,0,0,1,.249,1.254h0a.9.9,0,0,1-.755.4h0A.923.923,0,0,1,1621.424,3679.543Zm34.522-.323h.007a.892.892,0,0,1,.238-1.247h0a.9.9,0,0,1,1.253.244h0a.9.9,0,0,1-.244,1.248h0a.884.884,0,0,1-.5.156h0A.9.9,0,0,1,1655.947,3679.22Zm-32.06-2.961a.9.9,0,0,1,0-1.275h0a.9.9,0,0,1,1.276,0h0a.907.907,0,0,1,0,1.275h0a.922.922,0,0,1-.638.262h0A.886.886,0,0,1,1623.887,3676.259Zm29.565-.06a.9.9,0,0,1-.006-1.276h0a.9.9,0,0,1,1.276-.006h0a.9.9,0,0,1,.006,1.276h0a.9.9,0,0,1-.638.267h0A.913.913,0,0,1,1653.452,3676.2Zm-26.514-2.678a.907.907,0,0,1,.244-1.254h.006a.9.9,0,0,1,1.248.244h0a.906.906,0,0,1-.244,1.253h0a.939.939,0,0,1-.5.15h0A.911.911,0,0,1,1626.937,3673.521Zm23.475.194a.9.9,0,0,1-.249-1.248h0a.9.9,0,0,1,1.248-.249h0a.9.9,0,0,1,.254,1.248h0a.909.909,0,0,1-.754.405h0A.929.929,0,0,1,1650.412,3673.714Zm-19.948-2.3a.9.9,0,0,1,.482-1.176h0a.9.9,0,0,1,1.182.483h0a.908.908,0,0,1-.488,1.181h0a.921.921,0,0,1-.344.066h0A.892.892,0,0,1,1630.465,3671.418Zm16.488.454a.9.9,0,0,1-.488-1.175h0a.9.9,0,0,1,1.176-.488h0a.9.9,0,0,1,.487,1.176h0a.9.9,0,0,1-.832.554h0A.907.907,0,0,1,1646.952,3671.872Zm-12.623-1.818a.906.906,0,0,1,.71-1.06h0a.9.9,0,0,1,1.059.7h0a.9.9,0,0,1-.71,1.065h0a.9.9,0,0,1-.177.017h0A.91.91,0,0,1,1634.33,3670.054Zm8.868.692a.905.905,0,0,1-.71-1.059h0a.893.893,0,0,1,1.053-.71h.006a.9.9,0,0,1,.71,1.054h0a.9.9,0,0,1-.882.731h0A.9.9,0,0,1,1643.2,3670.747Zm-3.9-.371Zm-.9-.9a.9.9,0,0,1,.9-.9h0a.9.9,0,0,1,.9.9h0a.9.9,0,0,1-.9.9h0A.9.9,0,0,1,1638.39,3669.471Z" transform="translate(-1617.52 -3668.573)"/></g><g transform="translate(49.553 49.589)"><path d="M1639.472,3707.378a.971.971,0,0,1,.97-.971h.061a.97.97,0,0,1,.97.965h0a.964.964,0,0,1-.965.976h-.066A.968.968,0,0,1,1639.472,3707.378Zm-3.389.4a.966.966,0,0,1-.688-1.187h0a.973.973,0,0,1,1.188-.688h0a.972.972,0,0,1,.687,1.188h0a.969.969,0,0,1-.936.721h0A.981.981,0,0,1,1636.083,3707.777Zm7.592-.7a.977.977,0,0,1,.683-1.192h0a.974.974,0,0,1,1.192.687h0a.969.969,0,0,1-.683,1.187h0a1.023,1.023,0,0,1-.255.033h0A.971.971,0,0,1,1643.675,3707.079Zm-11.657-.981h0a.968.968,0,0,1-.355-1.326h0a.964.964,0,0,1,1.325-.355h0a.973.973,0,0,1,.355,1.325h0a.978.978,0,0,1-.842.483h0A.941.941,0,0,1,1632.018,3706.1Zm15.578-.383a.981.981,0,0,1,.349-1.331h0a.98.98,0,0,1,1.331.35h0a.98.98,0,0,1-.349,1.331h0a.974.974,0,0,1-.487.128h0A.979.979,0,0,1,1647.6,3705.714Zm-19.067-2.3a.968.968,0,0,1,0-1.376h0a.972.972,0,0,1,1.37,0h0a.977.977,0,0,1,0,1.376h0a.968.968,0,0,1-.687.283h0A.957.957,0,0,1,1628.529,3703.418Zm22.5-.044a.971.971,0,0,1-.006-1.37h0a.973.973,0,0,1,1.376-.006h0a.971.971,0,0,1,.006,1.37h0a.971.971,0,0,1-.693.289h0A.965.965,0,0,1,1651.029,3703.374Zm-25.184-3.444h0a.968.968,0,0,1,.355-1.326h0a.973.973,0,0,1,1.326.355h0a.971.971,0,0,1-.355,1.326h0a.987.987,0,0,1-.488.133h0A.972.972,0,0,1,1625.845,3699.93Zm27.9.3a.974.974,0,0,1-.361-1.326h0a.971.971,0,0,1,1.326-.361h0a.972.972,0,0,1,.361,1.325h0a.984.984,0,0,1-.843.488h0A.994.994,0,0,1,1653.746,3700.235Zm-29.587-4.365a.971.971,0,0,1,.682-1.192h0a.975.975,0,0,1,1.193.687h0a.972.972,0,0,1-.688,1.187h0a.947.947,0,0,1-.25.034h0A.966.966,0,0,1,1624.16,3695.87Zm31.4.621a.964.964,0,0,1-.688-1.182h0a.965.965,0,0,1,1.187-.692h0a.969.969,0,0,1,.688,1.186h0a.965.965,0,0,1-.937.72h0A.966.966,0,0,1,1655.555,3696.492Zm-31.972-4.986a.971.971,0,0,1,.97-.97h0a.971.971,0,0,1,.971.97h0a.967.967,0,0,1-.971.971h0A.971.971,0,0,1,1623.583,3691.505Zm31.777-.061h0a.965.965,0,0,1,.965-.971h0a.972.972,0,0,1,.976.965h0a.98.98,0,0,1-.971.977h0A.968.968,0,0,1,1655.36,3691.445Zm1.942-.006Zm-32.466-3.1a.97.97,0,0,1-.688-1.187h0a.972.972,0,0,1,1.187-.688h0a.968.968,0,0,1,.688,1.187h0a.965.965,0,0,1-.932.721h0A1.022,1.022,0,0,1,1624.836,3688.334Zm30.009-.744h0a.97.97,0,0,1,.682-1.192h0a.967.967,0,0,1,1.187.682h0a.968.968,0,0,1-.682,1.193h0a.99.99,0,0,1-.25.033h0A.965.965,0,0,1,1654.845,3687.59Zm-28.661-3.183a.972.972,0,0,1-.355-1.326h0a.966.966,0,0,1,1.326-.355h0a.966.966,0,0,1,.355,1.326h0a.967.967,0,0,1-.843.483h0A.977.977,0,0,1,1626.184,3684.408Zm27.158-.411h0a.976.976,0,0,1,.349-1.326h0a.976.976,0,0,1,1.332.35h0a.979.979,0,0,1-.355,1.332h0a.963.963,0,0,1-.483.127h0A.973.973,0,0,1,1653.342,3684Zm-24.834-3.034a.974.974,0,0,1,0-1.376h0a.979.979,0,0,1,1.375,0h0a.967.967,0,0,1,0,1.371h0a.954.954,0,0,1-.687.288h0A.969.969,0,0,1,1628.507,3680.963Zm22.455-.045a.971.971,0,0,1-.006-1.375h0a.977.977,0,0,1,1.375,0h0a.97.97,0,0,1,0,1.37h0a.959.959,0,0,1-.687.288h0A.967.967,0,0,1,1650.963,3680.918Zm-19.328-2.689a.971.971,0,0,1,.35-1.326h0a.972.972,0,0,1,1.331.355h0a.971.971,0,0,1-.354,1.325h0a.963.963,0,0,1-.488.134h0A.977.977,0,0,1,1631.635,3678.229Zm16.233.327a.983.983,0,0,1-.355-1.332h0a.974.974,0,0,1,1.326-.355h0a.971.971,0,0,1,.355,1.326h0a.971.971,0,0,1-.843.488h0A1.035,1.035,0,0,1,1647.868,3678.557Zm-12.506-2.151a.972.972,0,0,1,.687-1.194h0a.969.969,0,0,1,1.187.688h0a.969.969,0,0,1-.683,1.187h0a1,1,0,0,1-.255.034h0A.971.971,0,0,1,1635.362,3676.405Zm8.912.665h0a.969.969,0,0,1-.694-1.187h0a.972.972,0,0,1,1.188-.688h0a.972.972,0,0,1,.693,1.186h0a.977.977,0,0,1-.943.721h0A.937.937,0,0,1,1644.274,3677.071Zm-4.836-1.465a.971.971,0,0,1,.97-.971h0a.972.972,0,0,1,.971.971h0a.971.971,0,0,1-.965.971h0A.973.973,0,0,1,1639.438,3675.606Z" transform="translate(-1623.583 -3674.635)"/></g><g transform="translate(54.511 54.548)"><path d="M1641.569,3704.5h-.023a1.041,1.041,0,0,1-1.043-1.038h0a1.041,1.041,0,0,1,1.043-1.042h.039a1.032,1.032,0,0,1,1.043,1.036h0a1.04,1.04,0,0,1-1.031,1.043h-.027Zm-4.576-.9a1.034,1.034,0,0,1-.56-1.359h0a1.04,1.04,0,0,1,1.359-.561h0a1.038,1.038,0,0,1,.56,1.359h0a1.045,1.045,0,0,1-.959.644h0A1.006,1.006,0,0,1,1636.993,3703.591Zm7.786-.571a1.042,1.042,0,0,1,.561-1.364h0a1.036,1.036,0,0,1,1.358.559h0a1.04,1.04,0,0,1-.554,1.359h0a1.067,1.067,0,0,1-.4.083h0A1.048,1.048,0,0,1,1644.779,3703.02Zm-11.646-2.008a1.041,1.041,0,0,1,0-1.47h0a1.048,1.048,0,0,1,1.475,0h0a1.041,1.041,0,0,1,0,1.47h0a1.036,1.036,0,0,1-.738.3h0A1.037,1.037,0,0,1,1633.133,3701.012Zm15.384-.028a1.041,1.041,0,0,1-.006-1.47h0a1.036,1.036,0,0,1,1.47-.006h0a1.036,1.036,0,0,1,.006,1.47h0a1.027,1.027,0,0,1-.738.3h0A1.04,1.04,0,0,1,1648.517,3700.985Zm-17.963-3.827a1.038,1.038,0,0,1,.56-1.359h0a1.041,1.041,0,0,1,1.358.56h0a1.033,1.033,0,0,1-.559,1.359h0a1.035,1.035,0,0,1-.4.083h0A1.045,1.045,0,0,1,1630.554,3697.158Zm20.647.522a1.039,1.039,0,0,1-.571-1.354h0a1.045,1.045,0,0,1,1.358-.572h0a1.039,1.039,0,0,1,.566,1.359h0a1.045,1.045,0,0,1-.96.643h0A.99.99,0,0,1,1651.2,3697.68Zm-21.557-5.07a1.041,1.041,0,0,1,1.043-1.042h0a1.039,1.039,0,0,1,1.037,1.037h0a1.036,1.036,0,0,1-1.037,1.042h0A1.04,1.04,0,0,1,1629.645,3692.61Zm21.717-.044a1.041,1.041,0,0,1,1.038-1.043h0a1.036,1.036,0,0,1,1.042,1.037h0a1.038,1.038,0,0,1-1.03,1.043h0A1.046,1.046,0,0,1,1651.362,3692.566Zm-20.253-3.149a1.044,1.044,0,0,1-.566-1.359h0a1.043,1.043,0,0,1,1.359-.565h0a1.043,1.043,0,0,1,.566,1.359h0a1.045,1.045,0,0,1-.96.643h0A1.126,1.126,0,0,1,1631.109,3689.416Zm19.5-.6h0a1.037,1.037,0,0,1,.56-1.359h0a1.036,1.036,0,0,1,1.359.56h0a1.04,1.04,0,0,1-.554,1.358h0a1.038,1.038,0,0,1-.406.083h0A1.045,1.045,0,0,1,1650.609,3688.812Zm-17.486-3.145a1.037,1.037,0,0,1-.006-1.47h.006a1.035,1.035,0,0,1,1.47-.005h0a1.041,1.041,0,0,1,0,1.47h0a1.047,1.047,0,0,1-.738.31h0A1.05,1.05,0,0,1,1633.122,3685.667Zm15.35-.033a1.036,1.036,0,0,1-.005-1.47h0a1.046,1.046,0,0,1,1.47-.006h0a1.049,1.049,0,0,1,.006,1.476h0a1.06,1.06,0,0,1-.738.3h0A1.016,1.016,0,0,1,1648.473,3685.634Zm-12.062-2.662a1.042,1.042,0,0,1,.56-1.364h0a1.04,1.04,0,0,1,1.358.559h0a1.042,1.042,0,0,1-.56,1.364h0a1.089,1.089,0,0,1-.4.079h0A1.04,1.04,0,0,1,1636.411,3682.972Zm8.873.544a1.039,1.039,0,0,1-.565-1.359h0a1.037,1.037,0,0,1,1.353-.566h0a1.037,1.037,0,0,1,.566,1.359h0a1.032,1.032,0,0,1-.959.643h0A1.092,1.092,0,0,1,1645.284,3683.516Zm-4.8-1.775a1.04,1.04,0,0,1,1.037-1.042h0a1.04,1.04,0,0,1,1.043,1.037h0a1.036,1.036,0,0,1-1.037,1.043h0A1.044,1.044,0,0,1,1640.481,3681.741Z" transform="translate(-1629.645 -3680.698)"/></g><g transform="translate(59.562 59.854)"><path d="M1642.683,3700.719h-.012a1.109,1.109,0,0,1-1.109-1.109h0a1.107,1.107,0,0,1,1.065-1.109h.061a1.1,1.1,0,0,1,1.115,1.1h0a1.11,1.11,0,0,1-1.1,1.115h-.016Zm-4.47-1.625h0a1.1,1.1,0,0,1-.138-1.558h0a1.109,1.109,0,0,1,1.564-.139h0a1.114,1.114,0,0,1,.138,1.564h0a1.116,1.116,0,0,1-.854.394h0A1.083,1.083,0,0,1,1638.212,3699.094Zm7.376-.144a1.113,1.113,0,0,1,.128-1.564h0a1.107,1.107,0,0,1,1.564.127h0a1.114,1.114,0,0,1-.128,1.565h0a1.107,1.107,0,0,1-.715.26h0A1.122,1.122,0,0,1,1645.588,3698.95Zm-9.749-3.96a1.1,1.1,0,0,1,.9-1.286h0a1.109,1.109,0,0,1,1.281.9h0a1.106,1.106,0,0,1-.9,1.287h0a1.155,1.155,0,0,1-.194.017h0A1.1,1.1,0,0,1,1635.839,3694.99Zm12.389.877a1.108,1.108,0,0,1-.9-1.282h0a1.1,1.1,0,0,1,1.281-.9h0a1.1,1.1,0,0,1,.9,1.281h0v-.005h0a1.11,1.11,0,0,1-1.093.926h0A1.194,1.194,0,0,1,1648.228,3695.867Zm-11.163-4.038a1.108,1.108,0,0,1-.411-1.514h0a1.106,1.106,0,0,1,1.514-.4h0a1.106,1.106,0,0,1,.41,1.514h0a1.114,1.114,0,0,1-.964.554h0A1.085,1.085,0,0,1,1637.065,3691.829Zm9.688-.421h0a1.114,1.114,0,0,1,.4-1.52h0a1.118,1.118,0,0,1,1.52.4h0v.006h0a1.11,1.11,0,0,1-.4,1.514h0a1.086,1.086,0,0,1-.56.15h0A1.1,1.1,0,0,1,1646.753,3691.408Zm-7.127-2.723a1.11,1.11,0,0,1,.66-1.425h0a1.1,1.1,0,0,1,1.42.659h0a1.109,1.109,0,0,1-.66,1.425h0a1.13,1.13,0,0,1-.377.067h0A1.1,1.1,0,0,1,1639.626,3688.684Zm4.648.649a1.109,1.109,0,0,1-.666-1.419h0a1.109,1.109,0,0,1,1.42-.661h0a1.105,1.105,0,0,1,.666,1.42h0a1.109,1.109,0,0,1-1.043.731h0A1.034,1.034,0,0,1,1644.274,3689.333Z" transform="translate(-1635.821 -3687.186)"/></g></svg>