<?xml version="1.0"?>
<svg xmlns="http://www.w3.org/2000/svg" height="512px" viewBox="0 0 456 456" width="512px" class=""><g><path d="m228 320c-11.046875 0-20-8.953125-20-20v-88c0-11.046875 8.953125-20 20-20s20 8.953125 20 20v88c0 11.046875-8.953125 20-20 20zm0 0" fill="#40c4ff" data-original="#40C4FF" class="active-path" data-old_color="#40c4ff" style="fill:#000000"/><path d="m228 324c-13.230469 0-24-10.769531-24-24v-88c0-13.230469 10.769531-24 24-24s24 10.769531 24 24v88c0 13.230469-10.769531 24-24 24zm0-128c-8.824219 0-16 7.175781-16 16v88c0 8.824219 7.175781 16 16 16s16-7.175781 16-16v-88c0-8.824219-7.175781-16-16-16zm0 0" fill="#263238" data-original="#263238" class=""/><path d="m248 156c0 11.046875-8.953125 20-20 20s-20-8.953125-20-20 8.953125-20 20-20 20 8.953125 20 20zm0 0" fill="#40c4ff" data-original="#40C4FF" class="active-path" data-old_color="#40c4ff" style="fill:#000000"/><g fill="#263238"><path d="m228 180c-13.230469 0-24-10.769531-24-24s10.769531-24 24-24 24 10.769531 24 24-10.769531 24-24 24zm0-40c-8.824219 0-16 7.175781-16 16s7.175781 16 16 16 16-7.175781 16-16-7.175781-16-16-16zm0 0" data-original="#000000" class=""/><path d="m4 232c-2.207031 0-4-1.792969-4-4 0-125.71875 102.28125-228 228-228 2.207031 0 4 1.792969 4 4s-1.792969 4-4 4c-121.304688 0-220 98.695312-220 220 0 2.207031-1.792969 4-4 4zm0 0" data-original="#000000" class=""/><path d="m252 8h-8c-2.207031 0-4-1.792969-4-4s1.792969-4 4-4h8c2.207031 0 4 1.792969 4 4s-1.792969 4-4 4zm0 0" data-original="#000000" class=""/><path d="m228 456c-2.207031 0-4-1.792969-4-4s1.792969-4 4-4c121.304688 0 220-98.695312 220-220 0-2.207031 1.792969-4 4-4s4 1.792969 4 4c0 125.71875-102.28125 228-228 228zm0 0" data-original="#000000" class=""/><path d="m212 456h-8c-2.207031 0-4-1.792969-4-4s1.792969-4 4-4h8c2.207031 0 4 1.792969 4 4s-1.792969 4-4 4zm0 0" data-original="#000000" class=""/></g><path d="m228 36c-106.039062 0-192 85.960938-192 192s85.960938 192 192 192 192-85.960938 192-192-85.960938-192-192-192zm0 344c-83.945312 0-152-68.054688-152-152s68.054688-152 152-152 152 68.054688 152 152-68.054688 152-152 152zm0 0" fill="#ffd740" data-original="#FFD740" class="" style="fill:#FFD740" data-old_color="#ffd740"/><path d="m228 424c-108.078125 0-196-87.921875-196-196s87.921875-196 196-196 196 87.921875 196 196-87.921875 196-196 196zm0-384c-103.664062 0-188 84.335938-188 188s84.335938 188 188 188 188-84.335938 188-188-84.335938-188-188-188zm0 344c-86.015625 0-156-69.984375-156-156s69.984375-156 156-156 156 69.984375 156 156-69.984375 156-156 156zm0-304c-81.609375 0-148 66.390625-148 148s66.390625 148 148 148 148-66.390625 148-148-66.390625-148-148-148zm0 0" fill="#263238" data-original="#263238" class=""/><path d="m396 24h-32c-2.207031 0-4-1.792969-4-4s1.792969-4 4-4h32c2.207031 0 4 1.792969 4 4s-1.792969 4-4 4zm0 0" fill="#263238" data-original="#263238" class=""/><path d="m380 40c-2.207031 0-4-1.792969-4-4v-32c0-2.207031 1.792969-4 4-4s4 1.792969 4 4v32c0 2.207031-1.792969 4-4 4zm0 0" fill="#263238" data-original="#263238" class=""/><path d="m452 76h-32c-2.207031 0-4-1.792969-4-4s1.792969-4 4-4h32c2.207031 0 4 1.792969 4 4s-1.792969 4-4 4zm0 0" fill="#263238" data-original="#263238" class=""/><path d="m436 92c-2.207031 0-4-1.792969-4-4v-32c0-2.207031 1.792969-4 4-4s4 1.792969 4 4v32c0 2.207031-1.792969 4-4 4zm0 0" fill="#263238" data-original="#263238" class=""/></g> </svg>
