<?xml version="1.0"?>
<svg xmlns="http://www.w3.org/2000/svg" height="512px" viewBox="0 0 64 64" width="512px" class=""><g><g id="Filled_outline" data-name="Filled outline"><path d="m3 3h58v58h-58z" fill="#394d5c" data-original="#394D5C" class="" data-old_color="#394d5c" style="fill:#FFFFFF"/><path d="m3 3h16v8h-16z" fill="#7d8d9c" data-original="#7D8D9C" class="" data-old_color="#7d8d9c" style="fill:#FFFFFF"/><path d="m6 6h2v2h-2z" fill="#e1462b" data-original="#E1462B" class="" data-old_color="#e1462b" style="fill:#FFCC00"/><path d="m10 6h2v2h-2z" fill="#f9bb4b" data-original="#F9BB4B"/><path d="m14 6h2v2h-2z" fill="#55b56a" data-original="#55B56A"/><path d="m19 3h42v8h-42z" fill="#aabece" data-original="#AABECE" class="" data-old_color="#aabece" style="fill:#FFFFFF"/><rect fill="#e1462b" height="20" rx="4" width="50" x="7" y="23" data-original="#E1462B" class="" data-old_color="#e1462b" style="fill:#FFCC00"/><path d="m50 49 2-2h-7v7l2-2 4 4 3-3z" fill="#f4f4e6" data-original="#F4F4E6" class="active-path" data-old_color="#f4f4e6" style="fill:#FFCC00"/><g fill="#fcf05a"><path d="m31 15h2v4h-2z" data-original="#000000" class="" style="fill:#000000" data-old_color="#000000"/><path d="m34.379 17.5h4.243v2h-4.243z" transform="matrix(.707 -.707 .707 .707 -2.391 31.228)" data-original="#000000" class="" style="fill:#000000" data-old_color="#000000"/><path d="m26.5 16.379h2v4.243h-2z" transform="matrix(.707 -.707 .707 .707 -5.027 24.864)" data-original="#000000" class="" style="fill:#000000" data-old_color="#000000"/><path d="m31 48h2v4h-2z" data-original="#000000" class="" style="fill:#000000" data-old_color="#000000"/><path d="m35.5 46.379h2v4.243h-2z" transform="matrix(.707 -.707 .707 .707 -23.604 40.015)" data-original="#000000" class="" style="fill:#000000" data-old_color="#000000"/><path d="m25.379 47.5h4.243v2h-4.243z" transform="matrix(.707 -.707 .707 .707 -26.24 33.651)" data-original="#000000" class="" style="fill:#000000" data-old_color="#000000"/></g><path d="m15 38h-5v-2h4v-2h-3a1 1 0 0 1 -1-1v-4a1 1 0 0 1 1-1h5v2h-4v2h3a1 1 0 0 1 1 1v4a1 1 0 0 1 -1 1z" fill="#f4f4e6" data-original="#F4F4E6" class="active-path" data-old_color="#f4f4e6" style="fill:#FFCC00"/><path d="m24 38h-5a1 1 0 0 1 -1-1v-9h2v8h3v-8h2v9a1 1 0 0 1 -1 1z" fill="#f4f4e6" data-original="#F4F4E6" class="active-path" data-old_color="#f4f4e6" style="fill:#FFCC00"/><path d="m34 34h-6a1 1 0 0 1 -1-1v-4a1 1 0 0 1 1-1h6a1 1 0 0 1 1 1v4a1 1 0 0 1 -1 1zm-5-2h4v-2h-4z" fill="#f4f4e6" data-original="#F4F4E6" class="active-path" data-old_color="#f4f4e6" style="fill:#FFCC00"/><path d="m34 38h-6a1 1 0 0 1 -1-1v-4a1 1 0 0 1 1-1h6a1 1 0 0 1 1 1v4a1 1 0 0 1 -1 1zm-5-2h4v-2h-4z" fill="#f4f4e6" data-original="#F4F4E6" class="active-path" data-old_color="#f4f4e6" style="fill:#FFCC00"/><path d="m53 36h-9l-6 2 3-6v-4h12z" fill="#f4f4e6" data-original="#F4F4E6" class="active-path" data-old_color="#f4f4e6" style="fill:#FFCC00"/><path d="m48 31h2v2h-2z" fill="#394d5c" data-original="#394D5C" class="" data-old_color="#394d5c" style="fill:#FFFFFF"/><path d="m44 31h2v2h-2z" fill="#394d5c" data-original="#394D5C" class="" data-old_color="#394d5c" style="fill:#FFFFFF"/><path d="m6 6h2v2h-2z" data-original="#000000" class="" style="fill:#000000" data-old_color="#000000"/><path d="m10 6h2v2h-2z" data-original="#000000" class="" style="fill:#000000" data-old_color="#000000"/><path d="m14 6h2v2h-2z" data-original="#000000" class="" style="fill:#000000" data-old_color="#000000"/><path d="m61 2h-58a1 1 0 0 0 -1 1v58a1 1 0 0 0 1 1h58a1 1 0 0 0 1-1v-58a1 1 0 0 0 -1-1zm-1 8h-40v-6h40zm-56-6h14v6h-14zm0 56v-48h56v48z" data-original="#000000" class="" style="fill:#000000" data-old_color="#000000"/><path d="m53 22h-42a5.006 5.006 0 0 0 -5 5v12a5.006 5.006 0 0 0 5 5h42a5.006 5.006 0 0 0 5-5v-12a5.006 5.006 0 0 0 -5-5zm3 17a3 3 0 0 1 -3 3h-42a3 3 0 0 1 -3-3v-12a3 3 0 0 1 3-3h42a3 3 0 0 1 3 3z" data-original="#000000" class="" style="fill:#000000" data-old_color="#000000"/><path d="m51.414 49 1.293-1.293a1 1 0 0 0 -.707-1.707h-7a1 1 0 0 0 -1 1v7a1 1 0 0 0 1.707.707l1.293-1.293 3.293 3.293a1 1 0 0 0 1.414 0l3-3a1 1 0 0 0 0-1.414zm-.414 5.586-3.293-3.293a1 1 0 0 0 -1.414 0l-.293.293v-3.586h3.586l-.293.293a1 1 0 0 0 0 1.414l3.293 3.293z" data-original="#000000" class="" style="fill:#000000" data-old_color="#000000"/><path d="m31 15h2v4h-2z" data-original="#000000" class="" style="fill:#000000" data-old_color="#000000"/><path d="m34.379 17.5h4.243v2h-4.243z" transform="matrix(.707 -.707 .707 .707 -2.391 31.228)" data-original="#000000" class="" style="fill:#000000" data-old_color="#000000"/><path d="m26.5 16.379h2v4.243h-2z" transform="matrix(.707 -.707 .707 .707 -5.027 24.864)" data-original="#000000" class="" style="fill:#000000" data-old_color="#000000"/><path d="m31 48h2v4h-2z" data-original="#000000" class="" style="fill:#000000" data-old_color="#000000"/><path d="m35.5 46.379h2v4.243h-2z" transform="matrix(.707 -.707 .707 .707 -23.604 40.015)" data-original="#000000" class="" style="fill:#000000" data-old_color="#000000"/><path d="m25.379 47.5h4.243v2h-4.243z" transform="matrix(.707 -.707 .707 .707 -26.24 33.651)" data-original="#000000" class="" style="fill:#000000" data-old_color="#000000"/><path d="m10 29v4a1 1 0 0 0 1 1h3v2h-4v2h5a1 1 0 0 0 1-1v-4a1 1 0 0 0 -1-1h-3v-2h4v-2h-5a1 1 0 0 0 -1 1z" data-original="#000000" class="" style="fill:#000000" data-old_color="#000000"/><path d="m23 36h-3v-8h-2v9a1 1 0 0 0 1 1h5a1 1 0 0 0 1-1v-9h-2z" data-original="#000000" class="" style="fill:#000000" data-old_color="#000000"/><path d="m34 28h-6a1 1 0 0 0 -1 1v8a1 1 0 0 0 1 1h6a1 1 0 0 0 1-1v-8a1 1 0 0 0 -1-1zm-5 2h4v2h-4zm4 6h-4v-2h4z" data-original="#000000" class="" style="fill:#000000" data-old_color="#000000"/><path d="m53 27h-12a1 1 0 0 0 -1 1v3.764l-2.9 5.789a1 1 0 0 0 .9 1.447 1.014 1.014 0 0 0 .316-.051l5.846-1.949h8.838a1 1 0 0 0 1-1v-8a1 1 0 0 0 -1-1zm-1 8h-8a1 1 0 0 0 -.316.051l-3.71 1.237 1.926-3.841a1 1 0 0 0 .1-.447v-3h10z" data-original="#000000" class="" style="fill:#000000" data-old_color="#000000"/><path d="m48 31h2v2h-2z" data-original="#000000" class="" style="fill:#000000" data-old_color="#000000"/><path d="m44 31h2v2h-2z" data-original="#000000" class="" style="fill:#000000" data-old_color="#000000"/></g></g> </svg>
