<svg width="64" height="64" viewBox="0 0 64 64" xmlns="http://www.w3.org/2000/svg"><title>pictogram/64/pictogramManage64</title><g fill="none" fill-rule="evenodd"><path d="M0 0h64v64H0z"/><g stroke="#4F4C4D" stroke-width="2"><path d="M7 19h39M18 32h39M7 45h19M38 45h19" stroke-linecap="square"/><path d="M47 19c0-2.757 2.243-5 5-5 2.756 0 5 2.243 5 5 0 2.756-2.244 5-5 5-2.757 0-5-2.244-5-5zM7 32c0-2.757 2.243-5 5-5 2.756 0 5 2.243 5 5 0 2.756-2.244 5-5 5-2.757 0-5-2.244-5-5z" fill="#FFF"/><path d="M27 45c0-2.757 2.243-5 5-5 2.756 0 5 2.243 5 5 0 2.756-2.244 5-5 5-2.757 0-5-2.244-5-5z" fill="#FC0"/></g></g></svg>