<svg height="511pt" viewBox="-96 0 511 511.99994" width="511pt" xmlns="http://www.w3.org/2000/svg"><path d="m198.398438 329.492188h-15.222657v93.710937l15.222657 20.292969zm0 0" fill="#cf301b"/><path d="m122.285156 329.492188h15.222656v93.710937l-15.222656 20.292969zm0 0" fill="#ff4128"/><path d="m99.449219 180.140625c-46.167969 0-83.726563-37.558594-83.726563-83.726563 0-4.203124-3.40625-7.613281-7.609375-7.613281-4.207031 0-7.613281 3.410157-7.613281 7.613281 0 54.558594 44.386719 98.949219 98.949219 98.949219h60.890625v-15.222656zm0 0" fill="#ff4128"/><path d="m312.570312 88.800781c-4.203124 0-7.609374 3.410157-7.609374 7.613281 0 46.167969-37.558594 83.726563-83.726563 83.726563h-60.894531v15.222656h60.894531c54.558594 0 98.949219-44.390625 98.949219-98.949219 0-4.203124-3.410156-7.613281-7.613282-7.613281zm0 0" fill="#cf301b"/><path d="m228.050781 108.6875c-.003906-3.550781-1.234375-6.808594-3.273437-9.398438l-28.566406-36.214843-35.871094 73.9375h60.894531c8.40625 0 15.222656-6.316407 15.222656-14.726563 0-5.953125-3.425781-11.09375-8.40625-13.597656zm0 0" fill="#ccc"/><path d="m92.632812 108.6875c.003907-3.550781 1.234376-6.808594 3.273438-9.398438l28.566406-36.214843 35.871094 73.9375s-52.492188 0-60.894531 0c-8.40625 0-15.222657-6.316407-15.222657-14.726563 0-5.953125 3.425782-11.09375 8.40625-13.597656zm0 0" fill="#ebebeb"/><path d="m160.339844 279.089844 60.890625-30.449219v-30.445313l-60.890625-20.296874zm0 0" fill="#353535"/><path d="m160.339844 279.089844-60.890625-30.449219v-30.445313l60.890625-20.296874zm0 0" fill="#4f4f4f"/><path d="m129.894531 197.898438h60.890625v81.191406h-60.890625zm0 0" fill="#ffcb61"/><path d="m221.234375 248.640625h-30.445313l15.222657 76.117187h30.445312v-35.859374c0-15.4375-5.757812-29.523438-15.222656-40.257813zm0 0" fill="#cf301b"/><path d="m190.789062 248.640625h-91.339843c-9.46875 10.734375-15.222657 24.820313-15.222657 40.257813v35.859374h121.785157v-35.859374c0-15.4375-5.757813-29.523438-15.222657-40.257813zm0 0" fill="#ff4128"/><path d="m200.9375 167.453125h-30.449219l20.300781 50.742187h30.445313v-30.445312c0-11.207031-9.089844-20.296875-20.296875-20.296875zm0 0" fill="#cf301b"/><path d="m170.488281 167.453125h-50.742187c-11.210938 0-20.296875 9.085937-20.296875 20.296875v30.445312h91.339843v-30.445312c0-11.207031-9.089843-20.296875-20.300781-20.296875zm0 0" fill="#ff4128"/><path d="m114.671875 324.757812.003906 52.773438c0 8.40625 6.816407 15.222656 15.222657 15.222656s15.222656-6.816406 15.222656-15.222656v-52.773438zm0 0" fill="#ff4128"/><path d="m238.863281 497.164062-17.628906-5.875v-52.867187l-38.058594 15.222656v35.519531c0 3.277344 2.097657 6.183594 5.207031 7.21875l45.664063 15.222657c3.988281 1.332031 8.300781-.824219 9.628906-4.8125s-.828125-8.296875-4.8125-9.628907zm0 0" fill="#353535"/><path d="m81.820312 497.164062 17.628907-5.875v-52.867187l38.058593 15.222656v35.519531c0 3.277344-2.097656 6.183594-5.207031 7.21875l-45.664062 15.222657c-3.988281 1.332031-8.300781-.824219-9.628907-4.8125-1.328124-3.988281.824219-8.296875 4.8125-9.628907zm0 0" fill="#4f4f4f"/><path d="m137.507812 423.199219-38.058593.003906c-8.40625 0-15.222657 6.8125-15.222657 15.21875 0 8.410156 6.816407 15.222656 15.222657 15.222656h38.058593zm0 0" fill="#f7f7f7"/><path d="m183.175781 423.199219 38.054688.003906c8.410156 0 15.226562 6.8125 15.226562 15.21875 0 8.410156-6.816406 15.222656-15.222656 15.222656h-38.058594zm0 0" fill="#ebebeb"/><path d="m175.5625 324.757812v52.773438c0 8.40625 6.816406 15.222656 15.222656 15.222656 8.410156 0 15.222656-6.816406 15.222656-15.222656v-52.773438zm0 0" fill="#cf301b"/><path d="m236.457031 309.535156h-30.445312v30.445313h30.445312c8.40625 0 15.222657-6.816407 15.222657-15.222657s-6.816407-15.222656-15.222657-15.222656zm0 0" fill="#ebebeb"/><path d="m221.234375 324.757812c0-8.40625-6.816406-15.222656-15.222656-15.222656h-121.785157c-8.40625 0-15.222656 6.816406-15.222656 15.222656s6.816406 15.222657 15.222656 15.222657h121.785157c8.40625 0 15.222656-6.816407 15.222656-15.222657zm0 0" fill="#f7f7f7"/><path d="m160.339844 45.667969v87.28125l45.632812-31.460938v-10.148437c0-25.222656-20.429687-45.671875-45.632812-45.671875zm0 0" fill="#ffb4a9"/><path d="m160.339844 45.667969c-25.199219 0-45.628906 20.449219-45.628906 45.671875v10.148437l60.839843 31.460938v-41.609375c0-25.222656-6.808593-45.671875-15.210937-45.671875zm0 0" fill="#ffd9d4"/><path d="m179.3125 101.488281c-1.074219-1.605469-2.347656-3.058593-3.78125-4.339843l-15.191406 81.957031c8.597656 0 16.082031-4.761719 19.972656-11.792969 2.726562 2.585938 6.398438 4.179688 10.449219 4.179688 8.398437 0 15.210937-6.8125 15.210937-15.222657v-54.78125zm0 0" fill="#ebebeb"/><path d="m175.550781 163.882812-.019531-66.734374c-4.03125-3.609376-9.351562-5.808594-15.191406-5.808594-7.910156 0-14.875 4.027344-18.96875 10.148437h-26.660156v54.78125c0 8.410157 6.808593 15.222657 15.210937 15.222657 4.050781 0 7.722656-1.59375 10.449219-4.179688 3.886718 7.03125 11.371094 11.792969 19.96875 11.792969 8.402344 0 15.210937-6.816407 15.210937-15.222657zm0 0" fill="#f7f7f7"/><path d="m163.925781.015625-37.613281-.015625c-8.410156.03125-15.222656 6.84375-15.222656 15.253906 0 8.40625 6.8125 15.222656 15.222656 15.222656l68.058594 30.445313v-30.445313c0-16.746093-13.699219-30.4531245-30.445313-30.460937zm0 0" fill="#ff4128"/><path d="m194.371094 30.476562h-30.445313v30.445313h30.445313c8.410156 0 15.226562-6.816406 15.226562-15.222656s-6.816406-15.222657-15.226562-15.222657zm0 0" fill="#ebebeb"/><g fill="#f7f7f7"><path d="m179.148438 45.699219c0-8.40625-6.8125-15.222657-15.222657-15.222657h-37.613281c-8.410156 0-15.222656 6.816407-15.222656 15.222657s6.8125 15.222656 15.222656 15.222656h37.613281c8.410157 0 15.222657-6.816406 15.222657-15.222656zm0 0"/><path d="m111.089844 15.253906c0 8.40625-6.816406 15.222656-15.226563 15.222656-8.40625 0-15.222656-6.816406-15.222656-15.222656 0-8.410156 6.816406-15.222656 15.222656-15.222656 8.410157 0 15.226563 6.8125 15.226563 15.222656zm0 0"/></g></svg>