<svg height="512" viewBox="0 0 512 512" width="512" xmlns="http://www.w3.org/2000/svg"><g id="Filled_outline" data-name="Filled outline"><path d="m456 112-232 272-100.98-96.75 27.6-31.73 201.38-231.52 32.9 27.84 36.65 31.01 23.51 19.89z" fill="#ffb531"/><path d="m456 112-232 272-100.98-96.75 27.6-31.73c104.97-24.34 211.69-71.57 294.44-152.78z" fill="#fcac1f"/><path d="m421.55 82.85-41.36 47.05-3.73-13.93-14.29-1.92-3.73-13.93-14.3-1.91 40.76-46.37z" fill="#fedf7e"/><circle cx="160" cy="456" fill="#4db7e5" r="24"/><circle cx="352" cy="456" fill="#4db7e5" r="24"/><circle cx="48" cy="48" fill="#f35244" r="24"/><path d="m128 392h240a8 8 0 0 0 7.822-6.324l47.892-223.5 38.373-44.989a8 8 0 0 0 -.92-11.3l-104-88a8 8 0 0 0 -11.2.856l-97.42 112 12.072 10.5 92.238-106.038 20.653 17.476-35.379 40.248a8 8 0 0 0 4.95 13.211l9.011 1.2 2.35 8.776a8 8 0 0 0 6.662 5.86l9.007 1.209 2.351 8.782a8 8 0 0 0 13.737 3.213l36.176-41.155 22.325 18.894-33.333 39.081h-308.9l-22.491-104.96a32.039 32.039 0 1 0 -10.988 25.085l65.112 303.875h-6.1a32 32 0 0 0 0 64h4.305a32 32 0 1 0 55.39 0h136.61a31.989 31.989 0 1 0 27.695-16h-224a16 16 0 0 1 0-32zm256.038-278.6a8 8 0 0 0 -6.513-5.364l-9.006-1.21-2.352-8.78a8 8 0 0 0 -6.159-5.776l25.718-29.257 24.433 20.673zm-244.109 166.6h32.882l4.286 40h-8.332l-34.7-33.252zm48.71-56h59.361v40h-60.811l-3.657-34.129zm75.361 96v-40h38.191l-34.118 40zm-16 0h-54.811l-4.289-40h59.1zm-76.9-56h-17.254l15.359-17.657zm23.8 72h53.1v7.534l-24.586 28.825-27.431-26.282zm9.184 40h-4.9l-.561-5.229zm43.916-7.81v7.81h-6.662zm16-18.759 11.456-13.431h41.644l-4.286 40h-48.814zm25.1-29.431 33.976-39.834-4.265 39.834zm50.086-40h42.914l-8.571 40h-38.629zm1.714-16 .58-5.411 29.505-34.589h23.115l-8.571 40zm3.6-33.608.685-6.392h4.767zm-18.4 21.577-10.262 12.031h-51.838v-40h65.1zm-62.1-43.969v-40h71.1l-4.286 40zm-16 0h-45.444l34.793-40h10.651zm-66.649 0h-.162l-4.289-40h39.24zm-14.472 16.637-34.238 39.363h-6.174l-8.567-40h48.915zm-21.241 95.363h-7.171l-1.852-8.646zm16.7 16 18.362 17.589 2.4 22.411h-32.63l-8.57-40zm199.2 40h-32.638l4.286-40h36.914zm36-168h-12.9l17.228-20.2zm-33.93 0h-16.708l4.286-40h46.534zm-202.797-40 4.286 40h-50.63l-8.567-40zm-112.811-104a16 16 0 1 1 16-16 16.019 16.019 0 0 1 -16 16zm128 392a16 16 0 1 1 -16-16 16.019 16.019 0 0 1 16 16zm192 0a16 16 0 1 1 -16-16 16.019 16.019 0 0 1 16 16z"/></g></svg>