<?xml version="1.0"?>
<svg xmlns="http://www.w3.org/2000/svg" height="512px" viewBox="0 0 64 64" width="512px" class=""><g><g id="user"><circle cx="32" cy="32" fill="#00e7f0" r="29" data-original="#00E7F0" class="" data-old_color="#00e7f0" style="fill:#FFFFFF"/><path d="m61 32a29 29 0 0 1 -29 29c-.34 0-.67-.01-1-.03a28.987 28.987 0 0 0 0-57.94c.33-.02.66-.03 1-.03a29 29 0 0 1 29 29z" fill="#00b6bd" data-original="#00B6BD" class="active-path" style="fill:#FFFFFF" data-old_color="#00b6bd"/><path d="m54.73 50v.01a27.755 27.755 0 0 1 -2.74 2.99h-39.98a26.005 26.005 0 0 1 -2.74-3 16.987 16.987 0 0 1 16.73-14h12a17 17 0 0 1 16.73 14z" fill="#57a4ff" data-original="#57A4FF" class="" data-old_color="#57a4ff" style="fill:#FFF7C5"/><path d="m44 22v1a2.006 2.006 0 0 1 -2 2h-1v-5h1a2.006 2.006 0 0 1 2 2z" fill="#ffdaaa" data-original="#FFDAAA" class=""/><path d="m44 15v2l-3 3v-3l-11-3-7 3v3l-3-3v-2a8 8 0 0 1 8-8h8a8 8 0 0 1 8 8z" fill="#ffcd00" data-original="#FFCD00" class=""/><path d="m41 20v5a9 9 0 0 1 -18 0v-8l7-3 11 3z" fill="#ffdaaa" data-original="#FFDAAA" class=""/><path d="m38 36-2.03 7h-3.97-3.97l-2.03-7z" fill="#ffeb99" data-original="#FFEB99"/><circle cx="32" cy="53" fill="#ffeb99" r="4" data-original="#FFEB99"/><path d="m44 15v2l-3 3v-2l1-1v-2a8 8 0 0 0 -8-8h2a8 8 0 0 1 8 8z" fill="#cca400" data-original="#CCA400" class=""/><path d="m41 17v8a9 9 0 0 1 -9 9 8.262 8.262 0 0 1 -1-.06 8.993 8.993 0 0 0 8-8.94v-8l-9.78-2.67.78-.33z" fill="#ffc477" data-original="#FFC477"/><path d="m38 36-2.03 7h-2l2.03-7z" fill="#ffcd00" data-original="#FFCD00" class=""/><path d="m36 53a4 4 0 0 1 -4 4 3.657 3.657 0 0 1 -1-.13 4 4 0 0 0 0-7.74 3.657 3.657 0 0 1 1-.13 4 4 0 0 1 4 4z" fill="#ffcd00" data-original="#FFCD00" class=""/><path d="m54.73 50v.01a27.755 27.755 0 0 1 -2.74 2.99h-2a27.755 27.755 0 0 0 2.74-2.99v-.01a17 17 0 0 0 -16.73-14h2a17 17 0 0 1 16.73 14z" fill="#2488ff" data-original="#2488FF" class="" data-old_color="#2488ff" style="fill:#FAF7AA"/><path d="m23 20v5h-1a2.006 2.006 0 0 1 -2-2v-1a2.006 2.006 0 0 1 2-2z" fill="#ffdaaa" data-original="#FFDAAA" class=""/><path d="m32 2a30 30 0 1 0 30 30 30.034 30.034 0 0 0 -30-30zm0 2a27.987 27.987 0 0 1 23.188 43.677 17.984 17.984 0 0 0 -17.188-12.677h-12a17.948 17.948 0 0 0 -17.183 12.685 27.987 27.987 0 0 1 23.183-43.685zm4.668 33-1.453 5h-6.43l-1.453-5zm-21.957 17h12.389a5 5 0 0 0 9.8 0h12.39a27.909 27.909 0 0 1 -34.578 0zm18.289-1v-2.816a3 3 0 1 1 -2 0v2.816zm18.569-1h-14.669a5.016 5.016 0 0 0 -3.9-3.9v-2.1h-2v2.1a5.016 5.016 0 0 0 -3.9 3.9h-14.669a28.15 28.15 0 0 1 -2.078-2.262 15.933 15.933 0 0 1 14.906-12.7l1.815 6.246a1 1 0 0 0 .961.721h7.93a1 1 0 0 0 .961-.721l1.814-6.243a15.934 15.934 0 0 1 14.911 12.7 28.254 28.254 0 0 1 -2.082 2.259z" data-original="#000000" class="" style="fill:#000000"/><path d="m41.949 26h.051a3 3 0 0 0 3-3v-1a3 3 0 0 0 -1.826-2.76l1.533-1.533a1 1 0 0 0 .293-.707v-2a9.01 9.01 0 0 0 -9-9h-8a9.01 9.01 0 0 0 -9 9v2a1 1 0 0 0 .293.707l1.533 1.533a3 3 0 0 0 -1.826 2.76v1a3 3 0 0 0 3 3h.051a10 10 0 0 0 19.9 0zm1.051-3a1 1 0 0 1 -1 1v-3a1 1 0 0 1 1 1zm-22-8a7.008 7.008 0 0 1 7-7h8a7.008 7.008 0 0 1 7 7v1.586l-1 1v-.586a1 1 0 0 0 -.737-.965l-11-3a1.009 1.009 0 0 0 -.657.046l-7 3a1 1 0 0 0 -.606.919v.586l-1-1zm0 8v-1a1 1 0 0 1 1-1v3a1 1 0 0 1 -1-1zm11 10a8.009 8.009 0 0 1 -8-8v-7.341l6.073-2.6 9.927 2.705v7.236a8.009 8.009 0 0 1 -8 8z" data-original="#000000" class="" style="fill:#000000"/></g></g> </svg>
