<svg width="552" height="552" viewBox="0 0 552 552" fill="none" xmlns="http://www.w3.org/2000/svg">
<path d="M275.081 532C194.69 532 114.279 532 33.8871 532C20.6887 532 19.3558 530.719 20.2006 519.177C25.2885 449.168 88.821 396.497 168.988 396.25C240.631 396.037 312.274 396.004 383.917 396.267C463.219 396.546 527.184 449.907 531.821 519.161C532.591 530.818 531.37 532 518.172 532C437.142 532 356.112 532 275.081 532ZM428.111 152.991C428.111 226.448 360.036 285.983 276.039 285.983C192.042 285.983 123.967 226.448 123.967 152.991C123.967 79.5341 192.042 20 276.039 20C360.036 20 428.111 79.5341 428.111 152.991Z" stroke="#D7D7D7" stroke-width="39"/>
<path d="M424.826 180.624C410.276 240.815 349.203 285.983 276.039 285.983C192.042 285.983 123.967 226.448 123.967 152.991C123.967 79.5341 192.042 20 276.039 20C360.036 20 428.111 79.5341 428.111 152.991M235.111 532C168.03 532 100.949 532 33.8871 532C20.6887 532 19.3558 530.719 20.2006 519.177C25.2885 449.168 88.821 396.497 168.988 396.25C240.631 396.037 312.274 396.004 383.917 396.267C463.219 396.546 527.184 449.907 531.821 519.161C532.591 530.818 531.37 532 518.172 532C437.142 532 356.112 532 275.081 532H235.111Z" stroke="#2352A1" stroke-width="39" stroke-linecap="round"/>
</svg>
