<svg width="512" height="512" viewBox="0 0 512 512" fill="none" xmlns="http://www.w3.org/2000/svg">
<path d="M239.572 6.46843L0 229.507V229.887H512V229.507L272.428 6.46843C263.177 -2.15614 248.823 -2.15614 239.572 6.46843Z" fill="#2B6BE9"/>
<path d="M0 229.886H512V511.999H0V229.886Z" fill="#1E4CA8"/>
<path d="M384.326 162.27V377.628C384.326 394.588 364.548 408.359 340.188 408.359H160.6C136.24 408.359 116.462 394.588 116.462 377.628V162.27C116.462 145.309 136.24 131.539 160.6 131.539H340.188C364.548 131.539 384.326 145.309 384.326 162.27Z" fill="white"/>
<path d="M384.326 162.27V377.628C384.326 394.588 364.548 408.359 340.188 408.359H160.6C136.24 408.359 116.462 394.588 116.462 377.628V162.27C116.462 145.309 136.24 131.539 160.6 131.539H340.188C364.548 131.539 384.326 145.309 384.326 162.27Z" stroke="#CCCCCC" stroke-width="1.21566"/>
<path d="M0.803324 229.957L508.487 509.89C508.195 511.02 508.231 510.87 507.939 512H1.13876C0.512005 512 0 511.488 0 510.861V230.434C0 230.019 0.441389 229.754 0.803324 229.957Z" fill="#2B6BE9"/>
<path d="M511.197 229.958L256 370.679L508.487 509.89C508.195 511.011 508.231 510.879 507.939 512H510.861C511.488 512 512 511.488 512 510.861V230.425C512 230.019 511.559 229.755 511.197 229.958Z" fill="#6C94E2"/>
<g opacity="0.666667">
<path d="M256 322.242C222.814 322.242 195.816 295.244 195.816 262.058C195.816 228.872 222.814 201.874 256 201.874C289.185 201.874 316.184 228.872 316.184 262.058C316.184 295.244 289.185 322.242 256 322.242ZM304.205 213.852C291.329 200.976 274.21 193.885 256 193.885C237.79 193.885 220.67 200.976 207.794 213.852C194.918 226.728 187.827 243.848 187.827 262.058C187.827 280.268 194.918 297.387 207.794 310.264C220.67 323.14 237.79 330.231 256 330.231C274.21 330.231 291.329 323.14 304.205 310.264C317.081 297.387 324.173 280.268 324.173 262.058C324.173 243.848 317.081 226.729 304.205 213.852Z" fill="#54B7A6"/>
<path d="M288.569 240.183C287.009 238.624 284.48 238.624 282.92 240.183L247.647 275.457L229.079 256.889C227.519 255.329 224.989 255.329 223.43 256.889C221.87 258.449 221.87 260.978 223.43 262.538L244.822 283.931C245.602 284.711 246.624 285.101 247.646 285.101C248.668 285.101 249.691 284.711 250.471 283.931L288.569 245.832C290.129 244.273 290.129 241.743 288.569 240.183Z" fill="#54B7A6"/>
</g>
</svg>
